STARTFONT 2.1
FONT -FontForge-Pacifico-Book-R-Normal--11-110-72-72-P-65-ISO10646-1
SIZE 11 72 72
FONTBOUNDINGBOX 25 22 -7 -5
COMMENT "Generated by fontforge, http://fontforge.sourceforge.net"
COMMENT "Copyright 2018 The Pacifico Project Authors (https://github.com/googlefonts/Pacifico)"
STARTPROPERTIES 40
FOUNDRY "FontForge"
FAMILY_NAME "Pacifico"
WEIGHT_NAME "Book"
SLANT "R"
SETWIDTH_NAME "Normal"
ADD_STYLE_NAME ""
PIXEL_SIZE 11
POINT_SIZE 110
RESOLUTION_X 72
RESOLUTION_Y 72
SPACING "P"
AVERAGE_WIDTH 65
CHARSET_REGISTRY "ISO10646"
CHARSET_ENCODING "1"
FONTNAME_REGISTRY ""
CHARSET_COLLECTIONS "ISO8859-2 ISO8859-5 ISO8859-9 ISO8859-4 ISO10646-1"
FONT_NAME "Pacifico-Regular"
FACE_NAME "Pacifico Regular"
COPYRIGHT "Copyright 2018 The Pacifico Project Authors (https://github.com/googlefonts/Pacifico)"
FONT_VERSION "3.001"
FONT_ASCENT 9
FONT_DESCENT 2
UNDERLINE_POSITION -1
UNDERLINE_THICKNESS 1
X_HEIGHT 4
CAP_HEIGHT 8
DEFAULT_CHAR 1
RAW_ASCENT 800
RAW_DESCENT 200
NORM_SPACE 3
RELATIVE_WEIGHT 40
RELATIVE_SETWIDTH 50
SUPERSCRIPT_X 0
SUPERSCRIPT_Y 3
SUPERSCRIPT_SIZE 6
SUBSCRIPT_X 0
SUBSCRIPT_Y 0
SUBSCRIPT_SIZE 6
AVG_LOWERCASE_WIDTH 51
AVG_UPPERCASE_WIDTH 90
ENDPROPERTIES
CHARS 1514
STARTCHAR NULL.dup1
ENCODING 0
SWIDTH 0 0
DWIDTH 0 0
BBX 1 1 0 0
BITMAP
00
ENDCHAR
STARTCHAR nonmarkingreturn
ENCODING 13
SWIDTH 265 0
DWIDTH 3 0
BBX 1 1 0 0
BITMAP
00
ENDCHAR
STARTCHAR space
ENCODING 32
SWIDTH 265 0
DWIDTH 3 0
BBX 1 1 0 0
BITMAP
00
ENDCHAR
STARTCHAR exclam
ENCODING 33
SWIDTH 340 0
DWIDTH 4 0
BBX 4 9 0 0
BITMAP
30
30
20
20
20
60
00
C0
C0
ENDCHAR
STARTCHAR quotedbl
ENCODING 34
SWIDTH 510 0
DWIDTH 6 0
BBX 5 4 1 5
BITMAP
58
D0
D0
D0
ENDCHAR
STARTCHAR numbersign
ENCODING 35
SWIDTH 700 0
DWIDTH 8 0
BBX 7 7 0 0
BITMAP
12
16
7E
24
FE
68
48
ENDCHAR
STARTCHAR dollar
ENCODING 36
SWIDTH 524 0
DWIDTH 6 0
BBX 5 9 0 -1
BITMAP
10
78
58
60
38
68
F8
20
20
ENDCHAR
STARTCHAR percent
ENCODING 37
SWIDTH 896 0
DWIDTH 10 0
BBX 9 8 1 0
BITMAP
E200
A400
BC00
E800
1300
1580
2580
6700
ENDCHAR
STARTCHAR ampersand
ENCODING 38
SWIDTH 851 0
DWIDTH 9 0
BBX 9 10 0 0
BITMAP
1C00
3600
2600
3400
3800
3800
6980
CF00
4600
7F00
ENDCHAR
STARTCHAR quotesingle
ENCODING 39
SWIDTH 290 0
DWIDTH 3 0
BBX 2 4 1 5
BITMAP
40
C0
C0
C0
ENDCHAR
STARTCHAR parenleft
ENCODING 40
SWIDTH 613 0
DWIDTH 7 0
BBX 7 11 1 -1
BITMAP
1E
32
60
40
40
C0
C0
80
80
C8
70
ENDCHAR
STARTCHAR parenright
ENCODING 41
SWIDTH 613 0
DWIDTH 7 0
BBX 7 11 -1 -1
BITMAP
1C
36
02
02
02
06
06
04
0C
88
F0
ENDCHAR
STARTCHAR asterisk
ENCODING 42
SWIDTH 520 0
DWIDTH 6 0
BBX 5 4 1 6
BITMAP
60
78
F0
30
ENDCHAR
STARTCHAR plus
ENCODING 43
SWIDTH 700 0
DWIDTH 8 0
BBX 6 7 1 0
BITMAP
10
10
30
FC
20
20
20
ENDCHAR
STARTCHAR comma
ENCODING 44
SWIDTH 257 0
DWIDTH 3 0
BBX 2 4 0 -2
BITMAP
40
C0
C0
80
ENDCHAR
STARTCHAR hyphen
ENCODING 45
SWIDTH 403 0
DWIDTH 4 0
BBX 3 1 1 3
BITMAP
E0
ENDCHAR
STARTCHAR period
ENCODING 46
SWIDTH 257 0
DWIDTH 3 0
BBX 2 2 0 0
BITMAP
C0
C0
ENDCHAR
STARTCHAR slash
ENCODING 47
SWIDTH 509 0
DWIDTH 6 0
BBX 6 10 0 0
BITMAP
04
0C
08
18
10
30
20
40
C0
80
ENDCHAR
STARTCHAR zero
ENCODING 48
SWIDTH 543 0
DWIDTH 6 0
BBX 5 6 1 0
BITMAP
70
90
98
90
90
E0
ENDCHAR
STARTCHAR one
ENCODING 49
SWIDTH 376 0
DWIDTH 4 0
BBX 3 7 1 0
BITMAP
40
E0
C0
40
40
40
C0
ENDCHAR
STARTCHAR two
ENCODING 50
SWIDTH 560 0
DWIDTH 6 0
BBX 6 6 0 0
BITMAP
38
4C
48
18
20
FC
ENDCHAR
STARTCHAR three
ENCODING 51
SWIDTH 520 0
DWIDTH 6 0
BBX 5 6 0 0
BITMAP
78
48
18
38
C8
78
ENDCHAR
STARTCHAR four
ENCODING 52
SWIDTH 577 0
DWIDTH 6 0
BBX 5 7 1 0
BITMAP
20
40
D0
90
F8
10
30
ENDCHAR
STARTCHAR five
ENCODING 53
SWIDTH 518 0
DWIDTH 6 0
BBX 6 6 0 0
BITMAP
7C
60
70
08
C8
70
ENDCHAR
STARTCHAR six
ENCODING 54
SWIDTH 541 0
DWIDTH 6 0
BBX 5 6 1 0
BITMAP
70
D8
F0
90
90
F0
ENDCHAR
STARTCHAR seven
ENCODING 55
SWIDTH 497 0
DWIDTH 5 0
BBX 6 6 0 0
BITMAP
FC
18
30
20
60
60
ENDCHAR
STARTCHAR eight
ENCODING 56
SWIDTH 512 0
DWIDTH 6 0
BBX 5 6 0 0
BITMAP
78
48
78
78
C8
78
ENDCHAR
STARTCHAR nine
ENCODING 57
SWIDTH 541 0
DWIDTH 6 0
BBX 6 6 0 0
BITMAP
78
48
7C
08
D8
70
ENDCHAR
STARTCHAR colon
ENCODING 58
SWIDTH 257 0
DWIDTH 3 0
BBX 3 5 0 0
BITMAP
60
60
00
C0
C0
ENDCHAR
STARTCHAR semicolon
ENCODING 59
SWIDTH 257 0
DWIDTH 3 0
BBX 3 7 0 -2
BITMAP
60
60
00
40
C0
C0
80
ENDCHAR
STARTCHAR less
ENCODING 60
SWIDTH 700 0
DWIDTH 8 0
BBX 6 5 1 1
BITMAP
0C
78
C0
70
0C
ENDCHAR
STARTCHAR equal
ENCODING 61
SWIDTH 700 0
DWIDTH 8 0
BBX 6 3 1 2
BITMAP
FC
00
FC
ENDCHAR
STARTCHAR greater
ENCODING 62
SWIDTH 700 0
DWIDTH 8 0
BBX 6 5 1 1
BITMAP
C0
78
0C
78
C0
ENDCHAR
STARTCHAR question
ENCODING 63
SWIDTH 476 0
DWIDTH 5 0
BBX 5 9 1 0
BITMAP
70
98
98
30
60
40
00
C0
C0
ENDCHAR
STARTCHAR at
ENCODING 64
SWIDTH 1015 0
DWIDTH 11 0
BBX 11 11 0 -3
BITMAP
0F80
18C0
2060
6720
4F20
DB60
DA40
4D80
4000
60C0
1F80
ENDCHAR
STARTCHAR A
ENCODING 65
SWIDTH 786 0
DWIDTH 9 0
BBX 9 9 1 0
BITMAP
1F00
3100
4600
C600
8600
8400
8C00
DC80
7700
ENDCHAR
STARTCHAR B
ENCODING 66
SWIDTH 827 0
DWIDTH 9 0
BBX 10 9 0 0
BITMAP
3F00
E180
30C0
3180
2700
2300
6100
6300
7E00
ENDCHAR
STARTCHAR C
ENCODING 67
SWIDTH 686 0
DWIDTH 8 0
BBX 8 9 1 0
BITMAP
3C
66
C6
C4
80
80
C0
E3
3E
ENDCHAR
STARTCHAR D
ENCODING 68
SWIDTH 836 0
DWIDTH 9 0
BBX 9 9 0 0
BITMAP
3E00
E300
3180
3180
2180
2180
6100
6700
7C00
ENDCHAR
STARTCHAR E
ENCODING 69
SWIDTH 686 0
DWIDTH 8 0
BBX 9 9 0 0
BITMAP
1E00
3300
6300
2200
1800
6000
C000
E180
3F00
ENDCHAR
STARTCHAR F
ENCODING 70
SWIDTH 712 0
DWIDTH 8 0
BBX 10 9 0 0
BITMAP
1FC0
6C00
4C00
6C00
1F00
0800
0800
9800
7000
ENDCHAR
STARTCHAR G
ENCODING 71
SWIDTH 811 0
DWIDTH 9 0
BBX 9 14 1 -5
BITMAP
3C00
6600
C600
C200
8000
8E00
C200
E280
3F00
0600
0C00
1400
1C00
1800
ENDCHAR
STARTCHAR H
ENCODING 72
SWIDTH 873 0
DWIDTH 10 0
BBX 11 10 0 0
BITMAP
00C0
71C0
9140
1140
1380
7F00
3300
3320
2320
21C0
ENDCHAR
STARTCHAR I
ENCODING 73
SWIDTH 495 0
DWIDTH 5 0
BBX 6 9 0 0
BITMAP
7C
10
10
30
30
30
20
20
F8
ENDCHAR
STARTCHAR J
ENCODING 74
SWIDTH 743 0
DWIDTH 8 0
BBX 7 10 1 -1
BITMAP
7E
C6
86
86
0C
3C
6C
4C
48
70
ENDCHAR
STARTCHAR K
ENCODING 75
SWIDTH 937 0
DWIDTH 10 0
BBX 12 9 0 0
BITMAP
3E60
4C40
4CC0
4D80
1E00
0B00
8910
D9B0
70E0
ENDCHAR
STARTCHAR L
ENCODING 76
SWIDTH 673 0
DWIDTH 7 0
BBX 9 9 0 0
BITMAP
0E00
3300
3100
2100
2000
2000
2000
F980
CF00
ENDCHAR
STARTCHAR M
ENCODING 77
SWIDTH 1232 0
DWIDTH 14 0
BBX 15 9 0 0
BITMAP
7738
D558
9998
3198
3110
3110
3330
2332
231C
ENDCHAR
STARTCHAR N
ENCODING 78
SWIDTH 884 0
DWIDTH 10 0
BBX 11 9 0 0
BITMAP
7380
D580
9980
3180
3180
3100
3100
2120
21C0
ENDCHAR
STARTCHAR O
ENCODING 79
SWIDTH 816 0
DWIDTH 9 0
BBX 8 9 1 0
BITMAP
3C
66
C3
C3
83
83
C2
C4
78
ENDCHAR
STARTCHAR P
ENCODING 80
SWIDTH 805 0
DWIDTH 9 0
BBX 9 10 0 -1
BITMAP
0F00
3180
2D80
4980
4900
5E00
D800
5800
5800
7000
ENDCHAR
STARTCHAR Q
ENCODING 81
SWIDTH 816 0
DWIDTH 9 0
BBX 9 12 1 -3
BITMAP
3C00
6600
C300
C300
8300
8300
C600
EC00
3800
1800
0C80
0700
ENDCHAR
STARTCHAR R
ENCODING 82
SWIDTH 880 0
DWIDTH 10 0
BBX 10 9 1 0
BITMAP
3E00
6300
D300
9200
BC00
B400
B640
B240
6380
ENDCHAR
STARTCHAR S
ENCODING 83
SWIDTH 693 0
DWIDTH 8 0
BBX 8 9 0 0
BITMAP
3E
63
63
60
3C
06
C2
C6
7C
ENDCHAR
STARTCHAR T
ENCODING 84
SWIDTH 697 0
DWIDTH 8 0
BBX 10 9 0 0
BITMAP
3FC0
4C00
CC00
4C00
0800
0800
0800
1800
1800
ENDCHAR
STARTCHAR U
ENCODING 85
SWIDTH 890 0
DWIDTH 10 0
BBX 11 9 0 0
BITMAP
7080
D080
9180
3180
3180
3300
2300
35A0
39C0
ENDCHAR
STARTCHAR V
ENCODING 86
SWIDTH 763 0
DWIDTH 8 0
BBX 9 9 1 0
BITMAP
4600
4B00
CB00
CE00
C780
C400
4C00
7800
7000
ENDCHAR
STARTCHAR W
ENCODING 87
SWIDTH 1217 0
DWIDTH 13 0
BBX 14 9 1 0
BITMAP
4230
4258
C658
C670
C63C
CE20
4A60
7BC0
7180
ENDCHAR
STARTCHAR X
ENCODING 88
SWIDTH 712 0
DWIDTH 8 0
BBX 9 9 0 0
BITMAP
7100
9B00
1E00
0C00
1800
3C00
2C00
4480
C700
ENDCHAR
STARTCHAR Y
ENCODING 89
SWIDTH 851 0
DWIDTH 9 0
BBX 11 12 0 -3
BITMAP
7080
D080
9180
1180
3180
3380
3300
1FE0
0D00
1300
1200
1E00
ENDCHAR
STARTCHAR Z
ENCODING 90
SWIDTH 721 0
DWIDTH 8 0
BBX 9 9 0 0
BITMAP
3F80
4300
4200
4600
0C00
0800
1800
F880
EF00
ENDCHAR
STARTCHAR bracketleft
ENCODING 91
SWIDTH 405 0
DWIDTH 4 0
BBX 4 11 1 -1
BITMAP
70
40
40
40
40
C0
C0
C0
80
80
E0
ENDCHAR
STARTCHAR backslash
ENCODING 92
SWIDTH 509 0
DWIDTH 6 0
BBX 4 10 1 0
BITMAP
C0
C0
40
40
60
20
20
30
30
10
ENDCHAR
STARTCHAR bracketright
ENCODING 93
SWIDTH 405 0
DWIDTH 4 0
BBX 5 11 -1 -1
BITMAP
38
08
08
18
18
18
10
10
10
10
F0
ENDCHAR
STARTCHAR asciicircum
ENCODING 94
SWIDTH 700 0
DWIDTH 8 0
BBX 5 6 1 1
BITMAP
10
30
30
48
C8
88
ENDCHAR
STARTCHAR underscore
ENCODING 95
SWIDTH 354 0
DWIDTH 4 0
BBX 4 1 0 -1
BITMAP
F0
ENDCHAR
STARTCHAR grave
ENCODING 96
SWIDTH 600 0
DWIDTH 7 0
BBX 3 4 1 6
BITMAP
40
C0
40
20
ENDCHAR
STARTCHAR a
ENCODING 97
SWIDTH 470 0
DWIDTH 5 0
BBX 7 5 0 0
BITMAP
38
78
D0
D6
6C
ENDCHAR
STARTCHAR b
ENCODING 98
SWIDTH 473 0
DWIDTH 5 0
BBX 6 10 1 0
BITMAP
60
50
D0
A0
A0
E0
B0
BC
B0
E0
ENDCHAR
STARTCHAR c
ENCODING 99
SWIDTH 368 0
DWIDTH 4 0
BBX 5 5 0 0
BITMAP
70
50
C0
C8
70
ENDCHAR
STARTCHAR d
ENCODING 100
SWIDTH 515 0
DWIDTH 6 0
BBX 7 10 0 0
BITMAP
04
0A
0A
1C
1C
3C
58
D8
DA
6C
ENDCHAR
STARTCHAR e
ENCODING 101
SWIDTH 393 0
DWIDTH 4 0
BBX 6 5 0 0
BITMAP
70
50
F0
CC
78
ENDCHAR
STARTCHAR f
ENCODING 102
SWIDTH 371 0
DWIDTH 4 0
BBX 4 13 1 -3
BITMAP
30
50
50
D0
A0
C0
80
F0
C0
C0
C0
C0
C0
ENDCHAR
STARTCHAR g
ENCODING 103
SWIDTH 479 0
DWIDTH 5 0
BBX 6 10 0 -5
BITMAP
38
78
D8
D4
78
30
50
A0
A0
C0
ENDCHAR
STARTCHAR h
ENCODING 104
SWIDTH 502 0
DWIDTH 6 0
BBX 6 10 1 0
BITMAP
60
50
D0
A0
A0
F0
F0
D0
B4
B8
ENDCHAR
STARTCHAR i
ENCODING 105
SWIDTH 246 0
DWIDTH 3 0
BBX 3 7 1 0
BITMAP
C0
00
80
80
80
A0
C0
ENDCHAR
STARTCHAR j
ENCODING 106
SWIDTH 254 0
DWIDTH 3 0
BBX 7 12 -3 -5
BITMAP
0C
00
08
08
08
0E
1C
18
30
50
F0
60
ENDCHAR
STARTCHAR k
ENCODING 107
SWIDTH 525 0
DWIDTH 6 0
BBX 6 10 1 0
BITMAP
60
50
D0
A0
A0
F0
D8
D4
A4
B8
ENDCHAR
STARTCHAR l
ENCODING 108
SWIDTH 326 0
DWIDTH 4 0
BBX 4 10 1 0
BITMAP
60
50
D0
A0
A0
A0
C0
80
90
E0
ENDCHAR
STARTCHAR m
ENCODING 109
SWIDTH 744 0
DWIDTH 8 0
BBX 9 5 1 0
BITMAP
B600
FE00
F400
B580
B700
ENDCHAR
STARTCHAR n
ENCODING 110
SWIDTH 496 0
DWIDTH 5 0
BBX 6 5 1 0
BITMAP
B0
F0
F0
B4
B8
ENDCHAR
STARTCHAR o
ENCODING 111
SWIDTH 451 0
DWIDTH 5 0
BBX 6 5 0 0
BITMAP
70
58
DC
D8
70
ENDCHAR
STARTCHAR p
ENCODING 112
SWIDTH 481 0
DWIDTH 5 0
BBX 8 10 -1 -5
BITMAP
3C
2C
2C
6B
7E
A0
A0
E0
C0
C0
ENDCHAR
STARTCHAR q
ENCODING 113
SWIDTH 500 0
DWIDTH 6 0
BBX 7 10 0 -4
BITMAP
08
38
78
D8
D6
74
14
34
18
18
ENDCHAR
STARTCHAR r
ENCODING 114
SWIDTH 455 0
DWIDTH 5 0
BBX 6 5 1 0
BITMAP
B0
D4
D8
80
80
ENDCHAR
STARTCHAR s
ENCODING 115
SWIDTH 427 0
DWIDTH 5 0
BBX 6 5 0 0
BITMAP
20
20
74
BC
78
ENDCHAR
STARTCHAR t
ENCODING 116
SWIDTH 393 0
DWIDTH 4 0
BBX 6 10 0 0
BITMAP
18
28
28
70
50
F8
40
40
6C
38
ENDCHAR
STARTCHAR u
ENCODING 117
SWIDTH 462 0
DWIDTH 5 0
BBX 6 5 1 0
BITMAP
90
B0
A0
EC
F0
ENDCHAR
STARTCHAR v
ENCODING 118
SWIDTH 449 0
DWIDTH 5 0
BBX 5 5 1 0
BITMAP
B0
B0
B8
E0
C0
ENDCHAR
STARTCHAR w
ENCODING 119
SWIDTH 700 0
DWIDTH 8 0
BBX 8 5 1 0
BITMAP
B6
B6
B7
D8
D8
ENDCHAR
STARTCHAR x
ENCODING 120
SWIDTH 529 0
DWIDTH 6 0
BBX 7 5 0 0
BITMAP
6C
54
10
F2
FC
ENDCHAR
STARTCHAR y
ENCODING 121
SWIDTH 479 0
DWIDTH 5 0
BBX 6 10 0 -5
BITMAP
48
58
50
74
78
30
50
A0
A0
C0
ENDCHAR
STARTCHAR z
ENCODING 122
SWIDTH 445 0
DWIDTH 5 0
BBX 5 5 1 0
BITMAP
F0
60
C8
88
F0
ENDCHAR
STARTCHAR braceleft
ENCODING 123
SWIDTH 490 0
DWIDTH 5 0
BBX 5 11 1 -1
BITMAP
18
20
20
20
60
C0
60
60
40
40
70
ENDCHAR
STARTCHAR bar
ENCODING 124
SWIDTH 326 0
DWIDTH 4 0
BBX 3 13 0 -3
BITMAP
20
20
20
20
20
60
60
40
40
40
40
40
C0
ENDCHAR
STARTCHAR braceright
ENCODING 125
SWIDTH 490 0
DWIDTH 5 0
BBX 5 11 0 -1
BITMAP
60
30
10
30
30
18
30
20
20
20
E0
ENDCHAR
STARTCHAR asciitilde
ENCODING 126
SWIDTH 700 0
DWIDTH 8 0
BBX 6 3 1 2
BITMAP
44
FC
98
ENDCHAR
STARTCHAR uni00A0
ENCODING 160
SWIDTH 265 0
DWIDTH 3 0
BBX 1 1 0 0
BITMAP
00
ENDCHAR
STARTCHAR exclamdown
ENCODING 161
SWIDTH 340 0
DWIDTH 4 0
BBX 3 9 0 -4
BITMAP
60
60
00
40
40
40
C0
C0
80
ENDCHAR
STARTCHAR cent
ENCODING 162
SWIDTH 466 0
DWIDTH 5 0
BBX 5 8 0 -1
BITMAP
10
10
78
68
E8
78
20
20
ENDCHAR
STARTCHAR sterling
ENCODING 163
SWIDTH 525 0
DWIDTH 6 0
BBX 6 6 0 0
BITMAP
38
6C
40
F0
40
FC
ENDCHAR
STARTCHAR currency
ENCODING 164
SWIDTH 700 0
DWIDTH 8 0
BBX 6 5 1 1
BITMAP
FC
48
48
48
FC
ENDCHAR
STARTCHAR yen
ENCODING 165
SWIDTH 497 0
DWIDTH 5 0
BBX 6 7 0 0
BITMAP
44
CC
78
30
78
F8
20
ENDCHAR
STARTCHAR brokenbar
ENCODING 166
SWIDTH 326 0
DWIDTH 4 0
BBX 3 13 0 -3
BITMAP
20
20
20
20
20
60
00
00
40
40
40
40
C0
ENDCHAR
STARTCHAR section
ENCODING 167
SWIDTH 607 0
DWIDTH 7 0
BBX 5 9 1 0
BITMAP
78
48
48
70
D8
78
90
90
F0
ENDCHAR
STARTCHAR dieresis
ENCODING 168
SWIDTH 600 0
DWIDTH 7 0
BBX 4 1 1 6
BITMAP
D0
ENDCHAR
STARTCHAR copyright
ENCODING 169
SWIDTH 647 0
DWIDTH 7 0
BBX 6 6 1 4
BITMAP
78
B4
AC
C4
B4
78
ENDCHAR
STARTCHAR ordfeminine
ENCODING 170
SWIDTH 393 0
DWIDTH 4 0
BBX 4 4 1 5
BITMAP
70
B0
A0
E0
ENDCHAR
STARTCHAR guillemotleft
ENCODING 171
SWIDTH 615 0
DWIDTH 7 0
BBX 6 4 0 0
BITMAP
24
D8
58
24
ENDCHAR
STARTCHAR logicalnot
ENCODING 172
SWIDTH 700 0
DWIDTH 8 0
BBX 6 3 1 1
BITMAP
FC
0C
0C
ENDCHAR
STARTCHAR uni00AD
ENCODING 173
SWIDTH 403 0
DWIDTH 4 0
BBX 3 1 1 3
BITMAP
E0
ENDCHAR
STARTCHAR registered
ENCODING 174
SWIDTH 647 0
DWIDTH 7 0
BBX 6 6 1 4
BITMAP
78
F4
AC
B4
B4
78
ENDCHAR
STARTCHAR macron
ENCODING 175
SWIDTH 600 0
DWIDTH 7 0
BBX 3 1 2 6
BITMAP
E0
ENDCHAR
STARTCHAR degree
ENCODING 176
SWIDTH 385 0
DWIDTH 4 0
BBX 3 3 1 6
BITMAP
60
A0
E0
ENDCHAR
STARTCHAR plusminus
ENCODING 177
SWIDTH 700 0
DWIDTH 8 0
BBX 6 7 1 0
BITMAP
10
10
FC
30
20
00
F8
ENDCHAR
STARTCHAR uni00B2
ENCODING 178
SWIDTH 450 0
DWIDTH 5 0
BBX 4 5 1 4
BITMAP
F0
90
20
40
F0
ENDCHAR
STARTCHAR uni00B3
ENCODING 179
SWIDTH 450 0
DWIDTH 5 0
BBX 4 5 1 4
BITMAP
70
90
60
90
E0
ENDCHAR
STARTCHAR acute
ENCODING 180
SWIDTH 600 0
DWIDTH 7 0
BBX 2 3 3 6
BITMAP
40
C0
80
ENDCHAR
STARTCHAR uni00B5
ENCODING 181
SWIDTH 462 0
DWIDTH 5 0
BBX 7 8 0 -3
BITMAP
48
58
50
F6
F8
C0
C0
C0
ENDCHAR
STARTCHAR paragraph
ENCODING 182
SWIDTH 739 0
DWIDTH 8 0
BBX 7 9 1 0
BITMAP
7C
F6
F6
74
34
2C
2C
2C
2C
ENDCHAR
STARTCHAR periodcentered
ENCODING 183
SWIDTH 257 0
DWIDTH 3 0
BBX 2 2 1 2
BITMAP
C0
80
ENDCHAR
STARTCHAR cedilla
ENCODING 184
SWIDTH 600 0
DWIDTH 7 0
BBX 3 3 1 -3
BITMAP
C0
20
C0
ENDCHAR
STARTCHAR uni00B9
ENCODING 185
SWIDTH 450 0
DWIDTH 5 0
BBX 3 5 1 4
BITMAP
60
A0
20
60
60
ENDCHAR
STARTCHAR ordmasculine
ENCODING 186
SWIDTH 408 0
DWIDTH 4 0
BBX 4 4 1 5
BITMAP
60
B0
B0
E0
ENDCHAR
STARTCHAR guillemotright
ENCODING 187
SWIDTH 615 0
DWIDTH 7 0
BBX 6 4 0 0
BITMAP
58
6C
3C
D8
ENDCHAR
STARTCHAR onequarter
ENCODING 188
SWIDTH 955 0
DWIDTH 11 0
BBX 9 9 1 0
BITMAP
6000
A600
2400
6C00
6B00
1A80
3780
2780
0100
ENDCHAR
STARTCHAR onehalf
ENCODING 189
SWIDTH 1024 0
DWIDTH 11 0
BBX 10 9 1 0
BITMAP
6000
A600
2400
6C00
6B80
1AC0
3080
2100
07C0
ENDCHAR
STARTCHAR threequarters
ENCODING 190
SWIDTH 1035 0
DWIDTH 11 0
BBX 10 9 1 0
BITMAP
7000
9300
6200
9600
E580
09C0
1A80
13C0
0080
ENDCHAR
STARTCHAR questiondown
ENCODING 191
SWIDTH 476 0
DWIDTH 5 0
BBX 5 9 0 -4
BITMAP
18
30
00
30
60
C0
90
90
F0
ENDCHAR
STARTCHAR Agrave
ENCODING 192
SWIDTH 786 0
DWIDTH 9 0
BBX 9 13 1 0
BITMAP
1000
1800
0C00
0000
1F00
3100
4600
C600
8600
8400
8C00
DC80
7700
ENDCHAR
STARTCHAR Aacute
ENCODING 193
SWIDTH 786 0
DWIDTH 9 0
BBX 9 13 1 0
BITMAP
0100
0300
0600
0000
1F00
3100
4600
C600
8600
8400
8C00
DC80
7700
ENDCHAR
STARTCHAR Acircumflex
ENCODING 194
SWIDTH 786 0
DWIDTH 9 0
BBX 9 13 1 0
BITMAP
0600
0E00
0B00
0000
1F00
3100
4600
C600
8600
8400
8C00
DC80
7700
ENDCHAR
STARTCHAR Atilde
ENCODING 195
SWIDTH 786 0
DWIDTH 9 0
BBX 9 12 1 0
BITMAP
0D00
1B00
0000
1F00
3100
4600
C600
8600
8400
8C00
DC80
7700
ENDCHAR
STARTCHAR Adieresis
ENCODING 196
SWIDTH 786 0
DWIDTH 9 0
BBX 9 11 1 0
BITMAP
0B00
0000
1F00
3100
4600
C600
8600
8400
8C00
DC80
7700
ENDCHAR
STARTCHAR Aring
ENCODING 197
SWIDTH 786 0
DWIDTH 9 0
BBX 9 13 1 0
BITMAP
0600
0A00
0E00
0000
1F00
3100
4600
C600
8600
8400
8C00
DC80
7700
ENDCHAR
STARTCHAR AE
ENCODING 198
SWIDTH 1015 0
DWIDTH 11 0
BBX 12 9 1 0
BITMAP
1FE0
7200
4200
C600
87C0
8400
8C00
CE30
73E0
ENDCHAR
STARTCHAR Ccedilla
ENCODING 199
SWIDTH 686 0
DWIDTH 8 0
BBX 8 12 1 -3
BITMAP
3C
66
C6
C4
80
80
C0
E3
3E
10
10
70
ENDCHAR
STARTCHAR Egrave
ENCODING 200
SWIDTH 686 0
DWIDTH 8 0
BBX 9 13 0 0
BITMAP
2000
3000
0800
0000
1E00
3300
6300
2200
1800
6000
C000
E180
3F00
ENDCHAR
STARTCHAR Eacute
ENCODING 201
SWIDTH 686 0
DWIDTH 8 0
BBX 9 13 0 0
BITMAP
0100
0300
0400
0000
1E00
3300
6300
2200
1800
6000
C000
E180
3F00
ENDCHAR
STARTCHAR Ecircumflex
ENCODING 202
SWIDTH 686 0
DWIDTH 8 0
BBX 9 13 0 0
BITMAP
0400
0A00
1A00
0000
1E00
3300
6300
2200
1800
6000
C000
E180
3F00
ENDCHAR
STARTCHAR Edieresis
ENCODING 203
SWIDTH 686 0
DWIDTH 8 0
BBX 9 11 0 0
BITMAP
1A00
0000
1E00
3300
6300
2200
1800
6000
C000
E180
3F00
ENDCHAR
STARTCHAR Igrave
ENCODING 204
SWIDTH 495 0
DWIDTH 5 0
BBX 6 13 0 0
BITMAP
40
60
10
00
7C
10
10
30
30
30
20
20
F8
ENDCHAR
STARTCHAR Iacute
ENCODING 205
SWIDTH 495 0
DWIDTH 5 0
BBX 7 13 0 0
BITMAP
04
0E
18
00
7C
10
10
30
30
30
20
20
F8
ENDCHAR
STARTCHAR Icircumflex
ENCODING 206
SWIDTH 495 0
DWIDTH 5 0
BBX 6 13 0 0
BITMAP
18
38
2C
00
7C
10
10
30
30
30
20
20
F8
ENDCHAR
STARTCHAR Idieresis
ENCODING 207
SWIDTH 495 0
DWIDTH 5 0
BBX 6 11 0 0
BITMAP
3C
00
7C
10
10
30
30
30
20
20
F8
ENDCHAR
STARTCHAR Eth
ENCODING 208
SWIDTH 821 0
DWIDTH 9 0
BBX 9 9 0 0
BITMAP
1E00
3300
3180
2180
FD80
6180
6300
6600
7C00
ENDCHAR
STARTCHAR Ntilde
ENCODING 209
SWIDTH 884 0
DWIDTH 10 0
BBX 11 12 0 0
BITMAP
0C80
0B00
0000
7380
D580
9980
3180
3180
3100
3100
2120
21C0
ENDCHAR
STARTCHAR Ograve
ENCODING 210
SWIDTH 816 0
DWIDTH 9 0
BBX 8 13 1 0
BITMAP
20
70
18
00
3C
66
C3
C3
83
83
C2
C4
78
ENDCHAR
STARTCHAR Oacute
ENCODING 211
SWIDTH 816 0
DWIDTH 9 0
BBX 8 13 1 0
BITMAP
02
06
0C
00
3C
66
C3
C3
83
83
C2
C4
78
ENDCHAR
STARTCHAR Ocircumflex
ENCODING 212
SWIDTH 816 0
DWIDTH 9 0
BBX 8 13 1 0
BITMAP
0C
14
34
00
3C
66
C3
C3
83
83
C2
C4
78
ENDCHAR
STARTCHAR Otilde
ENCODING 213
SWIDTH 816 0
DWIDTH 9 0
BBX 8 12 1 0
BITMAP
1A
2C
00
3C
66
C3
C3
83
83
C2
C4
78
ENDCHAR
STARTCHAR Odieresis
ENCODING 214
SWIDTH 816 0
DWIDTH 9 0
BBX 8 11 1 0
BITMAP
14
00
3C
66
C3
C3
83
83
C2
C4
78
ENDCHAR
STARTCHAR multiply
ENCODING 215
SWIDTH 700 0
DWIDTH 8 0
BBX 6 5 1 1
BITMAP
4C
78
30
78
C8
ENDCHAR
STARTCHAR Oslash
ENCODING 216
SWIDTH 816 0
DWIDTH 9 0
BBX 8 11 1 -1
BITMAP
04
3C
6E
CB
DB
93
93
D2
F4
78
20
ENDCHAR
STARTCHAR Ugrave
ENCODING 217
SWIDTH 890 0
DWIDTH 10 0
BBX 11 13 0 0
BITMAP
1000
1800
0400
0000
7080
D080
9180
3180
3180
3300
2300
35A0
39C0
ENDCHAR
STARTCHAR Uacute
ENCODING 218
SWIDTH 890 0
DWIDTH 10 0
BBX 11 13 0 0
BITMAP
0080
0180
0200
0000
7080
D080
9180
3180
3180
3300
2300
35A0
39C0
ENDCHAR
STARTCHAR Ucircumflex
ENCODING 219
SWIDTH 890 0
DWIDTH 10 0
BBX 11 13 0 0
BITMAP
0600
0700
0900
0000
7080
D080
9180
3180
3180
3300
2300
35A0
39C0
ENDCHAR
STARTCHAR Udieresis
ENCODING 220
SWIDTH 890 0
DWIDTH 10 0
BBX 11 11 0 0
BITMAP
0F00
0000
7080
D080
9180
3180
3180
3300
2300
35A0
39C0
ENDCHAR
STARTCHAR Yacute
ENCODING 221
SWIDTH 851 0
DWIDTH 9 0
BBX 11 16 0 -3
BITMAP
0080
0180
0200
0000
7080
D080
9180
1180
3180
3380
3300
1FE0
0D00
1300
1200
1E00
ENDCHAR
STARTCHAR Thorn
ENCODING 222
SWIDTH 776 0
DWIDTH 9 0
BBX 9 11 0 -1
BITMAP
0C00
0800
0E00
3B00
5980
5900
5B00
FC00
D000
5000
7000
ENDCHAR
STARTCHAR germandbls
ENCODING 223
SWIDTH 596 0
DWIDTH 7 0
BBX 8 11 0 -2
BITMAP
1C
24
64
48
50
58
5F
74
DC
C0
C0
ENDCHAR
STARTCHAR agrave
ENCODING 224
SWIDTH 470 0
DWIDTH 5 0
BBX 7 10 0 0
BITMAP
20
60
20
10
00
38
78
D0
D6
6C
ENDCHAR
STARTCHAR aacute
ENCODING 225
SWIDTH 470 0
DWIDTH 5 0
BBX 7 9 0 0
BITMAP
08
08
10
00
38
78
D0
D6
6C
ENDCHAR
STARTCHAR acircumflex
ENCODING 226
SWIDTH 470 0
DWIDTH 5 0
BBX 7 10 0 0
BITMAP
10
18
28
28
00
38
78
D0
D6
6C
ENDCHAR
STARTCHAR atilde
ENCODING 227
SWIDTH 470 0
DWIDTH 5 0
BBX 7 8 0 0
BITMAP
34
58
00
38
78
D0
D6
6C
ENDCHAR
STARTCHAR adieresis
ENCODING 228
SWIDTH 470 0
DWIDTH 5 0
BBX 7 7 0 0
BITMAP
28
00
38
78
D0
D6
6C
ENDCHAR
STARTCHAR aring
ENCODING 229
SWIDTH 470 0
DWIDTH 5 0
BBX 7 9 0 0
BITMAP
18
28
38
00
38
78
D0
D6
6C
ENDCHAR
STARTCHAR ae
ENCODING 230
SWIDTH 653 0
DWIDTH 7 0
BBX 9 5 0 0
BITMAP
3E00
6A00
DE00
D980
6E00
ENDCHAR
STARTCHAR ccedilla
ENCODING 231
SWIDTH 368 0
DWIDTH 4 0
BBX 5 8 0 -3
BITMAP
70
50
C0
C8
70
10
10
60
ENDCHAR
STARTCHAR egrave
ENCODING 232
SWIDTH 393 0
DWIDTH 4 0
BBX 6 10 0 0
BITMAP
40
40
20
20
00
70
50
F0
CC
78
ENDCHAR
STARTCHAR eacute
ENCODING 233
SWIDTH 393 0
DWIDTH 4 0
BBX 6 9 0 0
BITMAP
08
10
10
00
70
50
F0
CC
78
ENDCHAR
STARTCHAR ecircumflex
ENCODING 234
SWIDTH 393 0
DWIDTH 4 0
BBX 6 10 0 0
BITMAP
10
30
38
48
00
70
50
F0
CC
78
ENDCHAR
STARTCHAR edieresis
ENCODING 235
SWIDTH 393 0
DWIDTH 4 0
BBX 6 7 0 0
BITMAP
78
00
70
50
F0
CC
78
ENDCHAR
STARTCHAR igrave
ENCODING 236
SWIDTH 246 0
DWIDTH 3 0
BBX 4 10 0 0
BITMAP
80
80
40
40
00
40
40
40
50
60
ENDCHAR
STARTCHAR iacute
ENCODING 237
SWIDTH 246 0
DWIDTH 3 0
BBX 3 9 1 0
BITMAP
60
40
80
00
80
80
80
A0
C0
ENDCHAR
STARTCHAR icircumflex
ENCODING 238
SWIDTH 246 0
DWIDTH 3 0
BBX 4 10 0 0
BITMAP
20
60
60
B0
00
40
40
40
50
60
ENDCHAR
STARTCHAR idieresis
ENCODING 239
SWIDTH 246 0
DWIDTH 3 0
BBX 4 7 0 0
BITMAP
F0
00
40
40
40
50
60
ENDCHAR
STARTCHAR eth
ENCODING 240
SWIDTH 451 0
DWIDTH 5 0
BBX 6 10 0 0
BITMAP
20
3C
38
78
08
78
48
D8
D8
70
ENDCHAR
STARTCHAR ntilde
ENCODING 241
SWIDTH 496 0
DWIDTH 5 0
BBX 6 8 1 0
BITMAP
68
B0
00
B0
F0
F0
B4
B8
ENDCHAR
STARTCHAR ograve
ENCODING 242
SWIDTH 451 0
DWIDTH 5 0
BBX 6 10 0 0
BITMAP
40
40
20
20
00
70
58
DC
D8
70
ENDCHAR
STARTCHAR oacute
ENCODING 243
SWIDTH 451 0
DWIDTH 5 0
BBX 6 9 0 0
BITMAP
08
10
10
00
70
58
DC
D8
70
ENDCHAR
STARTCHAR ocircumflex
ENCODING 244
SWIDTH 451 0
DWIDTH 5 0
BBX 6 10 0 0
BITMAP
10
30
38
48
00
70
58
DC
D8
70
ENDCHAR
STARTCHAR otilde
ENCODING 245
SWIDTH 451 0
DWIDTH 5 0
BBX 6 8 0 0
BITMAP
68
58
00
70
58
DC
D8
70
ENDCHAR
STARTCHAR odieresis
ENCODING 246
SWIDTH 451 0
DWIDTH 5 0
BBX 6 7 0 0
BITMAP
78
00
70
58
DC
D8
70
ENDCHAR
STARTCHAR divide
ENCODING 247
SWIDTH 700 0
DWIDTH 8 0
BBX 6 6 1 0
BITMAP
30
00
FC
00
00
20
ENDCHAR
STARTCHAR oslash
ENCODING 248
SWIDTH 459 0
DWIDTH 5 0
BBX 7 8 0 -1
BITMAP
10
10
70
78
EE
F8
70
20
ENDCHAR
STARTCHAR ugrave
ENCODING 249
SWIDTH 462 0
DWIDTH 5 0
BBX 6 10 1 0
BITMAP
80
C0
40
20
00
90
B0
A0
EC
F0
ENDCHAR
STARTCHAR uacute
ENCODING 250
SWIDTH 462 0
DWIDTH 5 0
BBX 6 9 1 0
BITMAP
10
30
20
00
90
B0
A0
EC
F0
ENDCHAR
STARTCHAR ucircumflex
ENCODING 251
SWIDTH 462 0
DWIDTH 5 0
BBX 6 10 1 0
BITMAP
20
30
50
D0
00
90
B0
A0
EC
F0
ENDCHAR
STARTCHAR udieresis
ENCODING 252
SWIDTH 462 0
DWIDTH 5 0
BBX 6 7 1 0
BITMAP
D0
00
90
B0
A0
EC
F0
ENDCHAR
STARTCHAR yacute
ENCODING 253
SWIDTH 479 0
DWIDTH 5 0
BBX 6 14 0 -5
BITMAP
08
18
10
00
48
58
50
74
78
30
50
A0
A0
C0
ENDCHAR
STARTCHAR thorn
ENCODING 254
SWIDTH 508 0
DWIDTH 6 0
BBX 7 12 0 -3
BITMAP
20
60
60
40
58
68
4A
DA
FC
C0
C0
C0
ENDCHAR
STARTCHAR ydieresis
ENCODING 255
SWIDTH 479 0
DWIDTH 5 0
BBX 6 12 0 -5
BITMAP
68
00
48
58
50
74
78
30
50
A0
A0
C0
ENDCHAR
STARTCHAR Amacron
ENCODING 256
SWIDTH 786 0
DWIDTH 9 0
BBX 9 11 1 0
BITMAP
0E00
0000
1F00
3100
4600
C600
8600
8400
8C00
DC80
7700
ENDCHAR
STARTCHAR amacron
ENCODING 257
SWIDTH 470 0
DWIDTH 5 0
BBX 7 7 0 0
BITMAP
38
00
38
78
D0
D6
6C
ENDCHAR
STARTCHAR Abreve
ENCODING 258
SWIDTH 786 0
DWIDTH 9 0
BBX 9 12 1 0
BITMAP
1900
0F00
0000
1F00
3100
4600
C600
8600
8400
8C00
DC80
7700
ENDCHAR
STARTCHAR abreve
ENCODING 259
SWIDTH 470 0
DWIDTH 5 0
BBX 7 8 0 0
BITMAP
6C
38
00
38
78
D0
D6
6C
ENDCHAR
STARTCHAR Aogonek
ENCODING 260
SWIDTH 786 0
DWIDTH 9 0
BBX 9 12 1 -3
BITMAP
1F00
3000
4600
C600
8600
8400
8C00
CC80
7700
0600
0400
0300
ENDCHAR
STARTCHAR aogonek
ENCODING 261
SWIDTH 470 0
DWIDTH 5 0
BBX 7 8 0 -3
BITMAP
38
78
D0
D6
6C
10
10
1C
ENDCHAR
STARTCHAR Cacute
ENCODING 262
SWIDTH 686 0
DWIDTH 8 0
BBX 8 13 1 0
BITMAP
02
06
0C
00
3C
66
C6
C4
80
80
C0
E3
3E
ENDCHAR
STARTCHAR cacute
ENCODING 263
SWIDTH 368 0
DWIDTH 4 0
BBX 5 9 0 0
BITMAP
08
10
30
00
70
50
C0
C8
70
ENDCHAR
STARTCHAR Ccircumflex
ENCODING 264
SWIDTH 686 0
DWIDTH 8 0
BBX 8 13 1 0
BITMAP
0C
14
34
00
3C
66
C6
C4
80
80
C0
E3
3E
ENDCHAR
STARTCHAR ccircumflex
ENCODING 265
SWIDTH 368 0
DWIDTH 4 0
BBX 5 10 0 0
BITMAP
10
30
38
48
00
70
50
C0
C8
70
ENDCHAR
STARTCHAR Cdotaccent
ENCODING 266
SWIDTH 686 0
DWIDTH 8 0
BBX 8 11 1 0
BITMAP
18
00
3C
66
C6
C4
80
80
C0
E3
3E
ENDCHAR
STARTCHAR cdotaccent
ENCODING 267
SWIDTH 368 0
DWIDTH 4 0
BBX 5 7 0 0
BITMAP
30
00
70
50
C0
C8
70
ENDCHAR
STARTCHAR Ccaron
ENCODING 268
SWIDTH 686 0
DWIDTH 8 0
BBX 8 13 1 0
BITMAP
12
14
08
00
3C
66
C6
C4
80
80
C0
E3
3E
ENDCHAR
STARTCHAR ccaron
ENCODING 269
SWIDTH 368 0
DWIDTH 4 0
BBX 5 10 0 0
BITMAP
28
68
30
30
00
70
50
C0
C8
70
ENDCHAR
STARTCHAR Dcaron
ENCODING 270
SWIDTH 836 0
DWIDTH 9 0
BBX 9 13 0 0
BITMAP
1200
0E00
0C00
0000
3E00
E300
3180
3180
2180
2180
6100
6700
7C00
ENDCHAR
STARTCHAR dcaron
ENCODING 271
SWIDTH 470 0
DWIDTH 5 0
BBX 7 11 0 0
BITMAP
02
02
0E
08
08
08
38
78
D0
D6
6C
ENDCHAR
STARTCHAR Dcroat
ENCODING 272
SWIDTH 821 0
DWIDTH 9 0
BBX 9 9 0 0
BITMAP
1E00
3300
3180
2180
FD80
6180
6300
6600
7C00
ENDCHAR
STARTCHAR dcroat
ENCODING 273
SWIDTH 470 0
DWIDTH 5 0
BBX 7 9 0 0
BITMAP
0C
0C
3C
08
38
78
D0
D6
6C
ENDCHAR
STARTCHAR Emacron
ENCODING 274
SWIDTH 686 0
DWIDTH 8 0
BBX 9 11 0 0
BITMAP
1E00
0000
1E00
3300
6300
2200
1800
6000
C000
E180
3F00
ENDCHAR
STARTCHAR emacron
ENCODING 275
SWIDTH 393 0
DWIDTH 4 0
BBX 6 7 0 0
BITMAP
78
00
70
50
F0
CC
78
ENDCHAR
STARTCHAR Ebreve
ENCODING 276
SWIDTH 686 0
DWIDTH 8 0
BBX 9 12 0 0
BITMAP
1300
1E00
0000
1E00
3300
6300
2200
1800
6000
C000
E180
3F00
ENDCHAR
STARTCHAR ebreve
ENCODING 277
SWIDTH 393 0
DWIDTH 4 0
BBX 6 8 0 0
BITMAP
48
78
00
70
50
F0
CC
78
ENDCHAR
STARTCHAR Edotaccent
ENCODING 278
SWIDTH 686 0
DWIDTH 8 0
BBX 9 11 0 0
BITMAP
0C00
0000
1E00
3300
6300
2200
1800
6000
C000
E180
3F00
ENDCHAR
STARTCHAR edotaccent
ENCODING 279
SWIDTH 393 0
DWIDTH 4 0
BBX 6 7 0 0
BITMAP
30
00
70
50
F0
CC
78
ENDCHAR
STARTCHAR Eogonek
ENCODING 280
SWIDTH 686 0
DWIDTH 8 0
BBX 9 12 0 -3
BITMAP
1E00
3300
6300
2200
1800
6000
C000
E180
3F00
0800
0800
0E00
ENDCHAR
STARTCHAR eogonek
ENCODING 281
SWIDTH 393 0
DWIDTH 4 0
BBX 6 8 0 -3
BITMAP
70
50
D0
E4
78
20
20
38
ENDCHAR
STARTCHAR Ecaron
ENCODING 282
SWIDTH 686 0
DWIDTH 8 0
BBX 9 13 0 0
BITMAP
0A00
0A00
0C00
0000
1E00
3300
6300
2200
1800
6000
C000
E180
3F00
ENDCHAR
STARTCHAR ecaron
ENCODING 283
SWIDTH 393 0
DWIDTH 4 0
BBX 6 10 0 0
BITMAP
28
28
30
30
00
70
50
F0
CC
78
ENDCHAR
STARTCHAR Gcircumflex
ENCODING 284
SWIDTH 811 0
DWIDTH 9 0
BBX 9 18 1 -5
BITMAP
0C00
1C00
1400
0000
3C00
6600
C600
C200
8000
8E00
C200
E280
3F00
0600
0C00
1400
1C00
1800
ENDCHAR
STARTCHAR gcircumflex
ENCODING 285
SWIDTH 479 0
DWIDTH 5 0
BBX 6 15 0 -5
BITMAP
10
18
28
28
00
38
78
D8
D4
78
30
50
A0
A0
C0
ENDCHAR
STARTCHAR Gbreve
ENCODING 286
SWIDTH 811 0
DWIDTH 9 0
BBX 9 17 1 -5
BITMAP
3200
1C00
0000
3C00
6600
C600
C200
8000
8E00
C200
E280
3F00
0600
0C00
1400
1C00
1800
ENDCHAR
STARTCHAR gbreve
ENCODING 287
SWIDTH 479 0
DWIDTH 5 0
BBX 6 13 0 -5
BITMAP
6C
38
00
38
78
D8
D4
78
30
50
A0
A0
C0
ENDCHAR
STARTCHAR Gdotaccent
ENCODING 288
SWIDTH 811 0
DWIDTH 9 0
BBX 9 16 1 -5
BITMAP
0C00
0000
3C00
6600
C600
C200
8000
8E00
C200
E280
3F00
0600
0C00
1400
1C00
1800
ENDCHAR
STARTCHAR gdotaccent
ENCODING 289
SWIDTH 479 0
DWIDTH 5 0
BBX 6 12 0 -5
BITMAP
30
00
38
78
D8
D4
78
30
50
A0
A0
C0
ENDCHAR
STARTCHAR uni0122
ENCODING 290
SWIDTH 811 0
DWIDTH 9 0
BBX 9 14 1 -5
BITMAP
3C00
6600
C600
C200
8000
8E00
C200
E280
3F00
0600
6C00
5400
1C00
1800
ENDCHAR
STARTCHAR uni0123
ENCODING 291
SWIDTH 479 0
DWIDTH 5 0
BBX 6 14 0 -5
BITMAP
10
10
10
00
38
78
D8
D4
78
30
50
A0
A0
C0
ENDCHAR
STARTCHAR Hcircumflex
ENCODING 292
SWIDTH 873 0
DWIDTH 10 0
BBX 11 13 0 0
BITMAP
0600
0700
0900
00C0
71C0
9140
1140
1380
7F00
3300
3320
2320
21C0
ENDCHAR
STARTCHAR hcircumflex
ENCODING 293
SWIDTH 502 0
DWIDTH 6 0
BBX 6 14 1 0
BITMAP
30
70
58
00
60
50
D0
A0
A0
F0
F0
D0
B4
B8
ENDCHAR
STARTCHAR Hbar
ENCODING 294
SWIDTH 856 0
DWIDTH 9 0
BBX 9 9 1 0
BITMAP
6300
FF80
4300
4200
FF00
C200
C600
C600
C600
ENDCHAR
STARTCHAR hbar
ENCODING 295
SWIDTH 502 0
DWIDTH 6 0
BBX 6 9 1 0
BITMAP
40
40
F0
C0
B0
F0
D0
B4
B8
ENDCHAR
STARTCHAR Itilde
ENCODING 296
SWIDTH 495 0
DWIDTH 5 0
BBX 6 12 0 0
BITMAP
34
2C
00
7C
10
10
30
30
30
20
20
F8
ENDCHAR
STARTCHAR itilde
ENCODING 297
SWIDTH 246 0
DWIDTH 3 0
BBX 4 8 0 0
BITMAP
D0
B0
00
40
40
40
50
60
ENDCHAR
STARTCHAR Imacron
ENCODING 298
SWIDTH 495 0
DWIDTH 5 0
BBX 6 11 0 0
BITMAP
3C
00
7C
10
10
30
30
30
20
20
F8
ENDCHAR
STARTCHAR imacron
ENCODING 299
SWIDTH 246 0
DWIDTH 3 0
BBX 4 7 0 0
BITMAP
F0
00
40
40
40
50
60
ENDCHAR
STARTCHAR Ibreve
ENCODING 300
SWIDTH 495 0
DWIDTH 5 0
BBX 6 12 0 0
BITMAP
24
3C
00
7C
10
10
30
30
30
20
20
F8
ENDCHAR
STARTCHAR ibreve
ENCODING 301
SWIDTH 246 0
DWIDTH 3 0
BBX 4 8 0 0
BITMAP
90
F0
00
40
40
40
50
60
ENDCHAR
STARTCHAR Iogonek
ENCODING 302
SWIDTH 495 0
DWIDTH 5 0
BBX 6 12 0 -3
BITMAP
7C
10
10
30
30
30
20
20
F8
40
40
70
ENDCHAR
STARTCHAR iogonek
ENCODING 303
SWIDTH 246 0
DWIDTH 3 0
BBX 4 10 0 -3
BITMAP
60
00
40
40
40
50
60
40
80
60
ENDCHAR
STARTCHAR Idotaccent
ENCODING 304
SWIDTH 495 0
DWIDTH 5 0
BBX 6 11 0 0
BITMAP
18
00
7C
10
10
30
30
30
20
20
F8
ENDCHAR
STARTCHAR dotlessi
ENCODING 305
SWIDTH 246 0
DWIDTH 3 0
BBX 3 5 1 0
BITMAP
80
80
80
A0
C0
ENDCHAR
STARTCHAR Jcircumflex
ENCODING 308
SWIDTH 743 0
DWIDTH 8 0
BBX 7 14 1 -1
BITMAP
18
1C
24
00
7E
C6
86
86
0C
3C
6C
4C
48
70
ENDCHAR
STARTCHAR jcircumflex
ENCODING 309
SWIDTH 254 0
DWIDTH 3 0
BBX 7 15 -3 -5
BITMAP
04
0C
0C
16
00
08
08
08
0E
1C
18
30
50
F0
60
ENDCHAR
STARTCHAR uni0136
ENCODING 310
SWIDTH 937 0
DWIDTH 10 0
BBX 12 12 0 -3
BITMAP
3E60
4C40
4CC0
4D80
1E00
0B00
8910
D9B0
70E0
0000
0400
0400
ENDCHAR
STARTCHAR uni0137
ENCODING 311
SWIDTH 525 0
DWIDTH 6 0
BBX 6 13 1 -3
BITMAP
60
50
D0
A0
A0
F0
D8
D4
A4
B8
40
40
40
ENDCHAR
STARTCHAR kgreenlandic
ENCODING 312
SWIDTH 465 0
DWIDTH 5 0
BBX 6 5 1 0
BITMAP
B0
F8
C0
EC
B8
ENDCHAR
STARTCHAR Lacute
ENCODING 313
SWIDTH 673 0
DWIDTH 7 0
BBX 9 13 0 0
BITMAP
0100
0380
0600
0000
0E00
3300
3100
2100
2000
2000
2000
F980
CF00
ENDCHAR
STARTCHAR lacute
ENCODING 314
SWIDTH 326 0
DWIDTH 4 0
BBX 6 14 1 0
BITMAP
08
1C
30
00
60
50
D0
A0
A0
A0
C0
80
90
E0
ENDCHAR
STARTCHAR uni013B
ENCODING 315
SWIDTH 673 0
DWIDTH 7 0
BBX 9 12 0 -3
BITMAP
0E00
3300
3100
2100
2000
2000
2000
F980
CF00
0000
1000
1000
ENDCHAR
STARTCHAR uni013C
ENCODING 316
SWIDTH 326 0
DWIDTH 4 0
BBX 4 13 1 -3
BITMAP
60
50
D0
A0
A0
A0
C0
80
90
E0
C0
80
80
ENDCHAR
STARTCHAR Lcaron
ENCODING 317
SWIDTH 673 0
DWIDTH 7 0
BBX 10 10 0 0
BITMAP
0040
0EC0
3380
3100
2100
2000
2000
2000
F980
CF00
ENDCHAR
STARTCHAR lcaron
ENCODING 318
SWIDTH 237 0
DWIDTH 3 0
BBX 5 11 0 0
BITMAP
08
18
30
60
60
40
40
40
40
D0
60
ENDCHAR
STARTCHAR Ldot
ENCODING 319
SWIDTH 673 0
DWIDTH 7 0
BBX 9 9 0 0
BITMAP
0E00
3300
3100
2100
2C00
2000
2000
F980
CF00
ENDCHAR
STARTCHAR ldot
ENCODING 320
SWIDTH 363 0
DWIDTH 4 0
BBX 4 10 1 0
BITMAP
40
40
C0
C0
A0
A0
80
80
90
E0
ENDCHAR
STARTCHAR Lslash
ENCODING 321
SWIDTH 673 0
DWIDTH 7 0
BBX 9 11 0 0
BITMAP
0F00
1000
0E00
1300
3100
2100
2000
2000
2000
F980
CF00
ENDCHAR
STARTCHAR lslash
ENCODING 322
SWIDTH 326 0
DWIDTH 4 0
BBX 6 11 1 0
BITMAP
7C
C0
60
50
90
A0
A0
C0
80
90
E0
ENDCHAR
STARTCHAR Nacute
ENCODING 323
SWIDTH 884 0
DWIDTH 10 0
BBX 11 13 0 0
BITMAP
0080
0180
0200
0000
7380
D580
9980
3180
3180
3100
3100
2120
21C0
ENDCHAR
STARTCHAR nacute
ENCODING 324
SWIDTH 496 0
DWIDTH 5 0
BBX 6 9 1 0
BITMAP
18
10
20
00
B0
F0
F0
B4
B8
ENDCHAR
STARTCHAR uni0145
ENCODING 325
SWIDTH 884 0
DWIDTH 10 0
BBX 11 12 0 -3
BITMAP
7380
D580
9980
3180
3180
3100
3100
2120
21C0
0000
0800
0800
ENDCHAR
STARTCHAR uni0146
ENCODING 326
SWIDTH 496 0
DWIDTH 5 0
BBX 6 8 1 -3
BITMAP
B0
F0
F0
B4
B8
40
40
40
ENDCHAR
STARTCHAR Ncaron
ENCODING 327
SWIDTH 884 0
DWIDTH 10 0
BBX 11 13 0 0
BITMAP
0500
0500
0600
0000
7380
D580
9980
3180
3180
3100
3100
2120
21C0
ENDCHAR
STARTCHAR ncaron
ENCODING 328
SWIDTH 496 0
DWIDTH 5 0
BBX 6 10 1 0
BITMAP
48
58
70
20
00
B0
F0
F0
B4
B8
ENDCHAR
STARTCHAR napostrophe
ENCODING 329
SWIDTH 496 0
DWIDTH 5 0
BBX 7 9 0 0
BITMAP
80
80
80
00
58
78
78
5A
5C
ENDCHAR
STARTCHAR Eng
ENCODING 330
SWIDTH 884 0
DWIDTH 10 0
BBX 11 13 0 -4
BITMAP
7380
D580
9980
3180
3180
3100
3100
2320
23C0
0200
0200
2600
3C00
ENDCHAR
STARTCHAR eng
ENCODING 331
SWIDTH 495 0
DWIDTH 5 0
BBX 7 8 0 -3
BITMAP
58
78
78
5E
5C
10
B0
60
ENDCHAR
STARTCHAR Omacron
ENCODING 332
SWIDTH 816 0
DWIDTH 9 0
BBX 8 11 1 0
BITMAP
1C
00
3C
66
C3
C3
83
83
C2
C4
78
ENDCHAR
STARTCHAR omacron
ENCODING 333
SWIDTH 451 0
DWIDTH 5 0
BBX 6 7 0 0
BITMAP
78
00
70
58
DC
D8
70
ENDCHAR
STARTCHAR Obreve
ENCODING 334
SWIDTH 816 0
DWIDTH 9 0
BBX 8 12 1 0
BITMAP
22
1C
00
3C
66
C3
C3
83
83
C2
C4
78
ENDCHAR
STARTCHAR obreve
ENCODING 335
SWIDTH 451 0
DWIDTH 5 0
BBX 6 8 0 0
BITMAP
48
78
00
70
58
DC
D8
70
ENDCHAR
STARTCHAR Ohungarumlaut
ENCODING 336
SWIDTH 816 0
DWIDTH 9 0
BBX 8 13 1 0
BITMAP
0A
1E
14
00
3C
66
C3
C3
83
83
C2
C4
78
ENDCHAR
STARTCHAR ohungarumlaut
ENCODING 337
SWIDTH 451 0
DWIDTH 5 0
BBX 6 10 0 0
BITMAP
28
3C
28
50
00
70
58
DC
D8
70
ENDCHAR
STARTCHAR OE
ENCODING 338
SWIDTH 1124 0
DWIDTH 12 0
BBX 13 9 1 0
BITMAP
3DF0
6780
C300
C300
83E0
8300
C300
C718
79F0
ENDCHAR
STARTCHAR oe
ENCODING 339
SWIDTH 668 0
DWIDTH 7 0
BBX 9 5 0 0
BITMAP
7600
5A00
DE00
D980
7F00
ENDCHAR
STARTCHAR Racute
ENCODING 340
SWIDTH 880 0
DWIDTH 10 0
BBX 10 13 1 0
BITMAP
0200
0700
0C00
0000
3E00
6300
D300
9200
BC00
B400
B640
B240
6380
ENDCHAR
STARTCHAR racute
ENCODING 341
SWIDTH 455 0
DWIDTH 5 0
BBX 6 9 1 0
BITMAP
10
30
20
00
B0
D4
D8
80
80
ENDCHAR
STARTCHAR uni0156
ENCODING 342
SWIDTH 880 0
DWIDTH 10 0
BBX 10 12 1 -3
BITMAP
3E00
6300
D300
9200
BC00
B400
B640
B240
6380
0000
0800
0800
ENDCHAR
STARTCHAR uni0157
ENCODING 343
SWIDTH 455 0
DWIDTH 5 0
BBX 7 8 0 -3
BITMAP
58
6A
6C
40
40
40
C0
80
ENDCHAR
STARTCHAR Rcaron
ENCODING 344
SWIDTH 880 0
DWIDTH 10 0
BBX 10 13 1 0
BITMAP
1200
1E00
0C00
0000
3E00
6300
D300
9200
BC00
B400
B640
B240
6380
ENDCHAR
STARTCHAR rcaron
ENCODING 345
SWIDTH 455 0
DWIDTH 5 0
BBX 6 10 1 0
BITMAP
48
50
50
60
00
B0
D4
D8
80
80
ENDCHAR
STARTCHAR Sacute
ENCODING 346
SWIDTH 693 0
DWIDTH 8 0
BBX 8 13 0 0
BITMAP
02
07
0C
00
3E
63
63
60
3C
06
C2
C6
7C
ENDCHAR
STARTCHAR sacute
ENCODING 347
SWIDTH 427 0
DWIDTH 5 0
BBX 6 9 0 0
BITMAP
08
10
10
00
20
20
74
BC
78
ENDCHAR
STARTCHAR Scircumflex
ENCODING 348
SWIDTH 693 0
DWIDTH 8 0
BBX 8 13 0 0
BITMAP
0C
1C
16
00
3E
63
63
60
3C
06
C2
C6
7C
ENDCHAR
STARTCHAR scircumflex
ENCODING 349
SWIDTH 427 0
DWIDTH 5 0
BBX 6 10 0 0
BITMAP
10
30
38
48
00
20
20
74
BC
78
ENDCHAR
STARTCHAR Scedilla
ENCODING 350
SWIDTH 693 0
DWIDTH 8 0
BBX 8 12 0 -3
BITMAP
3E
63
63
60
3C
0E
C2
C6
7C
08
08
30
ENDCHAR
STARTCHAR scedilla
ENCODING 351
SWIDTH 427 0
DWIDTH 5 0
BBX 6 8 0 -3
BITMAP
20
20
70
D4
F8
10
10
60
ENDCHAR
STARTCHAR Scaron
ENCODING 352
SWIDTH 693 0
DWIDTH 8 0
BBX 8 13 0 0
BITMAP
12
1E
0C
00
3E
63
63
60
3C
06
C2
C6
7C
ENDCHAR
STARTCHAR scaron
ENCODING 353
SWIDTH 427 0
DWIDTH 5 0
BBX 6 10 0 0
BITMAP
28
28
30
30
00
20
20
74
BC
78
ENDCHAR
STARTCHAR uni0162
ENCODING 354
SWIDTH 697 0
DWIDTH 8 0
BBX 10 12 0 -3
BITMAP
3FC0
4C00
CC00
4C00
0800
0800
1800
1800
1800
0800
0800
3800
ENDCHAR
STARTCHAR uni0163
ENCODING 355
SWIDTH 393 0
DWIDTH 4 0
BBX 6 12 0 -3
BITMAP
18
28
28
70
F8
40
40
64
38
70
10
60
ENDCHAR
STARTCHAR Tcaron
ENCODING 356
SWIDTH 697 0
DWIDTH 8 0
BBX 10 13 0 0
BITMAP
0900
0A00
0600
0000
3FC0
4C00
CC00
4C00
0800
0800
0800
1800
1800
ENDCHAR
STARTCHAR tcaron
ENCODING 357
SWIDTH 343 0
DWIDTH 4 0
BBX 5 11 0 0
BITMAP
08
08
28
20
60
60
F0
40
40
48
70
ENDCHAR
STARTCHAR Tbar
ENCODING 358
SWIDTH 697 0
DWIDTH 8 0
BBX 10 9 0 0
BITMAP
3FC0
4C00
CC00
4C00
3E00
0800
0800
1800
1800
ENDCHAR
STARTCHAR tbar
ENCODING 359
SWIDTH 343 0
DWIDTH 4 0
BBX 5 9 0 0
BITMAP
20
20
60
60
F0
F0
48
48
70
ENDCHAR
STARTCHAR Utilde
ENCODING 360
SWIDTH 890 0
DWIDTH 10 0
BBX 11 12 0 0
BITMAP
0D80
0B00
0000
7080
D080
9180
3180
3180
3300
2300
35A0
39C0
ENDCHAR
STARTCHAR utilde
ENCODING 361
SWIDTH 462 0
DWIDTH 5 0
BBX 6 8 1 0
BITMAP
48
B0
00
90
B0
A0
EC
F0
ENDCHAR
STARTCHAR Umacron
ENCODING 362
SWIDTH 890 0
DWIDTH 10 0
BBX 11 11 0 0
BITMAP
0F00
0000
7080
D080
9180
3180
3180
3300
2300
35A0
39C0
ENDCHAR
STARTCHAR umacron
ENCODING 363
SWIDTH 462 0
DWIDTH 5 0
BBX 6 7 1 0
BITMAP
F0
00
90
B0
A0
EC
F0
ENDCHAR
STARTCHAR Ubreve
ENCODING 364
SWIDTH 890 0
DWIDTH 10 0
BBX 11 12 0 0
BITMAP
0900
0F00
0000
7080
D080
9180
3180
3180
3300
2300
35A0
39C0
ENDCHAR
STARTCHAR ubreve
ENCODING 365
SWIDTH 462 0
DWIDTH 5 0
BBX 6 8 1 0
BITMAP
D8
70
00
90
B0
A0
EC
F0
ENDCHAR
STARTCHAR Uring
ENCODING 366
SWIDTH 890 0
DWIDTH 10 0
BBX 11 13 0 0
BITMAP
0600
0500
0600
0000
7080
D080
9180
3180
3180
3300
2300
35A0
39C0
ENDCHAR
STARTCHAR uring
ENCODING 367
SWIDTH 462 0
DWIDTH 5 0
BBX 6 9 1 0
BITMAP
70
50
70
00
90
B0
A0
EC
F0
ENDCHAR
STARTCHAR Uhungarumlaut
ENCODING 368
SWIDTH 890 0
DWIDTH 10 0
BBX 11 13 0 0
BITMAP
0500
0500
0500
0000
7080
D080
9180
3180
3180
3300
2300
35A0
39C0
ENDCHAR
STARTCHAR uhungarumlaut
ENCODING 369
SWIDTH 462 0
DWIDTH 5 0
BBX 6 10 1 0
BITMAP
28
78
50
50
00
90
B0
A0
EC
F0
ENDCHAR
STARTCHAR Uogonek
ENCODING 370
SWIDTH 890 0
DWIDTH 10 0
BBX 11 12 0 -3
BITMAP
7080
D080
9180
3180
3180
3300
2300
2520
39C0
0080
0080
00E0
ENDCHAR
STARTCHAR uogonek
ENCODING 371
SWIDTH 462 0
DWIDTH 5 0
BBX 6 8 1 -3
BITMAP
90
B0
A0
EC
F8
20
20
38
ENDCHAR
STARTCHAR Wcircumflex
ENCODING 372
SWIDTH 1217 0
DWIDTH 13 0
BBX 14 13 1 0
BITMAP
0300
0700
0580
0000
4230
4258
C658
C670
C63C
CE20
4A60
7BC0
7180
ENDCHAR
STARTCHAR wcircumflex
ENCODING 373
SWIDTH 700 0
DWIDTH 8 0
BBX 8 10 1 0
BITMAP
10
38
28
68
00
B6
B6
B7
D8
D8
ENDCHAR
STARTCHAR Ycircumflex
ENCODING 374
SWIDTH 851 0
DWIDTH 9 0
BBX 11 16 0 -3
BITMAP
0600
0700
0D00
0000
7080
D080
9180
1180
3180
3380
3300
1FE0
0D00
1300
1200
1E00
ENDCHAR
STARTCHAR ycircumflex
ENCODING 375
SWIDTH 479 0
DWIDTH 5 0
BBX 6 15 0 -5
BITMAP
10
18
28
68
00
48
58
50
74
78
30
50
A0
A0
C0
ENDCHAR
STARTCHAR Ydieresis
ENCODING 376
SWIDTH 851 0
DWIDTH 9 0
BBX 11 14 0 -3
BITMAP
0D00
0000
7080
D080
9180
1180
3180
3380
3300
1FE0
0D00
1300
1200
1E00
ENDCHAR
STARTCHAR Zacute
ENCODING 377
SWIDTH 721 0
DWIDTH 8 0
BBX 9 13 0 0
BITMAP
0100
0300
0400
0000
3F80
4300
4200
4600
0C00
0800
1800
F880
EF00
ENDCHAR
STARTCHAR zacute
ENCODING 378
SWIDTH 445 0
DWIDTH 5 0
BBX 5 9 1 0
BITMAP
10
30
20
00
F0
60
C8
88
F0
ENDCHAR
STARTCHAR Zdotaccent
ENCODING 379
SWIDTH 721 0
DWIDTH 8 0
BBX 9 11 0 0
BITMAP
0C00
0000
3F80
4300
4200
4600
0C00
0800
1800
F880
EF00
ENDCHAR
STARTCHAR zdotaccent
ENCODING 380
SWIDTH 445 0
DWIDTH 5 0
BBX 5 7 1 0
BITMAP
60
00
F0
60
C8
88
F0
ENDCHAR
STARTCHAR Zcaron
ENCODING 381
SWIDTH 721 0
DWIDTH 8 0
BBX 9 13 0 0
BITMAP
1A00
0A00
0C00
0000
3F80
4300
4200
4600
0C00
0800
1800
F880
EF00
ENDCHAR
STARTCHAR zcaron
ENCODING 382
SWIDTH 445 0
DWIDTH 5 0
BBX 5 10 1 0
BITMAP
50
50
70
60
00
F0
60
C8
88
F0
ENDCHAR
STARTCHAR uni018F
ENCODING 399
SWIDTH 792 0
DWIDTH 9 0
BBX 8 9 1 0
BITMAP
3C
C6
02
03
FE
82
86
CC
78
ENDCHAR
STARTCHAR florin
ENCODING 402
SWIDTH 478 0
DWIDTH 5 0
BBX 7 11 -1 -3
BITMAP
0E
18
18
7C
10
10
10
10
30
30
E0
ENDCHAR
STARTCHAR Ohorn
ENCODING 416
SWIDTH 816 0
DWIDTH 9 0
BBX 8 11 1 0
BITMAP
01
01
3F
66
C3
C3
83
83
C2
C4
78
ENDCHAR
STARTCHAR ohorn
ENCODING 417
SWIDTH 451 0
DWIDTH 5 0
BBX 6 7 0 0
BITMAP
08
0C
78
58
DC
D8
70
ENDCHAR
STARTCHAR Uhorn
ENCODING 431
SWIDTH 890 0
DWIDTH 10 0
BBX 11 11 0 0
BITMAP
0020
0060
70C0
D080
9180
3180
3180
3300
2300
35A0
39C0
ENDCHAR
STARTCHAR uhorn
ENCODING 432
SWIDTH 512 0
DWIDTH 6 0
BBX 6 7 1 0
BITMAP
08
08
98
B0
A0
E4
F8
ENDCHAR
STARTCHAR uni01C4
ENCODING 452
SWIDTH 1531 0
DWIDTH 17 0
BBX 17 13 1 0
BITMAP
001200
000E00
000C00
000000
7C3F00
464300
634200
434600
430C00
C21800
C61800
CCF880
F8EF00
ENDCHAR
STARTCHAR uni01C5
ENCODING 453
SWIDTH 1191 0
DWIDTH 13 0
BBX 13 10 1 0
BITMAP
0048
7C58
4630
6320
4300
43F0
C230
C640
CC80
F8F0
ENDCHAR
STARTCHAR uni01C6
ENCODING 454
SWIDTH 895 0
DWIDTH 10 0
BBX 11 9 0 0
BITMAP
0D40
0940
0980
0800
3BC0
7980
D220
D660
6FC0
ENDCHAR
STARTCHAR uni01C7
ENCODING 455
SWIDTH 1276 0
DWIDTH 14 0
BBX 14 10 0 -1
BITMAP
1E7C
33CC
33CC
22C8
2018
2068
20D8
F890
CFB0
00E0
ENDCHAR
STARTCHAR uni01C8
ENCODING 456
SWIDTH 927 0
DWIDTH 10 0
BBX 11 14 0 -5
BITMAP
0E00
3300
31C0
2000
20C0
20C0
2080
F8A0
CFC0
0180
0380
0500
0500
0600
ENDCHAR
STARTCHAR uni01C9
ENCODING 457
SWIDTH 610 0
DWIDTH 7 0
BBX 7 15 1 -5
BITMAP
60
50
D0
AC
A0
A8
C8
88
9E
F8
10
70
50
F0
60
ENDCHAR
STARTCHAR uni01CA
ENCODING 458
SWIDTH 1497 0
DWIDTH 16 0
BBX 17 10 0 -1
BITMAP
739F80
95B100
19A300
31A300
318700
310E00
311200
212600
21E400
003C00
ENDCHAR
STARTCHAR uni01CB
ENCODING 459
SWIDTH 1138 0
DWIDTH 13 0
BBX 14 14 0 -5
BITMAP
7380
D580
99B0
3180
3190
3110
3130
213C
21F0
0060
00E0
00A0
0140
01C0
ENDCHAR
STARTCHAR uni01CC
ENCODING 460
SWIDTH 750 0
DWIDTH 8 0
BBX 8 12 1 -5
BITMAP
06
00
B6
F6
F4
B5
BE
0C
14
28
28
30
ENDCHAR
STARTCHAR Gcaron
ENCODING 486
SWIDTH 811 0
DWIDTH 9 0
BBX 9 18 1 -5
BITMAP
1200
1400
0C00
0000
3C00
6600
C600
C200
8000
8E00
C200
E280
3F00
0600
0C00
1400
1C00
1800
ENDCHAR
STARTCHAR gcaron
ENCODING 487
SWIDTH 479 0
DWIDTH 5 0
BBX 6 15 0 -5
BITMAP
24
28
28
10
00
38
78
D8
D4
78
30
50
A0
A0
C0
ENDCHAR
STARTCHAR uni01EA
ENCODING 490
SWIDTH 816 0
DWIDTH 9 0
BBX 8 12 1 -3
BITMAP
3C
66
C3
C3
83
83
82
C6
7C
10
30
18
ENDCHAR
STARTCHAR uni01EB
ENCODING 491
SWIDTH 451 0
DWIDTH 5 0
BBX 6 8 0 -3
BITMAP
70
58
DC
D8
70
20
40
30
ENDCHAR
STARTCHAR Aringacute
ENCODING 506
SWIDTH 786 0
DWIDTH 9 0
BBX 10 14 1 0
BITMAP
00C0
0780
0A00
0E00
0000
1F00
3100
4600
C600
8600
8400
8C00
DC80
7700
ENDCHAR
STARTCHAR aringacute
ENCODING 507
SWIDTH 470 0
DWIDTH 5 0
BBX 7 10 0 0
BITMAP
02
1C
28
38
00
38
78
D0
D6
6C
ENDCHAR
STARTCHAR AEacute
ENCODING 508
SWIDTH 1015 0
DWIDTH 11 0
BBX 12 13 1 0
BITMAP
0080
00C0
0300
0000
1FE0
7200
4200
C600
87C0
8400
8C00
CE30
73E0
ENDCHAR
STARTCHAR aeacute
ENCODING 509
SWIDTH 653 0
DWIDTH 7 0
BBX 9 9 0 0
BITMAP
0600
0400
0800
0000
3E00
6A00
DE00
D980
6E00
ENDCHAR
STARTCHAR Oslashacute
ENCODING 510
SWIDTH 816 0
DWIDTH 9 0
BBX 8 14 1 -1
BITMAP
04
0C
18
04
3C
6E
CB
DB
93
93
D2
F4
78
20
ENDCHAR
STARTCHAR oslashacute
ENCODING 511
SWIDTH 459 0
DWIDTH 5 0
BBX 7 10 0 -1
BITMAP
10
20
20
10
70
78
EE
F8
70
20
ENDCHAR
STARTCHAR uni0200
ENCODING 512
SWIDTH 786 0
DWIDTH 9 0
BBX 9 13 1 0
BITMAP
1400
1E00
0A00
0000
1F00
3100
4600
C600
8600
8400
8C00
DC80
7700
ENDCHAR
STARTCHAR uni0201
ENCODING 513
SWIDTH 470 0
DWIDTH 5 0
BBX 7 10 0 0
BITMAP
50
50
78
28
00
38
78
D0
D6
6C
ENDCHAR
STARTCHAR uni0202
ENCODING 514
SWIDTH 786 0
DWIDTH 9 0
BBX 9 12 1 0
BITMAP
0E00
1900
0000
1F00
3100
4600
C600
8600
8400
8C00
DC80
7700
ENDCHAR
STARTCHAR uni0203
ENCODING 515
SWIDTH 470 0
DWIDTH 5 0
BBX 7 8 0 0
BITMAP
38
6C
44
38
78
D0
D6
6C
ENDCHAR
STARTCHAR uni0204
ENCODING 516
SWIDTH 686 0
DWIDTH 8 0
BBX 9 13 0 0
BITMAP
1400
1400
0A00
0000
1E00
3300
6300
2200
1800
6000
C000
E180
3F00
ENDCHAR
STARTCHAR uni0205
ENCODING 517
SWIDTH 393 0
DWIDTH 4 0
BBX 6 10 0 0
BITMAP
60
F0
50
50
00
70
50
F0
CC
78
ENDCHAR
STARTCHAR uni0206
ENCODING 518
SWIDTH 686 0
DWIDTH 8 0
BBX 9 12 0 0
BITMAP
0E00
1300
0000
1E00
3300
6300
2200
1800
6000
C000
E180
3F00
ENDCHAR
STARTCHAR uni0207
ENCODING 519
SWIDTH 393 0
DWIDTH 4 0
BBX 6 8 0 0
BITMAP
38
48
48
70
50
F0
CC
78
ENDCHAR
STARTCHAR uni0208
ENCODING 520
SWIDTH 495 0
DWIDTH 5 0
BBX 6 13 0 0
BITMAP
28
28
28
00
7C
10
10
30
30
30
20
20
F8
ENDCHAR
STARTCHAR uni0209
ENCODING 521
SWIDTH 246 0
DWIDTH 3 0
BBX 5 10 -1 0
BITMAP
A0
F0
50
50
00
20
20
20
28
30
ENDCHAR
STARTCHAR uni020A
ENCODING 522
SWIDTH 495 0
DWIDTH 5 0
BBX 6 12 0 0
BITMAP
3C
24
00
7C
10
10
30
30
30
20
20
F8
ENDCHAR
STARTCHAR uni020B
ENCODING 523
SWIDTH 246 0
DWIDTH 3 0
BBX 4 8 0 0
BITMAP
70
90
90
40
40
40
50
60
ENDCHAR
STARTCHAR uni020C
ENCODING 524
SWIDTH 816 0
DWIDTH 9 0
BBX 8 13 1 0
BITMAP
28
3C
14
00
3C
66
C3
C3
83
83
C2
C4
78
ENDCHAR
STARTCHAR uni020D
ENCODING 525
SWIDTH 451 0
DWIDTH 5 0
BBX 6 10 0 0
BITMAP
A0
F0
50
50
00
70
58
DC
D8
70
ENDCHAR
STARTCHAR uni020E
ENCODING 526
SWIDTH 816 0
DWIDTH 9 0
BBX 8 12 1 0
BITMAP
1C
36
00
3C
66
C3
C3
83
83
C2
C4
78
ENDCHAR
STARTCHAR uni020F
ENCODING 527
SWIDTH 451 0
DWIDTH 5 0
BBX 6 8 0 0
BITMAP
38
48
48
70
58
DC
D8
70
ENDCHAR
STARTCHAR uni0210
ENCODING 528
SWIDTH 880 0
DWIDTH 10 0
BBX 10 13 1 0
BITMAP
1400
3C00
1400
0000
3E00
6300
D300
9200
BC00
B400
B640
B240
6380
ENDCHAR
STARTCHAR uni0211
ENCODING 529
SWIDTH 455 0
DWIDTH 5 0
BBX 6 10 1 0
BITMAP
A0
A0
A0
50
00
B0
D4
D8
80
80
ENDCHAR
STARTCHAR uni0212
ENCODING 530
SWIDTH 880 0
DWIDTH 10 0
BBX 10 12 1 0
BITMAP
1E00
1200
0000
3E00
6300
D300
9200
BC00
B400
B640
B240
6380
ENDCHAR
STARTCHAR uni0213
ENCODING 531
SWIDTH 455 0
DWIDTH 5 0
BBX 6 8 1 0
BITMAP
70
D8
88
B0
D4
D8
80
80
ENDCHAR
STARTCHAR uni0214
ENCODING 532
SWIDTH 890 0
DWIDTH 10 0
BBX 11 13 0 0
BITMAP
0A00
0A00
0A00
0000
7080
D080
9180
3180
3180
3300
2300
35A0
39C0
ENDCHAR
STARTCHAR uni0215
ENCODING 533
SWIDTH 462 0
DWIDTH 5 0
BBX 6 10 1 0
BITMAP
A0
A0
A0
50
00
90
B0
A0
EC
F0
ENDCHAR
STARTCHAR uni0216
ENCODING 534
SWIDTH 890 0
DWIDTH 10 0
BBX 11 12 0 0
BITMAP
0700
0900
0000
7080
D080
9180
3180
3180
3300
2300
35A0
39C0
ENDCHAR
STARTCHAR uni0217
ENCODING 535
SWIDTH 462 0
DWIDTH 5 0
BBX 6 8 1 0
BITMAP
70
D8
88
90
B0
A0
EC
F0
ENDCHAR
STARTCHAR uni0218
ENCODING 536
SWIDTH 693 0
DWIDTH 8 0
BBX 8 12 0 -3
BITMAP
3E
63
63
60
3C
06
C2
C6
7C
00
10
10
ENDCHAR
STARTCHAR uni0219
ENCODING 537
SWIDTH 427 0
DWIDTH 5 0
BBX 6 8 0 -3
BITMAP
20
20
74
BC
78
20
20
20
ENDCHAR
STARTCHAR uni021A
ENCODING 538
SWIDTH 697 0
DWIDTH 8 0
BBX 10 12 0 -3
BITMAP
3FC0
4C00
CC00
4C00
0800
0800
0800
1800
1800
0000
1800
1000
ENDCHAR
STARTCHAR uni021B
ENCODING 539
SWIDTH 393 0
DWIDTH 4 0
BBX 6 13 0 -3
BITMAP
18
28
28
70
50
F8
40
40
6C
38
20
20
20
ENDCHAR
STARTCHAR uni022A
ENCODING 554
SWIDTH 816 0
DWIDTH 9 0
BBX 8 14 1 0
BITMAP
1C
00
00
14
00
3C
66
C3
C3
83
83
C2
C4
78
ENDCHAR
STARTCHAR uni022B
ENCODING 555
SWIDTH 451 0
DWIDTH 5 0
BBX 6 10 0 0
BITMAP
78
00
00
78
00
70
58
DC
D8
70
ENDCHAR
STARTCHAR uni022C
ENCODING 556
SWIDTH 816 0
DWIDTH 9 0
BBX 8 14 1 0
BITMAP
1E
00
1A
2C
00
3C
66
C3
C3
83
83
C2
C4
78
ENDCHAR
STARTCHAR uni022D
ENCODING 557
SWIDTH 451 0
DWIDTH 5 0
BBX 6 10 0 0
BITMAP
78
00
68
58
00
70
58
DC
D8
70
ENDCHAR
STARTCHAR uni0230
ENCODING 560
SWIDTH 816 0
DWIDTH 9 0
BBX 8 14 1 0
BITMAP
1C
00
00
1C
00
3C
66
C3
C3
83
83
C2
C4
78
ENDCHAR
STARTCHAR uni0231
ENCODING 561
SWIDTH 451 0
DWIDTH 5 0
BBX 6 10 0 0
BITMAP
78
00
00
30
00
70
58
DC
D8
70
ENDCHAR
STARTCHAR uni0232
ENCODING 562
SWIDTH 851 0
DWIDTH 9 0
BBX 11 14 0 -3
BITMAP
0F00
0000
7080
D080
9180
1180
3180
3380
3300
1FE0
0D00
1300
1200
1E00
ENDCHAR
STARTCHAR uni0233
ENCODING 563
SWIDTH 479 0
DWIDTH 5 0
BBX 6 12 0 -5
BITMAP
78
00
48
58
50
74
78
30
50
A0
A0
C0
ENDCHAR
STARTCHAR uni0237
ENCODING 567
SWIDTH 254 0
DWIDTH 3 0
BBX 7 10 -3 -5
BITMAP
08
08
08
0E
1C
18
30
50
F0
60
ENDCHAR
STARTCHAR uni0259
ENCODING 601
SWIDTH 458 0
DWIDTH 5 0
BBX 5 5 0 0
BITMAP
70
18
78
D8
70
ENDCHAR
STARTCHAR uni02BC
ENCODING 700
SWIDTH 600 0
DWIDTH 7 0
BBX 1 3 3 6
BITMAP
80
80
80
ENDCHAR
STARTCHAR circumflex
ENCODING 710
SWIDTH 600 0
DWIDTH 7 0
BBX 4 4 1 6
BITMAP
20
30
50
D0
ENDCHAR
STARTCHAR caron
ENCODING 711
SWIDTH 600 0
DWIDTH 7 0
BBX 4 4 2 6
BITMAP
90
A0
A0
40
ENDCHAR
STARTCHAR uni02C9
ENCODING 713
SWIDTH 600 0
DWIDTH 7 0
BBX 3 1 2 6
BITMAP
E0
ENDCHAR
STARTCHAR breve
ENCODING 728
SWIDTH 600 0
DWIDTH 7 0
BBX 5 2 1 6
BITMAP
D8
70
ENDCHAR
STARTCHAR dotaccent
ENCODING 729
SWIDTH 600 0
DWIDTH 7 0
BBX 2 1 2 6
BITMAP
C0
ENDCHAR
STARTCHAR ring
ENCODING 730
SWIDTH 600 0
DWIDTH 7 0
BBX 3 3 2 6
BITMAP
E0
A0
E0
ENDCHAR
STARTCHAR ogonek
ENCODING 731
SWIDTH 600 0
DWIDTH 7 0
BBX 3 3 1 -3
BITMAP
40
C0
60
ENDCHAR
STARTCHAR tilde
ENCODING 732
SWIDTH 600 0
DWIDTH 7 0
BBX 5 2 1 6
BITMAP
68
B0
ENDCHAR
STARTCHAR hungarumlaut
ENCODING 733
SWIDTH 600 0
DWIDTH 7 0
BBX 4 4 2 6
BITMAP
50
50
A0
A0
ENDCHAR
STARTCHAR gravecomb
ENCODING 768
SWIDTH 0 0
DWIDTH 0 0
BBX 2 4 -5 6
BITMAP
80
80
C0
40
ENDCHAR
STARTCHAR acutecomb
ENCODING 769
SWIDTH 0 0
DWIDTH 0 0
BBX 3 3 -4 6
BITMAP
60
40
80
ENDCHAR
STARTCHAR uni0302
ENCODING 770
SWIDTH 0 0
DWIDTH 0 0
BBX 4 4 -5 6
BITMAP
20
60
E0
B0
ENDCHAR
STARTCHAR tildecomb
ENCODING 771
SWIDTH 0 0
DWIDTH 0 0
BBX 5 2 -6 6
BITMAP
68
D8
ENDCHAR
STARTCHAR uni0304
ENCODING 772
SWIDTH 0 0
DWIDTH 0 0
BBX 4 1 -5 6
BITMAP
F0
ENDCHAR
STARTCHAR uni0306
ENCODING 774
SWIDTH 0 0
DWIDTH 0 0
BBX 4 2 -5 6
BITMAP
90
F0
ENDCHAR
STARTCHAR uni0307
ENCODING 775
SWIDTH 0 0
DWIDTH 0 0
BBX 2 1 -4 6
BITMAP
C0
ENDCHAR
STARTCHAR uni0308
ENCODING 776
SWIDTH 0 0
DWIDTH 0 0
BBX 4 1 -5 6
BITMAP
F0
ENDCHAR
STARTCHAR hookabovecomb
ENCODING 777
SWIDTH 0 0
DWIDTH 0 0
BBX 2 3 -4 6
BITMAP
C0
40
C0
ENDCHAR
STARTCHAR uni030A
ENCODING 778
SWIDTH 0 0
DWIDTH 0 0
BBX 3 3 -5 6
BITMAP
60
A0
60
ENDCHAR
STARTCHAR uni030B
ENCODING 779
SWIDTH 0 0
DWIDTH 0 0
BBX 4 4 -5 6
BITMAP
50
50
50
A0
ENDCHAR
STARTCHAR uni030C
ENCODING 780
SWIDTH 0 0
DWIDTH 0 0
BBX 4 4 -5 6
BITMAP
90
D0
60
60
ENDCHAR
STARTCHAR uni030F
ENCODING 783
SWIDTH 0 0
DWIDTH 0 0
BBX 4 4 -6 6
BITMAP
A0
F0
50
50
ENDCHAR
STARTCHAR uni0311
ENCODING 785
SWIDTH 0 0
DWIDTH 0 0
BBX 4 3 -5 5
BITMAP
E0
90
90
ENDCHAR
STARTCHAR uni0312
ENCODING 786
SWIDTH 0 0
DWIDTH 0 0
BBX 2 3 -4 6
BITMAP
C0
C0
80
ENDCHAR
STARTCHAR uni031B
ENCODING 795
SWIDTH 0 0
DWIDTH 0 0
BBX 3 2 -4 4
BITMAP
60
C0
ENDCHAR
STARTCHAR dotbelowcomb
ENCODING 803
SWIDTH 0 0
DWIDTH 0 0
BBX 2 1 -5 -2
BITMAP
C0
ENDCHAR
STARTCHAR uni0324
ENCODING 804
SWIDTH 0 0
DWIDTH 0 0
BBX 4 1 -6 -2
BITMAP
B0
ENDCHAR
STARTCHAR uni0326
ENCODING 806
SWIDTH 0 0
DWIDTH 0 0
BBX 2 3 -5 -3
BITMAP
C0
80
80
ENDCHAR
STARTCHAR uni0327
ENCODING 807
SWIDTH 0 0
DWIDTH 0 0
BBX 3 3 -6 -3
BITMAP
60
20
E0
ENDCHAR
STARTCHAR uni0328
ENCODING 808
SWIDTH 0 0
DWIDTH 0 0
BBX 3 3 -5 -3
BITMAP
C0
80
E0
ENDCHAR
STARTCHAR uni032E
ENCODING 814
SWIDTH 0 0
DWIDTH 0 0
BBX 5 2 -7 -3
BITMAP
C8
70
ENDCHAR
STARTCHAR uni0331
ENCODING 817
SWIDTH 0 0
DWIDTH 0 0
BBX 4 1 -6 -2
BITMAP
F0
ENDCHAR
STARTCHAR uni0394
ENCODING 916
SWIDTH 700 0
DWIDTH 8 0
BBX 7 10 0 0
BITMAP
08
08
1C
14
34
24
64
46
46
FE
ENDCHAR
STARTCHAR uni03A9
ENCODING 937
SWIDTH 816 0
DWIDTH 9 0
BBX 9 10 0 0
BITMAP
1E00
3F00
6180
6180
4180
4180
4100
6300
6600
F780
ENDCHAR
STARTCHAR uni03BC
ENCODING 956
SWIDTH 462 0
DWIDTH 5 0
BBX 7 9 0 -3
BITMAP
48
58
50
52
F4
F8
C0
C0
C0
ENDCHAR
STARTCHAR pi
ENCODING 960
SWIDTH 496 0
DWIDTH 5 0
BBX 7 6 0 0
BITMAP
FC
48
58
5A
DE
CC
ENDCHAR
STARTCHAR uni0400
ENCODING 1024
SWIDTH 686 0
DWIDTH 8 0
BBX 9 13 0 0
BITMAP
2000
3000
0800
0000
1E00
3300
6300
2200
1800
6000
C000
E180
3F00
ENDCHAR
STARTCHAR uni0401
ENCODING 1025
SWIDTH 686 0
DWIDTH 8 0
BBX 9 11 0 0
BITMAP
1A00
0000
1E00
3300
6300
2200
1800
6000
C000
E180
3F00
ENDCHAR
STARTCHAR uni0402
ENCODING 1026
SWIDTH 974 0
DWIDTH 11 0
BBX 12 14 0 -5
BITMAP
3FC0
4C00
CC00
4C00
0BC0
0CC0
08D0
18F0
18C0
0180
0380
0680
0500
0700
ENDCHAR
STARTCHAR uni0403
ENCODING 1027
SWIDTH 635 0
DWIDTH 7 0
BBX 9 13 0 0
BITMAP
0200
0700
0C00
0000
3F80
5800
D800
5800
1000
1000
1000
3000
3000
ENDCHAR
STARTCHAR uni0404
ENCODING 1028
SWIDTH 687 0
DWIDTH 8 0
BBX 8 9 1 0
BITMAP
3C
66
C6
C0
F8
80
C0
E3
3E
ENDCHAR
STARTCHAR uni0405
ENCODING 1029
SWIDTH 693 0
DWIDTH 8 0
BBX 8 9 0 0
BITMAP
3E
63
63
60
3C
06
C2
C6
7C
ENDCHAR
STARTCHAR uni0406
ENCODING 1030
SWIDTH 495 0
DWIDTH 5 0
BBX 6 9 0 0
BITMAP
7C
10
10
30
30
30
20
20
F8
ENDCHAR
STARTCHAR uni0407
ENCODING 1031
SWIDTH 495 0
DWIDTH 5 0
BBX 6 11 0 0
BITMAP
3C
00
7C
10
10
30
30
30
20
20
F8
ENDCHAR
STARTCHAR uni0408
ENCODING 1032
SWIDTH 743 0
DWIDTH 8 0
BBX 7 10 1 -1
BITMAP
7E
C6
86
86
0C
3C
6C
4C
48
70
ENDCHAR
STARTCHAR uni0409
ENCODING 1033
SWIDTH 1158 0
DWIDTH 13 0
BBX 13 9 0 0
BITMAP
0300
0300
0700
07F0
0710
0F18
8B10
D930
71E0
ENDCHAR
STARTCHAR uni040A
ENCODING 1034
SWIDTH 1182 0
DWIDTH 13 0
BBX 13 9 0 0
BITMAP
7180
9100
1100
11F0
7F18
3318
3318
2330
21E0
ENDCHAR
STARTCHAR uni040B
ENCODING 1035
SWIDTH 979 0
DWIDTH 11 0
BBX 12 9 0 0
BITMAP
3FC0
4C00
CC00
4C00
0BC0
0CC0
08C0
18D0
18E0
ENDCHAR
STARTCHAR uni040C
ENCODING 1036
SWIDTH 937 0
DWIDTH 10 0
BBX 12 13 0 0
BITMAP
0040
00C0
0100
0000
3E60
4C40
4CC0
4D80
1E00
0B00
8910
D9B0
70E0
ENDCHAR
STARTCHAR uni040D
ENCODING 1037
SWIDTH 890 0
DWIDTH 10 0
BBX 11 13 0 0
BITMAP
1000
1800
0400
0000
7080
D080
9180
3180
3180
3300
2300
35A0
39C0
ENDCHAR
STARTCHAR uni040E
ENCODING 1038
SWIDTH 824 0
DWIDTH 9 0
BBX 11 16 0 -3
BITMAP
0100
0900
0E00
0000
7080
D180
1180
3180
3380
1D00
01E0
0700
1D00
1300
1200
1C00
ENDCHAR
STARTCHAR uni040F
ENCODING 1039
SWIDTH 890 0
DWIDTH 10 0
BBX 11 11 0 -2
BITMAP
7080
D080
9180
3180
3180
3300
2300
35A0
39C0
1000
1000
ENDCHAR
STARTCHAR uni0410
ENCODING 1040
SWIDTH 786 0
DWIDTH 9 0
BBX 9 9 1 0
BITMAP
1F00
3100
4600
C600
8600
8400
8C00
DC80
7700
ENDCHAR
STARTCHAR uni0411
ENCODING 1041
SWIDTH 917 0
DWIDTH 10 0
BBX 10 10 0 -1
BITMAP
3F80
4800
C800
5800
1F80
38C0
18C0
10C0
1380
1600
ENDCHAR
STARTCHAR uni0412
ENCODING 1042
SWIDTH 827 0
DWIDTH 9 0
BBX 10 9 0 0
BITMAP
3F00
E180
30C0
3180
2700
2300
6100
6300
7E00
ENDCHAR
STARTCHAR uni0413
ENCODING 1043
SWIDTH 635 0
DWIDTH 7 0
BBX 9 9 0 0
BITMAP
3F80
5800
D800
5800
1000
1000
1000
3000
3000
ENDCHAR
STARTCHAR uni0414
ENCODING 1044
SWIDTH 964 0
DWIDTH 11 0
BBX 10 9 0 0
BITMAP
1F00
30C0
08C0
1840
1840
1040
70C0
9980
E700
ENDCHAR
STARTCHAR uni0415
ENCODING 1045
SWIDTH 686 0
DWIDTH 8 0
BBX 9 9 0 0
BITMAP
1E00
3300
6300
2200
1800
6000
C000
E180
3F00
ENDCHAR
STARTCHAR uni0416
ENCODING 1046
SWIDTH 1234 0
DWIDTH 14 0
BBX 15 9 0 0
BITMAP
399C
2994
0DB0
05E0
07C0
0D60
1B60
D336
731C
ENDCHAR
STARTCHAR uni0417
ENCODING 1047
SWIDTH 725 0
DWIDTH 8 0
BBX 7 9 1 0
BITMAP
3C
44
C4
0C
3C
06
86
8C
78
ENDCHAR
STARTCHAR uni0418
ENCODING 1048
SWIDTH 890 0
DWIDTH 10 0
BBX 11 9 0 0
BITMAP
7080
D080
9180
3180
3180
3300
2300
35A0
39C0
ENDCHAR
STARTCHAR uni0419
ENCODING 1049
SWIDTH 890 0
DWIDTH 10 0
BBX 11 13 0 0
BITMAP
0100
0900
0E00
0000
7080
D080
9180
3180
3180
3300
2300
35A0
39C0
ENDCHAR
STARTCHAR uni041A
ENCODING 1050
SWIDTH 937 0
DWIDTH 10 0
BBX 12 9 0 0
BITMAP
3E60
4C40
4CC0
4D80
1E00
0B00
8910
D9B0
70E0
ENDCHAR
STARTCHAR uni041B
ENCODING 1051
SWIDTH 861 0
DWIDTH 9 0
BBX 11 9 0 0
BITMAP
0300
0300
0700
0700
0700
0F00
0B00
D920
71C0
ENDCHAR
STARTCHAR uni041C
ENCODING 1052
SWIDTH 1133 0
DWIDTH 12 0
BBX 14 9 0 0
BITMAP
0660
0660
0EE0
0AA0
0EE0
0BE0
1B60
D32C
6238
ENDCHAR
STARTCHAR uni041D
ENCODING 1053
SWIDTH 873 0
DWIDTH 10 0
BBX 11 10 0 0
BITMAP
00C0
71C0
9140
1140
1380
7F00
3300
3320
2320
21C0
ENDCHAR
STARTCHAR uni041E
ENCODING 1054
SWIDTH 816 0
DWIDTH 9 0
BBX 8 9 1 0
BITMAP
3C
66
C3
C3
83
83
C2
C4
78
ENDCHAR
STARTCHAR uni041F
ENCODING 1055
SWIDTH 892 0
DWIDTH 10 0
BBX 11 9 0 0
BITMAP
3FE0
4880
D880
5980
1980
1100
1100
1120
31C0
ENDCHAR
STARTCHAR uni0420
ENCODING 1056
SWIDTH 805 0
DWIDTH 9 0
BBX 9 10 0 -1
BITMAP
0F00
3180
2D80
4980
4900
5E00
D800
5800
5800
7000
ENDCHAR
STARTCHAR uni0421
ENCODING 1057
SWIDTH 686 0
DWIDTH 8 0
BBX 8 9 1 0
BITMAP
3C
66
C6
C4
80
80
C0
E3
3E
ENDCHAR
STARTCHAR uni0422
ENCODING 1058
SWIDTH 697 0
DWIDTH 8 0
BBX 10 9 0 0
BITMAP
3FC0
4C00
CC00
4C00
0800
0800
0800
1800
1800
ENDCHAR
STARTCHAR uni0423
ENCODING 1059
SWIDTH 824 0
DWIDTH 9 0
BBX 11 12 0 -3
BITMAP
7080
D180
1180
3180
3380
1D00
01E0
0700
1D00
1300
1200
1C00
ENDCHAR
STARTCHAR uni0424
ENCODING 1060
SWIDTH 977 0
DWIDTH 11 0
BBX 10 13 1 -3
BITMAP
4000
7E00
0400
7F80
CE80
CCC0
8880
9880
9980
FF00
1800
D000
7000
ENDCHAR
STARTCHAR uni0425
ENCODING 1061
SWIDTH 712 0
DWIDTH 8 0
BBX 9 9 0 0
BITMAP
7100
9B00
1E00
0C00
1800
3C00
2C00
4480
C700
ENDCHAR
STARTCHAR uni0426
ENCODING 1062
SWIDTH 890 0
DWIDTH 10 0
BBX 11 12 0 -3
BITMAP
7080
D080
9180
3180
3180
3300
2300
25A0
38C0
0380
0680
0700
ENDCHAR
STARTCHAR uni0427
ENCODING 1063
SWIDTH 773 0
DWIDTH 9 0
BBX 7 9 1 0
BITMAP
42
42
46
C6
CE
7E
04
04
04
ENDCHAR
STARTCHAR uni0428
ENCODING 1064
SWIDTH 1272 0
DWIDTH 14 0
BBX 15 9 0 0
BITMAP
7188
D188
9188
3118
3118
3318
2338
355A
399C
ENDCHAR
STARTCHAR uni0429
ENCODING 1065
SWIDTH 1272 0
DWIDTH 14 0
BBX 15 12 0 -3
BITMAP
7188
D188
9188
3118
3118
3318
2338
355E
398C
0038
0028
0038
ENDCHAR
STARTCHAR uni042A
ENCODING 1066
SWIDTH 863 0
DWIDTH 10 0
BBX 8 9 1 0
BITMAP
F8
10
30
3F
63
21
21
33
1E
ENDCHAR
STARTCHAR uni042B
ENCODING 1067
SWIDTH 1078 0
DWIDTH 12 0
BBX 12 9 0 0
BITMAP
3030
2020
2020
7E20
E360
6360
6360
6640
3C40
ENDCHAR
STARTCHAR uni042C
ENCODING 1068
SWIDTH 721 0
DWIDTH 8 0
BBX 8 9 0 0
BITMAP
30
20
20
7E
E3
63
63
66
3C
ENDCHAR
STARTCHAR uni042D
ENCODING 1069
SWIDTH 755 0
DWIDTH 8 0
BBX 8 9 0 0
BITMAP
3C
63
03
03
3F
03
43
C6
7C
ENDCHAR
STARTCHAR uni042E
ENCODING 1070
SWIDTH 1246 0
DWIDTH 14 0
BBX 14 9 0 0
BITMAP
71B0
D398
9288
130C
7E08
3608
3218
2330
21E0
ENDCHAR
STARTCHAR uni042F
ENCODING 1071
SWIDTH 850 0
DWIDTH 9 0
BBX 11 9 0 0
BITMAP
1F80
3180
3180
3300
1F00
0500
8D20
9960
71C0
ENDCHAR
STARTCHAR uni0430
ENCODING 1072
SWIDTH 470 0
DWIDTH 5 0
BBX 7 5 0 0
BITMAP
38
78
D0
D6
6C
ENDCHAR
STARTCHAR uni0431
ENCODING 1073
SWIDTH 473 0
DWIDTH 5 0
BBX 7 10 0 0
BITMAP
18
70
60
20
10
78
58
DE
D8
70
ENDCHAR
STARTCHAR uni0432
ENCODING 1074
SWIDTH 473 0
DWIDTH 5 0
BBX 6 10 1 0
BITMAP
60
50
D0
A0
A0
E0
B0
BC
B0
E0
ENDCHAR
STARTCHAR uni0433
ENCODING 1075
SWIDTH 380 0
DWIDTH 4 0
BBX 6 5 0 0
BITMAP
70
10
60
CC
70
ENDCHAR
STARTCHAR uni0434
ENCODING 1076
SWIDTH 479 0
DWIDTH 5 0
BBX 6 10 0 -5
BITMAP
38
78
D8
D4
78
30
50
A0
A0
C0
ENDCHAR
STARTCHAR uni0435
ENCODING 1077
SWIDTH 393 0
DWIDTH 4 0
BBX 6 5 0 0
BITMAP
70
50
F0
CC
78
ENDCHAR
STARTCHAR uni0436
ENCODING 1078
SWIDTH 717 0
DWIDTH 8 0
BBX 9 5 0 0
BITMAP
6B00
5D00
1C00
EC80
EB00
ENDCHAR
STARTCHAR uni0437
ENCODING 1079
SWIDTH 435 0
DWIDTH 5 0
BBX 6 10 0 -5
BITMAP
70
50
10
6C
78
30
F0
A0
E0
C0
ENDCHAR
STARTCHAR uni0438
ENCODING 1080
SWIDTH 462 0
DWIDTH 5 0
BBX 6 5 1 0
BITMAP
90
B0
A0
EC
F0
ENDCHAR
STARTCHAR uni0439
ENCODING 1081
SWIDTH 462 0
DWIDTH 5 0
BBX 6 8 1 0
BITMAP
90
F0
00
90
B0
A0
EC
F0
ENDCHAR
STARTCHAR uni043A
ENCODING 1082
SWIDTH 465 0
DWIDTH 5 0
BBX 6 5 1 0
BITMAP
B0
F8
C0
EC
B8
ENDCHAR
STARTCHAR uni043B
ENCODING 1083
SWIDTH 549 0
DWIDTH 6 0
BBX 7 5 0 0
BITMAP
18
18
BA
AA
CC
ENDCHAR
STARTCHAR uni043C
ENCODING 1084
SWIDTH 734 0
DWIDTH 8 0
BBX 10 5 0 0
BITMAP
1A00
1E00
AE00
AAC0
CB00
ENDCHAR
STARTCHAR uni043D
ENCODING 1085
SWIDTH 475 0
DWIDTH 5 0
BBX 6 5 1 0
BITMAP
90
90
F0
AC
B8
ENDCHAR
STARTCHAR uni043E
ENCODING 1086
SWIDTH 451 0
DWIDTH 5 0
BBX 6 5 0 0
BITMAP
70
58
DC
D8
70
ENDCHAR
STARTCHAR uni043F
ENCODING 1087
SWIDTH 496 0
DWIDTH 5 0
BBX 6 5 1 0
BITMAP
B0
F0
F0
B4
B8
ENDCHAR
STARTCHAR uni0440
ENCODING 1088
SWIDTH 481 0
DWIDTH 5 0
BBX 8 10 -1 -5
BITMAP
3C
2C
2C
6B
7E
A0
A0
E0
C0
C0
ENDCHAR
STARTCHAR uni0441
ENCODING 1089
SWIDTH 368 0
DWIDTH 4 0
BBX 5 5 0 0
BITMAP
70
50
C0
C8
70
ENDCHAR
STARTCHAR uni0442
ENCODING 1090
SWIDTH 744 0
DWIDTH 8 0
BBX 9 5 1 0
BITMAP
B600
FE00
F400
B580
B700
ENDCHAR
STARTCHAR uni0443
ENCODING 1091
SWIDTH 479 0
DWIDTH 5 0
BBX 6 10 0 -5
BITMAP
48
58
50
74
78
30
50
A0
A0
C0
ENDCHAR
STARTCHAR uni0444
ENCODING 1092
SWIDTH 721 0
DWIDTH 8 0
BBX 9 12 0 -3
BITMAP
0C00
0800
0800
0800
3E00
7B00
DA00
DE80
7F00
1000
1000
1000
ENDCHAR
STARTCHAR uni0445
ENCODING 1093
SWIDTH 529 0
DWIDTH 6 0
BBX 7 5 0 0
BITMAP
6C
54
10
F2
FC
ENDCHAR
STARTCHAR uni0446
ENCODING 1094
SWIDTH 501 0
DWIDTH 6 0
BBX 6 8 1 -3
BITMAP
90
B0
A0
F4
F8
70
E0
E0
ENDCHAR
STARTCHAR uni0447
ENCODING 1095
SWIDTH 555 0
DWIDTH 6 0
BBX 8 6 0 0
BITMAP
30
3C
68
51
92
1C
ENDCHAR
STARTCHAR uni0448
ENCODING 1096
SWIDTH 693 0
DWIDTH 8 0
BBX 8 5 1 0
BITMAP
94
B4
AC
FD
F6
ENDCHAR
STARTCHAR uni0449
ENCODING 1097
SWIDTH 732 0
DWIDTH 8 0
BBX 8 8 1 -3
BITMAP
94
B4
AC
FD
F6
0C
14
18
ENDCHAR
STARTCHAR uni044A
ENCODING 1098
SWIDTH 542 0
DWIDTH 6 0
BBX 7 5 0 0
BITMAP
F0
58
6A
4A
7C
ENDCHAR
STARTCHAR uni044B
ENCODING 1099
SWIDTH 702 0
DWIDTH 8 0
BBX 8 5 1 0
BITMAP
84
FC
9D
B5
E6
ENDCHAR
STARTCHAR uni044C
ENCODING 1100
SWIDTH 517 0
DWIDTH 6 0
BBX 6 5 1 0
BITMAP
80
F0
94
B4
F8
ENDCHAR
STARTCHAR uni044D
ENCODING 1101
SWIDTH 466 0
DWIDTH 5 0
BBX 7 5 0 0
BITMAP
70
18
3E
D8
70
ENDCHAR
STARTCHAR uni044E
ENCODING 1102
SWIDTH 676 0
DWIDTH 7 0
BBX 8 5 1 0
BITMAP
9C
BC
E7
A4
B8
ENDCHAR
STARTCHAR uni044F
ENCODING 1103
SWIDTH 543 0
DWIDTH 6 0
BBX 7 5 0 0
BITMAP
3C
28
BA
9A
EC
ENDCHAR
STARTCHAR uni0450
ENCODING 1104
SWIDTH 393 0
DWIDTH 4 0
BBX 6 10 0 0
BITMAP
40
40
20
20
00
70
50
F0
CC
78
ENDCHAR
STARTCHAR uni0451
ENCODING 1105
SWIDTH 393 0
DWIDTH 4 0
BBX 6 7 0 0
BITMAP
78
00
70
50
F0
CC
78
ENDCHAR
STARTCHAR uni0452
ENCODING 1106
SWIDTH 514 0
DWIDTH 6 0
BBX 7 14 0 -5
BITMAP
20
20
78
60
58
78
68
5E
58
10
70
50
A0
60
ENDCHAR
STARTCHAR uni0453
ENCODING 1107
SWIDTH 380 0
DWIDTH 4 0
BBX 6 9 0 0
BITMAP
10
10
20
00
70
10
60
CC
70
ENDCHAR
STARTCHAR uni0454
ENCODING 1108
SWIDTH 379 0
DWIDTH 4 0
BBX 6 5 0 0
BITMAP
70
50
E0
CC
78
ENDCHAR
STARTCHAR uni0455
ENCODING 1109
SWIDTH 427 0
DWIDTH 5 0
BBX 6 5 0 0
BITMAP
20
20
74
BC
78
ENDCHAR
STARTCHAR uni0456
ENCODING 1110
SWIDTH 246 0
DWIDTH 3 0
BBX 3 7 1 0
BITMAP
C0
00
80
80
80
A0
C0
ENDCHAR
STARTCHAR uni0457
ENCODING 1111
SWIDTH 246 0
DWIDTH 3 0
BBX 4 7 0 0
BITMAP
F0
00
40
40
40
50
60
ENDCHAR
STARTCHAR uni0458
ENCODING 1112
SWIDTH 254 0
DWIDTH 3 0
BBX 7 12 -3 -5
BITMAP
0C
00
08
08
08
0E
1C
18
30
50
F0
60
ENDCHAR
STARTCHAR uni0459
ENCODING 1113
SWIDTH 794 0
DWIDTH 9 0
BBX 10 5 0 0
BITMAP
1800
1F00
B940
A940
CF80
ENDCHAR
STARTCHAR uni045A
ENCODING 1114
SWIDTH 751 0
DWIDTH 8 0
BBX 9 5 1 0
BITMAP
9000
BC00
F680
B780
9F00
ENDCHAR
STARTCHAR uni045B
ENCODING 1115
SWIDTH 502 0
DWIDTH 6 0
BBX 6 9 1 0
BITMAP
40
40
F0
C0
B0
F0
D0
B4
B8
ENDCHAR
STARTCHAR uni045C
ENCODING 1116
SWIDTH 465 0
DWIDTH 5 0
BBX 6 9 1 0
BITMAP
10
30
20
00
B0
F8
C0
EC
B8
ENDCHAR
STARTCHAR uni045D
ENCODING 1117
SWIDTH 462 0
DWIDTH 5 0
BBX 6 10 1 0
BITMAP
80
C0
40
20
00
90
B0
A0
EC
F0
ENDCHAR
STARTCHAR uni045E
ENCODING 1118
SWIDTH 479 0
DWIDTH 5 0
BBX 6 13 0 -5
BITMAP
48
78
00
48
58
50
74
78
30
50
A0
A0
C0
ENDCHAR
STARTCHAR uni045F
ENCODING 1119
SWIDTH 600 0
DWIDTH 7 0
BBX 6 6 1 -1
BITMAP
90
B0
A0
EC
B0
80
ENDCHAR
STARTCHAR uni0462
ENCODING 1122
SWIDTH 721 0
DWIDTH 8 0
BBX 8 9 0 0
BITMAP
30
78
20
7E
E3
63
63
66
3C
ENDCHAR
STARTCHAR uni0463
ENCODING 1123
SWIDTH 517 0
DWIDTH 6 0
BBX 7 7 0 0
BITMAP
60
60
F0
78
4A
4A
7C
ENDCHAR
STARTCHAR uni046A
ENCODING 1130
SWIDTH 1234 0
DWIDTH 14 0
BBX 15 9 0 0
BITMAP
3FFC
0C10
0C30
0460
07C0
0D60
1B60
D336
731C
ENDCHAR
STARTCHAR uni046B
ENCODING 1131
SWIDTH 788 0
DWIDTH 9 0
BBX 10 9 0 0
BITMAP
0600
0600
0600
0E00
3B80
0A00
1E00
FE40
ED80
ENDCHAR
STARTCHAR uni0472
ENCODING 1138
SWIDTH 816 0
DWIDTH 9 0
BBX 8 9 1 0
BITMAP
3C
66
C3
F3
9F
83
C6
C4
78
ENDCHAR
STARTCHAR uni0473
ENCODING 1139
SWIDTH 451 0
DWIDTH 5 0
BBX 6 5 0 0
BITMAP
70
58
FC
D8
70
ENDCHAR
STARTCHAR uni0474
ENCODING 1140
SWIDTH 797 0
DWIDTH 9 0
BBX 10 9 1 0
BITMAP
43C0
4300
C300
C200
C600
C400
4C00
7800
7000
ENDCHAR
STARTCHAR uni0475
ENCODING 1141
SWIDTH 420 0
DWIDTH 5 0
BBX 5 5 1 0
BITMAP
98
B0
A0
E0
C0
ENDCHAR
STARTCHAR uni048A
ENCODING 1162
SWIDTH 890 0
DWIDTH 10 0
BBX 11 15 0 -2
BITMAP
0100
0900
0F00
0000
7080
D080
9180
3180
3180
3300
2300
35A0
39C0
0080
0180
ENDCHAR
STARTCHAR uni048B
ENCODING 1163
SWIDTH 462 0
DWIDTH 5 0
BBX 6 10 1 -2
BITMAP
90
F0
00
90
B0
A0
EC
F8
30
20
ENDCHAR
STARTCHAR uni048C
ENCODING 1164
SWIDTH 721 0
DWIDTH 8 0
BBX 8 9 0 0
BITMAP
30
78
20
7E
E3
63
63
66
3C
ENDCHAR
STARTCHAR uni048D
ENCODING 1165
SWIDTH 517 0
DWIDTH 6 0
BBX 7 7 0 0
BITMAP
60
60
F0
78
4A
4A
7C
ENDCHAR
STARTCHAR uni048E
ENCODING 1166
SWIDTH 805 0
DWIDTH 9 0
BBX 10 10 0 -1
BITMAP
0F00
3180
2D80
4B80
49C0
5E00
D800
5800
5800
7000
ENDCHAR
STARTCHAR uni048F
ENCODING 1167
SWIDTH 481 0
DWIDTH 5 0
BBX 8 10 -1 -5
BITMAP
3C
2C
2C
7B
7E
A0
A0
E0
C0
C0
ENDCHAR
STARTCHAR uni0490
ENCODING 1168
SWIDTH 645 0
DWIDTH 7 0
BBX 10 12 0 0
BITMAP
0040
00C0
00C0
3F80
5800
D800
5800
1000
1000
1000
3000
3000
ENDCHAR
STARTCHAR uni0491
ENCODING 1169
SWIDTH 394 0
DWIDTH 4 0
BBX 4 7 1 0
BITMAP
10
10
E0
80
80
80
80
ENDCHAR
STARTCHAR uni0492
ENCODING 1170
SWIDTH 635 0
DWIDTH 7 0
BBX 9 9 0 0
BITMAP
3F80
5800
D800
5800
3C00
1000
1000
3000
3000
ENDCHAR
STARTCHAR uni0493
ENCODING 1171
SWIDTH 380 0
DWIDTH 4 0
BBX 6 5 0 0
BITMAP
70
10
E0
CC
70
ENDCHAR
STARTCHAR uni0494
ENCODING 1172
SWIDTH 884 0
DWIDTH 10 0
BBX 11 14 0 -5
BITMAP
3F80
5800
D800
5800
1780
1980
11A0
31E0
3180
0300
0700
0D00
0A00
0E00
ENDCHAR
STARTCHAR uni0495
ENCODING 1173
SWIDTH 441 0
DWIDTH 5 0
BBX 6 8 0 -3
BITMAP
70
10
60
C4
78
30
50
60
ENDCHAR
STARTCHAR uni0496
ENCODING 1174
SWIDTH 1234 0
DWIDTH 14 0
BBX 15 12 0 -3
BITMAP
399C
2994
0DB0
05E0
07C0
0D60
1B60
D332
731C
0038
0078
0070
ENDCHAR
STARTCHAR uni0497
ENCODING 1175
SWIDTH 803 0
DWIDTH 9 0
BBX 10 8 0 -3
BITMAP
6B00
5D00
1C00
EC40
EB80
0300
0500
0600
ENDCHAR
STARTCHAR uni0498
ENCODING 1176
SWIDTH 725 0
DWIDTH 8 0
BBX 7 12 1 -3
BITMAP
3C
44
C4
0C
3C
06
86
8C
78
38
50
70
ENDCHAR
STARTCHAR uni0499
ENCODING 1177
SWIDTH 445 0
DWIDTH 5 0
BBX 6 8 0 -3
BITMAP
70
58
20
94
78
30
50
60
ENDCHAR
STARTCHAR uni049A
ENCODING 1178
SWIDTH 937 0
DWIDTH 10 0
BBX 12 12 0 -3
BITMAP
3E60
4C40
4CC0
4D80
1E00
0B00
8900
D9F0
70C0
01C0
0280
0380
ENDCHAR
STARTCHAR uni049B
ENCODING 1179
SWIDTH 531 0
DWIDTH 6 0
BBX 6 8 1 -3
BITMAP
B0
F8
C0
C4
B8
30
50
60
ENDCHAR
STARTCHAR uni049C
ENCODING 1180
SWIDTH 937 0
DWIDTH 10 0
BBX 12 9 0 0
BITMAP
3E60
4C40
4EC0
4F80
1E00
0B00
8B10
DBB0
70E0
ENDCHAR
STARTCHAR uni049D
ENCODING 1181
SWIDTH 485 0
DWIDTH 5 0
BBX 6 5 1 0
BITMAP
B8
E8
E4
EC
B8
ENDCHAR
STARTCHAR uni049E
ENCODING 1182
SWIDTH 937 0
DWIDTH 10 0
BBX 12 9 0 0
BITMAP
3E60
4C40
5EC0
4D80
1E00
0B00
8910
D9B0
70E0
ENDCHAR
STARTCHAR uni049F
ENCODING 1183
SWIDTH 473 0
DWIDTH 5 0
BBX 6 9 1 0
BITMAP
40
40
F0
C0
B0
F8
C0
EC
B8
ENDCHAR
STARTCHAR uni04A0
ENCODING 1184
SWIDTH 937 0
DWIDTH 10 0
BBX 12 9 0 0
BITMAP
7C60
0C40
0CC0
0D80
1E00
0B00
8910
D9B0
70E0
ENDCHAR
STARTCHAR uni04A1
ENCODING 1185
SWIDTH 555 0
DWIDTH 6 0
BBX 8 5 0 0
BITMAP
EC
3E
30
33
2E
ENDCHAR
STARTCHAR uni04A2
ENCODING 1186
SWIDTH 907 0
DWIDTH 10 0
BBX 11 13 0 -3
BITMAP
00C0
71C0
9140
1140
1380
7F00
3300
3300
23E0
21C0
0180
0280
0780
ENDCHAR
STARTCHAR uni04A3
ENCODING 1187
SWIDTH 515 0
DWIDTH 6 0
BBX 6 8 1 -3
BITMAP
90
90
F0
A4
B8
30
70
E0
ENDCHAR
STARTCHAR uni04A4
ENCODING 1188
SWIDTH 873 0
DWIDTH 10 0
BBX 12 9 0 0
BITMAP
70F0
9180
1100
1300
7F00
3300
3320
2320
21C0
ENDCHAR
STARTCHAR uni04A5
ENCODING 1189
SWIDTH 475 0
DWIDTH 5 0
BBX 6 6 1 0
BITMAP
08
98
90
F0
AC
B8
ENDCHAR
STARTCHAR uni04A8
ENCODING 1192
SWIDTH 997 0
DWIDTH 11 0
BBX 11 9 1 0
BITMAP
3800
6780
CCC0
C8C0
98C0
98C0
C880
EF20
3FC0
ENDCHAR
STARTCHAR uni04A9
ENCODING 1193
SWIDTH 574 0
DWIDTH 6 0
BBX 8 5 0 0
BITMAP
6C
54
D5
DF
7C
ENDCHAR
STARTCHAR uni04AA
ENCODING 1194
SWIDTH 781 0
DWIDTH 9 0
BBX 9 14 1 -5
BITMAP
3C00
6600
C600
C400
8000
8000
C000
C780
7E00
0C00
1C00
1400
2800
1800
ENDCHAR
STARTCHAR uni04AB
ENCODING 1195
SWIDTH 431 0
DWIDTH 5 0
BBX 6 8 0 -3
BITMAP
70
50
C0
C4
78
30
50
60
ENDCHAR
STARTCHAR uni04AC
ENCODING 1196
SWIDTH 697 0
DWIDTH 8 0
BBX 10 12 0 -3
BITMAP
3FC0
4C00
CC00
4C00
0800
0800
0800
1800
1C00
1C00
2800
3800
ENDCHAR
STARTCHAR uni04AD
ENCODING 1197
SWIDTH 784 0
DWIDTH 9 0
BBX 9 8 1 -3
BITMAP
B600
FE00
F400
B480
B700
0600
0C00
1C00
ENDCHAR
STARTCHAR uni04AE
ENCODING 1198
SWIDTH 677 0
DWIDTH 7 0
BBX 6 9 2 0
BITMAP
8C
CC
D8
50
70
20
20
60
60
ENDCHAR
STARTCHAR uni04AF
ENCODING 1199
SWIDTH 472 0
DWIDTH 5 0
BBX 6 8 1 -3
BITMAP
B0
B0
BC
A0
C0
C0
C0
C0
ENDCHAR
STARTCHAR uni04B0
ENCODING 1200
SWIDTH 677 0
DWIDTH 7 0
BBX 6 9 2 0
BITMAP
8C
C8
D8
50
60
F0
20
60
60
ENDCHAR
STARTCHAR uni04B1
ENCODING 1201
SWIDTH 472 0
DWIDTH 5 0
BBX 7 8 0 -3
BITMAP
58
58
5E
50
60
F0
60
60
ENDCHAR
STARTCHAR uni04B2
ENCODING 1202
SWIDTH 716 0
DWIDTH 8 0
BBX 9 12 0 -3
BITMAP
7100
9B00
1E00
0C00
1800
3C00
6C00
4680
C700
0600
0A00
1E00
ENDCHAR
STARTCHAR uni04B3
ENCODING 1203
SWIDTH 601 0
DWIDTH 7 0
BBX 8 8 0 -3
BITMAP
6C
54
10
F1
FE
0C
18
38
ENDCHAR
STARTCHAR uni04B4
ENCODING 1204
SWIDTH 1040 0
DWIDTH 11 0
BBX 13 12 0 -3
BITMAP
3F60
4460
CC60
4C40
0840
08C0
18C0
1968
0E70
00E0
0160
01C0
ENDCHAR
STARTCHAR uni04B5
ENCODING 1205
SWIDTH 501 0
DWIDTH 6 0
BBX 6 10 1 -3
BITMAP
70
00
90
B0
A0
F4
F8
70
E0
E0
ENDCHAR
STARTCHAR uni04B6
ENCODING 1206
SWIDTH 804 0
DWIDTH 9 0
BBX 9 12 1 -3
BITMAP
4200
4200
4600
C600
CE00
7C00
0400
0780
0300
0E00
1A00
1C00
ENDCHAR
STARTCHAR uni04B7
ENCODING 1207
SWIDTH 631 0
DWIDTH 7 0
BBX 8 9 0 -3
BITMAP
20
3C
28
50
91
1E
0C
14
18
ENDCHAR
STARTCHAR uni04B8
ENCODING 1208
SWIDTH 773 0
DWIDTH 9 0
BBX 7 9 1 0
BITMAP
42
42
46
D6
D6
DE
74
24
04
ENDCHAR
STARTCHAR uni04B9
ENCODING 1209
SWIDTH 575 0
DWIDTH 6 0
BBX 8 6 0 0
BITMAP
38
3C
6C
51
93
1C
ENDCHAR
STARTCHAR uni04BA
ENCODING 1210
SWIDTH 755 0
DWIDTH 8 0
BBX 9 9 1 0
BITMAP
6000
4000
4000
4000
DC00
E600
C600
C580
8700
ENDCHAR
STARTCHAR uni04BB
ENCODING 1211
SWIDTH 502 0
DWIDTH 6 0
BBX 6 10 1 0
BITMAP
60
50
D0
A0
A0
F0
F0
D0
B4
B8
ENDCHAR
STARTCHAR uni04BC
ENCODING 1212
SWIDTH 808 0
DWIDTH 9 0
BBX 9 9 1 0
BITMAP
0E00
3300
2100
E100
FF00
6000
6000
3080
1F00
ENDCHAR
STARTCHAR uni04BD
ENCODING 1213
SWIDTH 483 0
DWIDTH 5 0
BBX 7 5 0 0
BITMAP
38
28
F8
66
3C
ENDCHAR
STARTCHAR uni04BE
ENCODING 1214
SWIDTH 808 0
DWIDTH 9 0
BBX 9 12 1 -3
BITMAP
0E00
3300
2100
E100
FF00
6000
6000
3080
1F00
1000
1000
1800
ENDCHAR
STARTCHAR uni04BF
ENCODING 1215
SWIDTH 483 0
DWIDTH 5 0
BBX 7 8 0 -3
BITMAP
38
28
F8
62
3C
10
10
1C
ENDCHAR
STARTCHAR uni04C0
ENCODING 1216
SWIDTH 495 0
DWIDTH 5 0
BBX 6 9 0 0
BITMAP
7C
10
10
30
30
30
20
20
F8
ENDCHAR
STARTCHAR uni04C1
ENCODING 1217
SWIDTH 1234 0
DWIDTH 14 0
BBX 15 13 0 0
BITMAP
0020
0360
01C0
0000
399C
2994
0DB0
05E0
07C0
0D60
1B60
D336
731C
ENDCHAR
STARTCHAR uni04C2
ENCODING 1218
SWIDTH 717 0
DWIDTH 8 0
BBX 9 8 0 0
BITMAP
1200
1C00
0000
6B00
5D00
1C00
EC80
EB00
ENDCHAR
STARTCHAR uni04C3
ENCODING 1219
SWIDTH 937 0
DWIDTH 10 0
BBX 12 12 0 -3
BITMAP
3E60
4C40
4CC0
4D80
1E00
0B00
8900
D9F0
70C0
01C0
0280
0380
ENDCHAR
STARTCHAR uni04C4
ENCODING 1220
SWIDTH 531 0
DWIDTH 6 0
BBX 6 8 1 -3
BITMAP
B0
F8
C0
C4
B8
30
50
60
ENDCHAR
STARTCHAR uni04C5
ENCODING 1221
SWIDTH 861 0
DWIDTH 9 0
BBX 11 11 0 -2
BITMAP
0300
0300
0700
0700
0700
0F00
0B00
D920
71C0
0080
0100
ENDCHAR
STARTCHAR uni04C6
ENCODING 1222
SWIDTH 549 0
DWIDTH 6 0
BBX 7 7 0 -2
BITMAP
18
18
BA
AA
CC
0C
08
ENDCHAR
STARTCHAR uni04C7
ENCODING 1223
SWIDTH 907 0
DWIDTH 10 0
BBX 11 13 0 -3
BITMAP
00C0
71C0
9140
1140
1380
7F00
3300
3300
23E0
21C0
0180
0280
0780
ENDCHAR
STARTCHAR uni04C8
ENCODING 1224
SWIDTH 515 0
DWIDTH 6 0
BBX 6 8 1 -3
BITMAP
90
90
F0
A4
B8
30
70
E0
ENDCHAR
STARTCHAR uni04C9
ENCODING 1225
SWIDTH 873 0
DWIDTH 10 0
BBX 11 12 0 -2
BITMAP
00C0
71C0
9140
1140
1380
7F00
3300
3320
2360
21C0
0080
0180
ENDCHAR
STARTCHAR uni04CA
ENCODING 1226
SWIDTH 475 0
DWIDTH 5 0
BBX 6 7 1 -2
BITMAP
90
90
F0
AC
B8
30
20
ENDCHAR
STARTCHAR uni04CB
ENCODING 1227
SWIDTH 773 0
DWIDTH 9 0
BBX 7 12 1 -3
BITMAP
42
42
46
C6
CE
7E
04
04
0C
38
58
70
ENDCHAR
STARTCHAR uni04CC
ENCODING 1228
SWIDTH 555 0
DWIDTH 6 0
BBX 8 7 0 -1
BITMAP
30
3C
68
51
92
1C
04
ENDCHAR
STARTCHAR uni04CD
ENCODING 1229
SWIDTH 1133 0
DWIDTH 12 0
BBX 14 11 0 -2
BITMAP
0660
0660
0EE0
0AA0
0EE0
0BE0
1B60
9324
6238
0030
0020
ENDCHAR
STARTCHAR uni04CE
ENCODING 1230
SWIDTH 734 0
DWIDTH 8 0
BBX 10 7 0 -2
BITMAP
1A00
1E00
AE00
AAC0
CB80
0300
0200
ENDCHAR
STARTCHAR uni04CF
ENCODING 1231
SWIDTH 222 0
DWIDTH 2 0
BBX 3 9 0 0
BITMAP
20
20
60
60
40
40
40
C0
C0
ENDCHAR
STARTCHAR uni04D0
ENCODING 1232
SWIDTH 786 0
DWIDTH 9 0
BBX 9 13 1 0
BITMAP
0100
0900
0E00
0000
1F00
3100
4600
C600
8600
8400
8C00
DC80
7700
ENDCHAR
STARTCHAR uni04D1
ENCODING 1233
SWIDTH 470 0
DWIDTH 5 0
BBX 7 8 0 0
BITMAP
48
38
00
38
78
D0
D6
6C
ENDCHAR
STARTCHAR uni04D2
ENCODING 1234
SWIDTH 786 0
DWIDTH 9 0
BBX 9 11 1 0
BITMAP
0B00
0000
1F00
3100
4600
C600
8600
8400
8C00
DC80
7700
ENDCHAR
STARTCHAR uni04D3
ENCODING 1235
SWIDTH 470 0
DWIDTH 5 0
BBX 7 7 0 0
BITMAP
28
00
38
78
D0
D6
6C
ENDCHAR
STARTCHAR uni04D4
ENCODING 1236
SWIDTH 1015 0
DWIDTH 11 0
BBX 12 9 1 0
BITMAP
1FE0
7200
4200
C600
87C0
8400
8C00
CE30
73E0
ENDCHAR
STARTCHAR uni04D5
ENCODING 1237
SWIDTH 653 0
DWIDTH 7 0
BBX 9 5 0 0
BITMAP
3E00
6A00
DE00
D980
6E00
ENDCHAR
STARTCHAR uni04D6
ENCODING 1238
SWIDTH 686 0
DWIDTH 8 0
BBX 9 13 0 0
BITMAP
0100
1A00
0E00
0000
1E00
3300
6300
2200
1800
6000
C000
E180
3F00
ENDCHAR
STARTCHAR uni04D7
ENCODING 1239
SWIDTH 393 0
DWIDTH 4 0
BBX 6 8 0 0
BITMAP
48
70
00
70
50
F0
CC
78
ENDCHAR
STARTCHAR uni04D8
ENCODING 1240
SWIDTH 792 0
DWIDTH 9 0
BBX 8 9 1 0
BITMAP
3C
C6
02
03
FE
82
86
CC
78
ENDCHAR
STARTCHAR uni04D9
ENCODING 1241
SWIDTH 455 0
DWIDTH 5 0
BBX 6 5 0 0
BITMAP
70
18
FC
98
70
ENDCHAR
STARTCHAR uni04DA
ENCODING 1242
SWIDTH 792 0
DWIDTH 9 0
BBX 8 11 1 0
BITMAP
3C
00
3C
C6
02
03
FE
82
86
CC
78
ENDCHAR
STARTCHAR uni04DB
ENCODING 1243
SWIDTH 455 0
DWIDTH 5 0
BBX 6 7 0 0
BITMAP
78
00
70
18
FC
98
70
ENDCHAR
STARTCHAR uni04DC
ENCODING 1244
SWIDTH 1234 0
DWIDTH 14 0
BBX 15 11 0 0
BITMAP
0340
0000
399C
2994
0DB0
05E0
07C0
0D60
1B60
D336
731C
ENDCHAR
STARTCHAR uni04DD
ENCODING 1245
SWIDTH 717 0
DWIDTH 8 0
BBX 9 7 0 0
BITMAP
1E00
0000
6B00
5D00
1C00
EC80
EB00
ENDCHAR
STARTCHAR uni04DE
ENCODING 1246
SWIDTH 725 0
DWIDTH 8 0
BBX 7 11 1 0
BITMAP
3C
00
3C
44
C4
0C
3C
06
86
8C
78
ENDCHAR
STARTCHAR uni04DF
ENCODING 1247
SWIDTH 435 0
DWIDTH 5 0
BBX 6 12 0 -5
BITMAP
58
00
70
50
10
6C
78
30
F0
A0
E0
C0
ENDCHAR
STARTCHAR uni04E0
ENCODING 1248
SWIDTH 744 0
DWIDTH 8 0
BBX 7 9 1 0
BITMAP
7E
C6
44
0C
3C
06
86
8C
78
ENDCHAR
STARTCHAR uni04E1
ENCODING 1249
SWIDTH 435 0
DWIDTH 5 0
BBX 6 10 0 -5
BITMAP
78
30
60
4C
70
70
E0
A0
E0
C0
ENDCHAR
STARTCHAR uni04E2
ENCODING 1250
SWIDTH 890 0
DWIDTH 10 0
BBX 11 11 0 0
BITMAP
0F00
0000
7080
D080
9180
3180
3180
3300
2300
35A0
39C0
ENDCHAR
STARTCHAR uni04E3
ENCODING 1251
SWIDTH 462 0
DWIDTH 5 0
BBX 6 7 1 0
BITMAP
F0
00
90
B0
A0
EC
F0
ENDCHAR
STARTCHAR uni04E4
ENCODING 1252
SWIDTH 890 0
DWIDTH 10 0
BBX 11 11 0 0
BITMAP
0F00
0000
7080
D080
9180
3180
3180
3300
2300
35A0
39C0
ENDCHAR
STARTCHAR uni04E5
ENCODING 1253
SWIDTH 462 0
DWIDTH 5 0
BBX 6 7 1 0
BITMAP
D0
00
90
B0
A0
EC
F0
ENDCHAR
STARTCHAR uni04E6
ENCODING 1254
SWIDTH 816 0
DWIDTH 9 0
BBX 8 11 1 0
BITMAP
14
00
3C
66
C3
C3
83
83
C2
C4
78
ENDCHAR
STARTCHAR uni04E7
ENCODING 1255
SWIDTH 451 0
DWIDTH 5 0
BBX 6 7 0 0
BITMAP
78
00
70
58
DC
D8
70
ENDCHAR
STARTCHAR uni04E8
ENCODING 1256
SWIDTH 816 0
DWIDTH 9 0
BBX 8 9 1 0
BITMAP
3C
66
C3
C3
FF
83
82
C4
78
ENDCHAR
STARTCHAR uni04E9
ENCODING 1257
SWIDTH 451 0
DWIDTH 5 0
BBX 6 5 0 0
BITMAP
70
58
FC
D8
70
ENDCHAR
STARTCHAR uni04EA
ENCODING 1258
SWIDTH 816 0
DWIDTH 9 0
BBX 8 11 1 0
BITMAP
14
00
3C
66
C3
C3
FF
83
82
C4
78
ENDCHAR
STARTCHAR uni04EB
ENCODING 1259
SWIDTH 451 0
DWIDTH 5 0
BBX 6 7 0 0
BITMAP
78
00
70
58
FC
D8
70
ENDCHAR
STARTCHAR uni04EC
ENCODING 1260
SWIDTH 755 0
DWIDTH 8 0
BBX 8 11 0 0
BITMAP
1E
00
3C
63
03
03
3F
03
43
C6
7C
ENDCHAR
STARTCHAR uni04ED
ENCODING 1261
SWIDTH 466 0
DWIDTH 5 0
BBX 7 7 0 0
BITMAP
68
00
70
18
3E
D8
70
ENDCHAR
STARTCHAR uni04EE
ENCODING 1262
SWIDTH 824 0
DWIDTH 9 0
BBX 11 14 0 -3
BITMAP
0F00
0000
7080
D180
1180
3180
3380
1D00
01E0
0700
1D00
1300
1200
1C00
ENDCHAR
STARTCHAR uni04EF
ENCODING 1263
SWIDTH 479 0
DWIDTH 5 0
BBX 6 12 0 -5
BITMAP
78
00
48
58
50
74
78
30
50
A0
A0
C0
ENDCHAR
STARTCHAR uni04F0
ENCODING 1264
SWIDTH 824 0
DWIDTH 9 0
BBX 11 14 0 -3
BITMAP
0F00
0000
7080
D180
1180
3180
3380
1D00
01E0
0700
1D00
1300
1200
1C00
ENDCHAR
STARTCHAR uni04F1
ENCODING 1265
SWIDTH 479 0
DWIDTH 5 0
BBX 6 12 0 -5
BITMAP
68
00
48
58
50
74
78
30
50
A0
A0
C0
ENDCHAR
STARTCHAR uni04F2
ENCODING 1266
SWIDTH 824 0
DWIDTH 9 0
BBX 11 16 0 -3
BITMAP
0500
0500
0A00
0000
7080
D180
1180
3180
3380
1D00
01E0
0700
1D00
1300
1200
1C00
ENDCHAR
STARTCHAR uni04F3
ENCODING 1267
SWIDTH 479 0
DWIDTH 5 0
BBX 6 15 0 -5
BITMAP
14
3C
28
28
00
48
58
50
74
78
30
50
A0
A0
C0
ENDCHAR
STARTCHAR uni04F4
ENCODING 1268
SWIDTH 773 0
DWIDTH 9 0
BBX 7 11 1 0
BITMAP
3C
00
42
42
46
C6
CE
7E
04
04
04
ENDCHAR
STARTCHAR uni04F5
ENCODING 1269
SWIDTH 555 0
DWIDTH 6 0
BBX 8 7 0 0
BITMAP
1E
30
3C
68
51
92
1C
ENDCHAR
STARTCHAR uni04F6
ENCODING 1270
SWIDTH 600 0
DWIDTH 7 0
BBX 9 12 0 -3
BITMAP
3F80
5800
D800
5800
1000
1000
1000
3000
3800
2800
5000
7000
ENDCHAR
STARTCHAR uni04F7
ENCODING 1271
SWIDTH 441 0
DWIDTH 5 0
BBX 6 8 0 -3
BITMAP
70
10
60
C4
78
30
50
60
ENDCHAR
STARTCHAR uni04F8
ENCODING 1272
SWIDTH 1078 0
DWIDTH 12 0
BBX 12 11 0 0
BITMAP
0780
0000
3030
2020
2020
7E20
E360
6360
6360
6640
3C40
ENDCHAR
STARTCHAR uni04F9
ENCODING 1273
SWIDTH 702 0
DWIDTH 8 0
BBX 8 7 1 0
BITMAP
2C
00
84
FC
9D
B5
E6
ENDCHAR
STARTCHAR uni04FA
ENCODING 1274
SWIDTH 635 0
DWIDTH 7 0
BBX 10 13 -1 -4
BITMAP
1FC0
2C00
6C00
2C00
1E00
0800
0800
1800
1800
1800
1000
D000
E000
ENDCHAR
STARTCHAR uni04FB
ENCODING 1275
SWIDTH 441 0
DWIDTH 5 0
BBX 6 8 0 -3
BITMAP
70
10
E0
C4
78
30
50
60
ENDCHAR
STARTCHAR uni04FC
ENCODING 1276
SWIDTH 716 0
DWIDTH 8 0
BBX 9 12 0 -3
BITMAP
7100
9B00
1E00
0C00
1800
3C00
6C00
4680
C700
0600
0A00
1E00
ENDCHAR
STARTCHAR uni04FD
ENCODING 1277
SWIDTH 601 0
DWIDTH 7 0
BBX 8 8 0 -3
BITMAP
6C
54
10
F1
FE
0C
18
38
ENDCHAR
STARTCHAR uni04FE
ENCODING 1278
SWIDTH 712 0
DWIDTH 8 0
BBX 9 9 0 0
BITMAP
7100
9B00
1E00
0C00
3E00
1C00
3C00
6480
C700
ENDCHAR
STARTCHAR uni04FF
ENCODING 1279
SWIDTH 529 0
DWIDTH 6 0
BBX 7 5 0 0
BITMAP
6C
54
38
F2
FC
ENDCHAR
STARTCHAR uni0510
ENCODING 1296
SWIDTH 706 0
DWIDTH 8 0
BBX 6 9 1 0
BITMAP
3C
44
44
40
78
80
84
CC
78
ENDCHAR
STARTCHAR uni0511
ENCODING 1297
SWIDTH 392 0
DWIDTH 4 0
BBX 6 5 0 0
BITMAP
70
50
60
CC
70
ENDCHAR
STARTCHAR uni0512
ENCODING 1298
SWIDTH 884 0
DWIDTH 10 0
BBX 11 12 0 -3
BITMAP
0300
0300
0700
0700
0700
0F00
0B00
D920
71C0
0380
0680
0700
ENDCHAR
STARTCHAR uni0513
ENCODING 1299
SWIDTH 631 0
DWIDTH 7 0
BBX 8 8 0 -3
BITMAP
18
18
B8
A9
CE
0C
14
18
ENDCHAR
STARTCHAR uni051A
ENCODING 1306
SWIDTH 816 0
DWIDTH 9 0
BBX 9 12 1 -3
BITMAP
3C00
6600
C300
C300
8300
8300
C600
EC00
3800
1800
0C80
0700
ENDCHAR
STARTCHAR uni051B
ENCODING 1307
SWIDTH 500 0
DWIDTH 6 0
BBX 7 10 0 -4
BITMAP
08
38
78
D8
D6
74
14
34
18
18
ENDCHAR
STARTCHAR uni051C
ENCODING 1308
SWIDTH 1217 0
DWIDTH 13 0
BBX 14 9 1 0
BITMAP
4230
4258
C658
C670
C63C
CE20
4A60
7BC0
7180
ENDCHAR
STARTCHAR uni051D
ENCODING 1309
SWIDTH 700 0
DWIDTH 8 0
BBX 8 5 1 0
BITMAP
B6
B6
B7
D8
D8
ENDCHAR
STARTCHAR uni0524
ENCODING 1316
SWIDTH 892 0
DWIDTH 10 0
BBX 11 12 0 -3
BITMAP
3FE0
4880
D880
5980
1980
1100
1100
11E0
30C0
0380
0680
0700
ENDCHAR
STARTCHAR uni0525
ENCODING 1317
SWIDTH 536 0
DWIDTH 6 0
BBX 6 8 1 -3
BITMAP
B0
F0
F0
B4
98
30
50
60
ENDCHAR
STARTCHAR uni0526
ENCODING 1318
SWIDTH 818 0
DWIDTH 9 0
BBX 9 12 1 -3
BITMAP
6000
6000
4000
4000
DC00
E600
C600
C780
8780
0600
0A00
0E00
ENDCHAR
STARTCHAR uni0527
ENCODING 1319
SWIDTH 542 0
DWIDTH 6 0
BBX 6 13 1 -3
BITMAP
20
50
D0
A0
A0
F0
F0
D0
B4
98
30
50
60
ENDCHAR
STARTCHAR uni0528
ENCODING 1320
SWIDTH 873 0
DWIDTH 10 0
BBX 12 13 -1 -3
BITMAP
0060
38E0
48A0
08A0
09C0
3F80
1980
1990
1190
10E0
3000
B000
E000
ENDCHAR
STARTCHAR uni0529
ENCODING 1321
SWIDTH 475 0
DWIDTH 5 0
BBX 8 8 -1 -3
BITMAP
24
24
3C
2B
2E
20
A0
E0
ENDCHAR
STARTCHAR uni052E
ENCODING 1326
SWIDTH 884 0
DWIDTH 10 0
BBX 11 12 0 -3
BITMAP
0300
0300
0700
0700
0700
0F00
0B00
D920
71C0
0380
0680
0700
ENDCHAR
STARTCHAR uni052F
ENCODING 1327
SWIDTH 631 0
DWIDTH 7 0
BBX 8 8 0 -3
BITMAP
18
18
B8
A9
CE
0C
14
18
ENDCHAR
STARTCHAR Wgrave
ENCODING 7808
SWIDTH 1217 0
DWIDTH 13 0
BBX 14 13 1 0
BITMAP
0800
0C00
0200
0000
4230
4258
C658
C670
C63C
CE20
4A60
7BC0
7180
ENDCHAR
STARTCHAR wgrave
ENCODING 7809
SWIDTH 700 0
DWIDTH 8 0
BBX 8 10 1 0
BITMAP
40
60
20
10
00
B6
B6
B7
D8
D8
ENDCHAR
STARTCHAR Wacute
ENCODING 7810
SWIDTH 1217 0
DWIDTH 13 0
BBX 14 13 1 0
BITMAP
0080
01C0
0300
0000
4230
4258
C658
C670
C63C
CE20
4A60
7BC0
7180
ENDCHAR
STARTCHAR wacute
ENCODING 7811
SWIDTH 700 0
DWIDTH 8 0
BBX 8 9 1 0
BITMAP
08
18
10
00
B6
B6
B7
D8
D8
ENDCHAR
STARTCHAR Wdieresis
ENCODING 7812
SWIDTH 1217 0
DWIDTH 13 0
BBX 14 11 1 0
BITMAP
0780
0000
4230
4258
C658
C670
C63C
CE20
4A60
7BC0
7180
ENDCHAR
STARTCHAR wdieresis
ENCODING 7813
SWIDTH 700 0
DWIDTH 8 0
BBX 8 7 1 0
BITMAP
68
00
B6
B6
B7
D8
D8
ENDCHAR
STARTCHAR uni1E9E
ENCODING 7838
SWIDTH 843 0
DWIDTH 9 0
BBX 8 9 1 0
BITMAP
6E
53
63
E6
CE
C3
C3
C2
9E
ENDCHAR
STARTCHAR uni1EA0
ENCODING 7840
SWIDTH 786 0
DWIDTH 9 0
BBX 9 11 1 -2
BITMAP
1F00
3100
4600
C600
8600
8400
8C00
DC80
7700
0000
3000
ENDCHAR
STARTCHAR uni1EA1
ENCODING 7841
SWIDTH 470 0
DWIDTH 5 0
BBX 7 7 0 -2
BITMAP
38
78
D0
D6
6C
00
60
ENDCHAR
STARTCHAR uni1EA2
ENCODING 7842
SWIDTH 786 0
DWIDTH 9 0
BBX 9 13 1 0
BITMAP
0600
0200
0600
0000
1F00
3100
4600
C600
8600
8400
8C00
DC80
7700
ENDCHAR
STARTCHAR uni1EA3
ENCODING 7843
SWIDTH 470 0
DWIDTH 5 0
BBX 7 9 0 0
BITMAP
38
08
18
00
38
78
D0
D6
6C
ENDCHAR
STARTCHAR uni1EA4
ENCODING 7844
SWIDTH 786 0
DWIDTH 9 0
BBX 9 17 1 0
BITMAP
0080
0180
0200
0000
0600
0E00
0B00
0000
1F00
3100
4600
C600
8600
8400
8C00
DC80
7700
ENDCHAR
STARTCHAR uni1EA5
ENCODING 7845
SWIDTH 470 0
DWIDTH 5 0
BBX 7 10 0 0
BITMAP
02
06
18
28
00
38
78
D0
D6
6C
ENDCHAR
STARTCHAR uni1EA6
ENCODING 7846
SWIDTH 786 0
DWIDTH 9 0
BBX 9 17 1 0
BITMAP
1000
1800
0400
0000
0600
0E00
0B00
0000
1F00
3100
4600
C600
8600
8400
8C00
DC80
7700
ENDCHAR
STARTCHAR uni1EA7
ENCODING 7847
SWIDTH 470 0
DWIDTH 5 0
BBX 7 10 0 0
BITMAP
40
60
18
28
00
38
78
D0
D6
6C
ENDCHAR
STARTCHAR uni1EA8
ENCODING 7848
SWIDTH 786 0
DWIDTH 9 0
BBX 9 17 1 0
BITMAP
0600
0100
0600
0000
0600
0E00
0B00
0000
1F00
3100
4600
C600
8600
8400
8C00
DC80
7700
ENDCHAR
STARTCHAR uni1EA9
ENCODING 7849
SWIDTH 470 0
DWIDTH 5 0
BBX 7 9 0 0
BITMAP
06
02
1E
28
38
78
D0
D6
6C
ENDCHAR
STARTCHAR uni1EAA
ENCODING 7850
SWIDTH 786 0
DWIDTH 9 0
BBX 9 16 1 0
BITMAP
0D80
0B00
0000
0600
0E00
0B00
0000
1F00
3100
4600
C600
8600
8400
8C00
DC80
7700
ENDCHAR
STARTCHAR uni1EAB
ENCODING 7851
SWIDTH 470 0
DWIDTH 5 0
BBX 7 10 0 0
BITMAP
34
28
38
28
00
38
78
D0
D6
6C
ENDCHAR
STARTCHAR uni1EAC
ENCODING 7852
SWIDTH 786 0
DWIDTH 9 0
BBX 9 15 1 -2
BITMAP
0600
0E00
0B00
0000
1F00
3100
4600
C600
8600
8400
8C00
DC80
7700
0000
3000
ENDCHAR
STARTCHAR uni1EAD
ENCODING 7853
SWIDTH 470 0
DWIDTH 5 0
BBX 7 12 0 -2
BITMAP
10
18
28
28
00
38
78
D0
D6
6C
00
60
ENDCHAR
STARTCHAR uni1EAE
ENCODING 7854
SWIDTH 786 0
DWIDTH 9 0
BBX 9 13 1 0
BITMAP
0300
1D00
0F00
0000
1F00
3100
4600
C600
8600
8400
8C00
DC80
7700
ENDCHAR
STARTCHAR uni1EAF
ENCODING 7855
SWIDTH 470 0
DWIDTH 5 0
BBX 7 9 0 0
BITMAP
08
54
38
00
38
78
D0
D6
6C
ENDCHAR
STARTCHAR uni1EB0
ENCODING 7856
SWIDTH 786 0
DWIDTH 9 0
BBX 9 13 1 0
BITMAP
0C00
1900
0F00
0000
1F00
3100
4600
C600
8600
8400
8C00
DC80
7700
ENDCHAR
STARTCHAR uni1EB1
ENCODING 7857
SWIDTH 470 0
DWIDTH 5 0
BBX 7 9 0 0
BITMAP
30
44
38
00
38
78
D0
D6
6C
ENDCHAR
STARTCHAR uni1EB2
ENCODING 7858
SWIDTH 786 0
DWIDTH 9 0
BBX 9 14 1 0
BITMAP
0600
0600
1900
0E00
0000
1F00
3100
4600
C600
8600
8400
8C00
DC80
7700
ENDCHAR
STARTCHAR uni1EB3
ENCODING 7859
SWIDTH 470 0
DWIDTH 5 0
BBX 7 10 0 0
BITMAP
18
18
64
38
00
38
78
D0
D6
6C
ENDCHAR
STARTCHAR uni1EB4
ENCODING 7860
SWIDTH 786 0
DWIDTH 9 0
BBX 9 14 1 0
BITMAP
0D00
0A00
1900
0E00
0000
1F00
3100
4600
C600
8600
8400
8C00
DC80
7700
ENDCHAR
STARTCHAR uni1EB5
ENCODING 7861
SWIDTH 470 0
DWIDTH 5 0
BBX 7 10 0 0
BITMAP
34
28
44
38
00
38
78
D0
D6
6C
ENDCHAR
STARTCHAR uni1EB6
ENCODING 7862
SWIDTH 786 0
DWIDTH 9 0
BBX 9 14 1 -2
BITMAP
1900
0F00
0000
1F00
3100
4600
C600
8600
8400
8C00
DC80
7700
0000
3000
ENDCHAR
STARTCHAR uni1EB7
ENCODING 7863
SWIDTH 470 0
DWIDTH 5 0
BBX 7 10 0 -2
BITMAP
6C
38
00
38
78
D0
D6
6C
00
60
ENDCHAR
STARTCHAR uni1EB8
ENCODING 7864
SWIDTH 686 0
DWIDTH 8 0
BBX 9 11 0 -2
BITMAP
1E00
3300
6300
2200
1800
6000
C000
E180
3F00
0000
1800
ENDCHAR
STARTCHAR uni1EB9
ENCODING 7865
SWIDTH 393 0
DWIDTH 4 0
BBX 6 7 0 -2
BITMAP
70
50
F0
CC
78
00
60
ENDCHAR
STARTCHAR uni1EBA
ENCODING 7866
SWIDTH 686 0
DWIDTH 8 0
BBX 9 13 0 0
BITMAP
0E00
0200
0600
0000
1E00
3300
6300
2200
1800
6000
C000
E180
3F00
ENDCHAR
STARTCHAR uni1EBB
ENCODING 7867
SWIDTH 393 0
DWIDTH 4 0
BBX 6 9 0 0
BITMAP
30
08
30
00
70
50
F0
CC
78
ENDCHAR
STARTCHAR uni1EBC
ENCODING 7868
SWIDTH 686 0
DWIDTH 8 0
BBX 9 12 0 0
BITMAP
1900
1600
0000
1E00
3300
6300
2200
1800
6000
C000
E180
3F00
ENDCHAR
STARTCHAR uni1EBD
ENCODING 7869
SWIDTH 393 0
DWIDTH 4 0
BBX 6 8 0 0
BITMAP
68
58
00
70
50
F0
CC
78
ENDCHAR
STARTCHAR uni1EBE
ENCODING 7870
SWIDTH 686 0
DWIDTH 8 0
BBX 9 14 0 0
BITMAP
0080
0100
0E00
1A00
0000
1E00
3300
6300
2200
1800
6000
C000
E180
3F00
ENDCHAR
STARTCHAR uni1EBF
ENCODING 7871
SWIDTH 393 0
DWIDTH 4 0
BBX 6 10 0 0
BITMAP
04
0C
30
48
00
70
50
F0
CC
78
ENDCHAR
STARTCHAR uni1EC0
ENCODING 7872
SWIDTH 686 0
DWIDTH 8 0
BBX 9 14 0 0
BITMAP
2000
1000
0E00
1A00
0000
1E00
3300
6300
2200
1800
6000
C000
E180
3F00
ENDCHAR
STARTCHAR uni1EC1
ENCODING 7873
SWIDTH 393 0
DWIDTH 4 0
BBX 6 10 0 0
BITMAP
80
C0
30
48
00
70
50
F0
CC
78
ENDCHAR
STARTCHAR uni1EC2
ENCODING 7874
SWIDTH 686 0
DWIDTH 8 0
BBX 9 13 0 0
BITMAP
0180
0080
0D00
0A00
1E00
3300
6300
2200
1800
6000
C000
E180
3F00
ENDCHAR
STARTCHAR uni1EC3
ENCODING 7875
SWIDTH 393 0
DWIDTH 4 0
BBX 6 9 0 0
BITMAP
0C
04
34
78
70
50
F0
CC
78
ENDCHAR
STARTCHAR uni1EC4
ENCODING 7876
SWIDTH 686 0
DWIDTH 8 0
BBX 9 14 0 0
BITMAP
0D00
1200
0E00
1A00
0000
1E00
3300
6300
2200
1800
6000
C000
E180
3F00
ENDCHAR
STARTCHAR uni1EC5
ENCODING 7877
SWIDTH 393 0
DWIDTH 4 0
BBX 6 10 0 0
BITMAP
38
48
30
48
00
70
50
F0
CC
78
ENDCHAR
STARTCHAR uni1EC6
ENCODING 7878
SWIDTH 686 0
DWIDTH 8 0
BBX 9 15 0 -2
BITMAP
0400
0A00
1A00
0000
1E00
3300
6300
2200
1800
6000
C000
E180
3F00
0000
1800
ENDCHAR
STARTCHAR uni1EC7
ENCODING 7879
SWIDTH 393 0
DWIDTH 4 0
BBX 6 12 0 -2
BITMAP
10
30
38
48
00
70
50
F0
CC
78
00
60
ENDCHAR
STARTCHAR uni1EC8
ENCODING 7880
SWIDTH 495 0
DWIDTH 5 0
BBX 6 13 0 0
BITMAP
18
08
18
00
7C
10
10
30
30
30
20
20
F8
ENDCHAR
STARTCHAR uni1EC9
ENCODING 7881
SWIDTH 246 0
DWIDTH 3 0
BBX 3 9 1 0
BITMAP
C0
40
C0
00
80
80
80
A0
C0
ENDCHAR
STARTCHAR uni1ECA
ENCODING 7882
SWIDTH 495 0
DWIDTH 5 0
BBX 6 11 0 -2
BITMAP
7C
10
10
30
30
30
20
20
F8
00
60
ENDCHAR
STARTCHAR uni1ECB
ENCODING 7883
SWIDTH 246 0
DWIDTH 3 0
BBX 4 9 0 -2
BITMAP
60
00
40
40
40
50
60
00
C0
ENDCHAR
STARTCHAR uni1ECC
ENCODING 7884
SWIDTH 816 0
DWIDTH 9 0
BBX 8 11 1 -2
BITMAP
3C
66
C3
C3
83
83
C2
C4
78
00
30
ENDCHAR
STARTCHAR uni1ECD
ENCODING 7885
SWIDTH 451 0
DWIDTH 5 0
BBX 6 7 0 -2
BITMAP
70
58
DC
D8
70
00
60
ENDCHAR
STARTCHAR uni1ECE
ENCODING 7886
SWIDTH 816 0
DWIDTH 9 0
BBX 8 13 1 0
BITMAP
1C
04
0C
00
3C
66
C3
C3
83
83
C2
C4
78
ENDCHAR
STARTCHAR uni1ECF
ENCODING 7887
SWIDTH 451 0
DWIDTH 5 0
BBX 6 9 0 0
BITMAP
30
08
30
00
70
58
DC
D8
70
ENDCHAR
STARTCHAR uni1ED0
ENCODING 7888
SWIDTH 816 0
DWIDTH 9 0
BBX 8 14 1 0
BITMAP
01
03
0C
14
00
3C
66
C3
C3
83
83
C2
C4
78
ENDCHAR
STARTCHAR uni1ED1
ENCODING 7889
SWIDTH 451 0
DWIDTH 5 0
BBX 6 10 0 0
BITMAP
04
0C
30
48
00
70
58
DC
D8
70
ENDCHAR
STARTCHAR uni1ED2
ENCODING 7890
SWIDTH 816 0
DWIDTH 9 0
BBX 8 14 1 0
BITMAP
20
30
0C
14
00
3C
66
C3
C3
83
83
C2
C4
78
ENDCHAR
STARTCHAR uni1ED3
ENCODING 7891
SWIDTH 451 0
DWIDTH 5 0
BBX 6 10 0 0
BITMAP
80
C0
30
48
00
70
58
DC
D8
70
ENDCHAR
STARTCHAR uni1ED4
ENCODING 7892
SWIDTH 816 0
DWIDTH 9 0
BBX 8 13 1 0
BITMAP
03
01
0F
14
3C
66
C3
C3
83
83
C2
C4
78
ENDCHAR
STARTCHAR uni1ED5
ENCODING 7893
SWIDTH 451 0
DWIDTH 5 0
BBX 6 9 0 0
BITMAP
0C
04
34
78
70
58
DC
D8
70
ENDCHAR
STARTCHAR uni1ED6
ENCODING 7894
SWIDTH 816 0
DWIDTH 9 0
BBX 8 14 1 0
BITMAP
1A
14
1C
14
00
3C
66
C3
C3
83
83
C2
C4
78
ENDCHAR
STARTCHAR uni1ED7
ENCODING 7895
SWIDTH 451 0
DWIDTH 5 0
BBX 6 10 0 0
BITMAP
38
48
30
48
00
70
58
DC
D8
70
ENDCHAR
STARTCHAR uni1ED8
ENCODING 7896
SWIDTH 816 0
DWIDTH 9 0
BBX 8 15 1 -2
BITMAP
0C
14
34
00
3C
66
C3
C3
83
83
C2
C4
78
00
30
ENDCHAR
STARTCHAR uni1ED9
ENCODING 7897
SWIDTH 451 0
DWIDTH 5 0
BBX 6 12 0 -2
BITMAP
10
30
38
48
00
70
58
DC
D8
70
00
60
ENDCHAR
STARTCHAR uni1EDA
ENCODING 7898
SWIDTH 816 0
DWIDTH 9 0
BBX 8 13 1 0
BITMAP
02
06
0D
01
3F
66
C3
C3
83
83
C2
C4
78
ENDCHAR
STARTCHAR uni1EDB
ENCODING 7899
SWIDTH 451 0
DWIDTH 5 0
BBX 6 9 0 0
BITMAP
18
10
28
0C
78
58
DC
D8
70
ENDCHAR
STARTCHAR uni1EDC
ENCODING 7900
SWIDTH 816 0
DWIDTH 9 0
BBX 8 13 1 0
BITMAP
20
70
19
01
3F
66
C3
C3
83
83
C2
C4
78
ENDCHAR
STARTCHAR uni1EDD
ENCODING 7901
SWIDTH 451 0
DWIDTH 5 0
BBX 6 10 0 0
BITMAP
40
40
60
28
0C
78
58
DC
D8
70
ENDCHAR
STARTCHAR uni1EDE
ENCODING 7902
SWIDTH 816 0
DWIDTH 9 0
BBX 8 13 1 0
BITMAP
1C
04
0D
01
3F
66
C3
C3
83
83
C2
C4
78
ENDCHAR
STARTCHAR uni1EDF
ENCODING 7903
SWIDTH 451 0
DWIDTH 5 0
BBX 6 9 0 0
BITMAP
30
10
38
0C
78
58
DC
D8
70
ENDCHAR
STARTCHAR uni1EE0
ENCODING 7904
SWIDTH 816 0
DWIDTH 9 0
BBX 8 12 1 0
BITMAP
1A
2D
01
3F
66
C3
C3
83
83
C2
C4
78
ENDCHAR
STARTCHAR uni1EE1
ENCODING 7905
SWIDTH 451 0
DWIDTH 5 0
BBX 6 8 0 0
BITMAP
68
58
0C
78
58
DC
D8
70
ENDCHAR
STARTCHAR uni1EE2
ENCODING 7906
SWIDTH 816 0
DWIDTH 9 0
BBX 8 13 1 -2
BITMAP
01
01
3F
66
C3
C3
83
83
C2
C4
78
00
30
ENDCHAR
STARTCHAR uni1EE3
ENCODING 7907
SWIDTH 451 0
DWIDTH 5 0
BBX 6 9 0 -2
BITMAP
08
0C
78
58
DC
D8
70
00
60
ENDCHAR
STARTCHAR uni1EE4
ENCODING 7908
SWIDTH 890 0
DWIDTH 10 0
BBX 11 11 0 -2
BITMAP
7080
D080
9180
3180
3180
3300
2300
35A0
39C0
0000
0C00
ENDCHAR
STARTCHAR uni1EE5
ENCODING 7909
SWIDTH 462 0
DWIDTH 5 0
BBX 6 7 1 -2
BITMAP
90
B0
A0
EC
F0
00
C0
ENDCHAR
STARTCHAR uni1EE6
ENCODING 7910
SWIDTH 890 0
DWIDTH 10 0
BBX 11 13 0 0
BITMAP
0600
0100
0600
0000
7080
D080
9180
3180
3180
3300
2300
35A0
39C0
ENDCHAR
STARTCHAR uni1EE7
ENCODING 7911
SWIDTH 462 0
DWIDTH 5 0
BBX 6 9 1 0
BITMAP
70
10
30
00
90
B0
A0
EC
F0
ENDCHAR
STARTCHAR uni1EE8
ENCODING 7912
SWIDTH 890 0
DWIDTH 10 0
BBX 11 13 0 0
BITMAP
0080
0180
0220
0060
70C0
D080
9180
3180
3180
3300
2300
35A0
39C0
ENDCHAR
STARTCHAR uni1EE9
ENCODING 7913
SWIDTH 512 0
DWIDTH 6 0
BBX 6 9 1 0
BITMAP
10
30
28
08
98
B0
A0
E4
F8
ENDCHAR
STARTCHAR uni1EEA
ENCODING 7914
SWIDTH 890 0
DWIDTH 10 0
BBX 11 13 0 0
BITMAP
1000
1800
0420
0060
70C0
D080
9180
3180
3180
3300
2300
35A0
39C0
ENDCHAR
STARTCHAR uni1EEB
ENCODING 7915
SWIDTH 512 0
DWIDTH 6 0
BBX 6 10 1 0
BITMAP
80
C0
40
28
08
98
B0
A0
E4
F8
ENDCHAR
STARTCHAR uni1EEC
ENCODING 7916
SWIDTH 890 0
DWIDTH 10 0
BBX 11 13 0 0
BITMAP
0600
0100
0620
0060
70C0
D080
9180
3180
3180
3300
2300
35A0
39C0
ENDCHAR
STARTCHAR uni1EED
ENCODING 7917
SWIDTH 512 0
DWIDTH 6 0
BBX 6 9 1 0
BITMAP
70
10
38
08
98
B0
A0
E4
F8
ENDCHAR
STARTCHAR uni1EEE
ENCODING 7918
SWIDTH 890 0
DWIDTH 10 0
BBX 11 12 0 0
BITMAP
0D80
0B20
0060
70C0
D080
9180
3180
3180
3300
2300
35A0
39C0
ENDCHAR
STARTCHAR uni1EEF
ENCODING 7919
SWIDTH 512 0
DWIDTH 6 0
BBX 6 8 1 0
BITMAP
50
B8
08
98
B0
A0
E4
F8
ENDCHAR
STARTCHAR uni1EF0
ENCODING 7920
SWIDTH 890 0
DWIDTH 10 0
BBX 11 13 0 -2
BITMAP
0020
0060
70C0
D080
9180
3180
3180
3300
2300
35A0
39C0
0000
0C00
ENDCHAR
STARTCHAR uni1EF1
ENCODING 7921
SWIDTH 512 0
DWIDTH 6 0
BBX 6 9 1 -2
BITMAP
08
08
98
B0
A0
E4
F8
00
C0
ENDCHAR
STARTCHAR Ygrave
ENCODING 7922
SWIDTH 851 0
DWIDTH 9 0
BBX 11 16 0 -3
BITMAP
1000
1800
0400
0000
7080
D080
9180
1180
3180
3380
3300
1FE0
0D00
1300
1200
1E00
ENDCHAR
STARTCHAR ygrave
ENCODING 7923
SWIDTH 479 0
DWIDTH 5 0
BBX 6 15 0 -5
BITMAP
40
60
20
10
00
48
58
50
74
78
30
50
A0
A0
C0
ENDCHAR
STARTCHAR uni1EF4
ENCODING 7924
SWIDTH 851 0
DWIDTH 9 0
BBX 11 12 0 -3
BITMAP
7080
D080
9180
1180
3180
3380
3300
1FE0
0D00
1300
1200
1F80
ENDCHAR
STARTCHAR uni1EF5
ENCODING 7925
SWIDTH 479 0
DWIDTH 5 0
BBX 6 10 0 -5
BITMAP
48
58
50
74
78
30
50
A0
B8
C0
ENDCHAR
STARTCHAR uni1EF6
ENCODING 7926
SWIDTH 851 0
DWIDTH 9 0
BBX 11 16 0 -3
BITMAP
0700
0100
0200
0000
7080
D080
9180
1180
3180
3380
3300
1FE0
0D00
1300
1200
1E00
ENDCHAR
STARTCHAR uni1EF7
ENCODING 7927
SWIDTH 479 0
DWIDTH 5 0
BBX 6 14 0 -5
BITMAP
38
08
18
00
48
58
50
74
78
30
50
A0
A0
C0
ENDCHAR
STARTCHAR uni1EF8
ENCODING 7928
SWIDTH 851 0
DWIDTH 9 0
BBX 11 15 0 -3
BITMAP
0C80
0B00
0000
7080
D080
9180
1180
3180
3380
3300
1FE0
0D00
1300
1200
1E00
ENDCHAR
STARTCHAR uni1EF9
ENCODING 7929
SWIDTH 479 0
DWIDTH 5 0
BBX 6 13 0 -5
BITMAP
24
58
00
48
58
50
74
78
30
50
A0
A0
C0
ENDCHAR
STARTCHAR endash
ENCODING 8211
SWIDTH 484 0
DWIDTH 5 0
BBX 4 1 1 3
BITMAP
F0
ENDCHAR
STARTCHAR emdash
ENCODING 8212
SWIDTH 620 0
DWIDTH 7 0
BBX 5 1 1 3
BITMAP
F8
ENDCHAR
STARTCHAR quoteleft
ENCODING 8216
SWIDTH 237 0
DWIDTH 3 0
BBX 2 3 1 7
BITMAP
40
C0
C0
ENDCHAR
STARTCHAR quoteright
ENCODING 8217
SWIDTH 236 0
DWIDTH 3 0
BBX 2 3 1 7
BITMAP
40
40
C0
ENDCHAR
STARTCHAR quotesinglbase
ENCODING 8218
SWIDTH 257 0
DWIDTH 3 0
BBX 2 4 0 -2
BITMAP
40
C0
C0
80
ENDCHAR
STARTCHAR quotedblleft
ENCODING 8220
SWIDTH 457 0
DWIDTH 5 0
BBX 5 3 1 7
BITMAP
58
D0
D0
ENDCHAR
STARTCHAR quotedblright
ENCODING 8221
SWIDTH 456 0
DWIDTH 5 0
BBX 5 3 1 7
BITMAP
58
58
D0
ENDCHAR
STARTCHAR quotedblbase
ENCODING 8222
SWIDTH 477 0
DWIDTH 5 0
BBX 5 4 0 -2
BITMAP
50
D8
D0
90
ENDCHAR
STARTCHAR dagger
ENCODING 8224
SWIDTH 588 0
DWIDTH 6 0
BBX 5 7 1 3
BITMAP
10
30
F8
20
20
20
20
ENDCHAR
STARTCHAR daggerdbl
ENCODING 8225
SWIDTH 588 0
DWIDTH 6 0
BBX 5 7 1 3
BITMAP
10
30
F8
20
F8
20
20
ENDCHAR
STARTCHAR bullet
ENCODING 8226
SWIDTH 512 0
DWIDTH 6 0
BBX 4 3 1 1
BITMAP
60
F0
E0
ENDCHAR
STARTCHAR ellipsis
ENCODING 8230
SWIDTH 777 0
DWIDTH 9 0
BBX 8 2 0 0
BITMAP
DB
DB
ENDCHAR
STARTCHAR perthousand
ENCODING 8240
SWIDTH 1277 0
DWIDTH 14 0
BBX 13 8 1 0
BITMAP
E200
A400
BC00
E800
1330
15C8
25C8
6730
ENDCHAR
STARTCHAR guilsinglleft
ENCODING 8249
SWIDTH 350 0
DWIDTH 4 0
BBX 3 4 0 0
BITMAP
20
C0
40
20
ENDCHAR
STARTCHAR guilsinglright
ENCODING 8250
SWIDTH 350 0
DWIDTH 4 0
BBX 4 4 0 0
BITMAP
40
60
30
C0
ENDCHAR
STARTCHAR fraction
ENCODING 8260
SWIDTH 200 0
DWIDTH 2 0
BBX 5 7 -1 1
BITMAP
18
10
30
20
40
C0
80
ENDCHAR
STARTCHAR uni2074
ENCODING 8308
SWIDTH 450 0
DWIDTH 5 0
BBX 4 5 1 4
BITMAP
60
50
A0
F0
20
ENDCHAR
STARTCHAR colonmonetary
ENCODING 8353
SWIDTH 517 0
DWIDTH 6 0
BBX 6 8 0 -1
BITMAP
0C
3C
5C
68
70
58
78
E0
ENDCHAR
STARTCHAR franc
ENCODING 8355
SWIDTH 750 0
DWIDTH 8 0
BBX 8 6 0 0
BITMAP
7E
43
7F
4F
58
C8
ENDCHAR
STARTCHAR lira
ENCODING 8356
SWIDTH 525 0
DWIDTH 6 0
BBX 6 6 0 0
BITMAP
38
6C
F0
F0
40
FC
ENDCHAR
STARTCHAR uni20A6
ENCODING 8358
SWIDTH 672 0
DWIDTH 7 0
BBX 7 7 0 0
BITMAP
22
66
76
FE
FE
4C
44
ENDCHAR
STARTCHAR peseta
ENCODING 8359
SWIDTH 1085 0
DWIDTH 12 0
BBX 12 7 0 0
BITMAP
7200
5A00
4FA0
5A60
7260
42B0
C360
ENDCHAR
STARTCHAR uni20A9
ENCODING 8361
SWIDTH 775 0
DWIDTH 9 0
BBX 9 6 0 0
BITMAP
FF80
4900
FF80
7A00
7A00
2C00
ENDCHAR
STARTCHAR dong
ENCODING 8363
SWIDTH 463 0
DWIDTH 5 0
BBX 6 9 0 -1
BITMAP
08
7C
08
38
58
D0
D0
70
F8
ENDCHAR
STARTCHAR Euro
ENCODING 8364
SWIDTH 552 0
DWIDTH 6 0
BBX 6 6 0 0
BITMAP
3C
64
F0
F0
64
38
ENDCHAR
STARTCHAR uni20AD
ENCODING 8365
SWIDTH 590 0
DWIDTH 6 0
BBX 7 7 0 0
BITMAP
24
64
68
FC
58
48
4E
ENDCHAR
STARTCHAR uni20AE
ENCODING 8366
SWIDTH 513 0
DWIDTH 6 0
BBX 5 6 1 0
BITMAP
F8
20
70
F0
C0
40
ENDCHAR
STARTCHAR uni20B1
ENCODING 8369
SWIDTH 557 0
DWIDTH 6 0
BBX 6 7 0 0
BITMAP
20
78
FC
FC
58
60
40
ENDCHAR
STARTCHAR uni20B2
ENCODING 8370
SWIDTH 599 0
DWIDTH 7 0
BBX 5 9 1 -1
BITMAP
20
20
70
E8
A0
B8
A8
F8
48
ENDCHAR
STARTCHAR uni20B4
ENCODING 8372
SWIDTH 570 0
DWIDTH 6 0
BBX 6 6 0 0
BITMAP
38
48
7C
FC
4C
78
ENDCHAR
STARTCHAR uni20B5
ENCODING 8373
SWIDTH 517 0
DWIDTH 6 0
BBX 5 9 1 -1
BITMAP
20
20
F0
B8
A0
A0
B0
70
40
ENDCHAR
STARTCHAR uni20B8
ENCODING 8376
SWIDTH 522 0
DWIDTH 6 0
BBX 6 6 0 0
BITMAP
7C
FC
30
20
20
20
ENDCHAR
STARTCHAR uni20B9
ENCODING 8377
SWIDTH 511 0
DWIDTH 6 0
BBX 6 7 0 0
BITMAP
7C
10
FC
10
E0
30
18
ENDCHAR
STARTCHAR uni20BA
ENCODING 8378
SWIDTH 452 0
DWIDTH 5 0
BBX 5 7 0 0
BITMAP
20
70
60
F0
40
C8
70
ENDCHAR
STARTCHAR uni20BC
ENCODING 8380
SWIDTH 673 0
DWIDTH 7 0
BBX 7 8 0 0
BITMAP
08
08
1C
2C
76
56
D6
D6
ENDCHAR
STARTCHAR uni20BD
ENCODING 8381
SWIDTH 505 0
DWIDTH 6 0
BBX 5 7 0 0
BITMAP
78
68
68
48
F0
F0
40
ENDCHAR
STARTCHAR uni2116
ENCODING 8470
SWIDTH 1198 0
DWIDTH 13 0
BBX 12 9 1 0
BITMAP
4E70
52D0
6290
6260
C600
C6F0
C600
C400
8400
ENDCHAR
STARTCHAR trademark
ENCODING 8482
SWIDTH 1150 0
DWIDTH 13 0
BBX 11 4 1 5
BITMAP
F760
65A0
4D20
4920
ENDCHAR
STARTCHAR partialdiff
ENCODING 8706
SWIDTH 451 0
DWIDTH 5 0
BBX 5 9 0 0
BITMAP
60
30
10
18
78
48
D8
D8
70
ENDCHAR
STARTCHAR product
ENCODING 8719
SWIDTH 700 0
DWIDTH 8 0
BBX 7 9 1 0
BITMAP
7E
44
44
C4
C4
CC
8C
8C
88
ENDCHAR
STARTCHAR summation
ENCODING 8721
SWIDTH 700 0
DWIDTH 8 0
BBX 7 9 1 0
BITMAP
7E
60
30
18
08
10
20
C0
FC
ENDCHAR
STARTCHAR minus
ENCODING 8722
SWIDTH 700 0
DWIDTH 8 0
BBX 6 1 1 3
BITMAP
FC
ENDCHAR
STARTCHAR uni2215
ENCODING 8725
SWIDTH 700 0
DWIDTH 8 0
BBX 6 11 1 0
BITMAP
04
04
0C
08
18
10
30
20
40
C0
80
ENDCHAR
STARTCHAR uni2219
ENCODING 8729
SWIDTH 700 0
DWIDTH 8 0
BBX 2 2 3 2
BITMAP
C0
C0
ENDCHAR
STARTCHAR radical
ENCODING 8730
SWIDTH 700 0
DWIDTH 8 0
BBX 7 9 1 0
BITMAP
02
06
04
0C
C8
48
70
30
20
ENDCHAR
STARTCHAR infinity
ENCODING 8734
SWIDTH 700 0
DWIDTH 8 0
BBX 8 4 0 1
BITMAP
7E
DB
DA
7E
ENDCHAR
STARTCHAR integral
ENCODING 8747
SWIDTH 700 0
DWIDTH 8 0
BBX 6 13 1 -3
BITMAP
0C
18
10
10
10
30
30
30
20
20
20
20
E0
ENDCHAR
STARTCHAR approxequal
ENCODING 8776
SWIDTH 700 0
DWIDTH 8 0
BBX 6 6 1 0
BITMAP
44
F4
98
44
EC
98
ENDCHAR
STARTCHAR notequal
ENCODING 8800
SWIDTH 700 0
DWIDTH 8 0
BBX 6 7 1 0
BITMAP
08
FC
30
20
FC
40
40
ENDCHAR
STARTCHAR lessequal
ENCODING 8804
SWIDTH 700 0
DWIDTH 8 0
BBX 6 6 1 0
BITMAP
1C
F0
F0
1C
00
FC
ENDCHAR
STARTCHAR greaterequal
ENCODING 8805
SWIDTH 700 0
DWIDTH 8 0
BBX 6 6 1 0
BITMAP
E0
1C
3C
E0
00
FC
ENDCHAR
STARTCHAR lozenge
ENCODING 9674
SWIDTH 700 0
DWIDTH 8 0
BBX 6 11 1 0
BITMAP
10
18
38
28
4C
C4
4C
48
50
30
20
ENDCHAR
STARTCHAR fi
ENCODING 64257
SWIDTH 633 0
DWIDTH 7 0
BBX 8 13 0 -3
BITMAP
18
38
28
2E
70
FC
44
54
55
56
50
50
60
ENDCHAR
STARTCHAR fl
ENCODING 64258
SWIDTH 688 0
DWIDTH 8 0
BBX 8 13 1 -3
BITMAP
36
55
5D
DA
AA
CA
8C
F8
C9
CE
C0
C0
C0
ENDCHAR
STARTCHAR .notdef
ENCODING -1
SWIDTH 265 0
DWIDTH 3 0
BBX 1 1 0 0
BITMAP
00
ENDCHAR
STARTCHAR Iacute_J.loclNLD
ENCODING -1
SWIDTH 776 0
DWIDTH 9 0
BBX 10 13 1 0
BITMAP
0880
19C0
6300
0000
4200
4200
C600
C600
CE00
7E00
0400
8C00
F800
ENDCHAR
STARTCHAR A.ss01
ENCODING -1
SWIDTH 780 0
DWIDTH 9 0
BBX 8 9 1 0
BITMAP
1F
70
46
C6
86
84
8C
CC
74
ENDCHAR
STARTCHAR Aacute.ss01
ENCODING -1
SWIDTH 780 0
DWIDTH 9 0
BBX 8 13 1 0
BITMAP
01
03
06
00
1F
70
46
C6
86
84
8C
CC
74
ENDCHAR
STARTCHAR Abreve.ss01
ENCODING -1
SWIDTH 780 0
DWIDTH 9 0
BBX 8 12 1 0
BITMAP
19
0F
00
1F
70
46
C6
86
84
8C
CC
74
ENDCHAR
STARTCHAR uni1EAE.ss01
ENCODING -1
SWIDTH 780 0
DWIDTH 9 0
BBX 8 13 1 0
BITMAP
03
1D
0F
00
1F
70
46
C6
86
84
8C
CC
74
ENDCHAR
STARTCHAR uni1EB6.ss01
ENCODING -1
SWIDTH 780 0
DWIDTH 9 0
BBX 8 14 1 -2
BITMAP
19
0F
00
1F
70
46
C6
86
84
8C
CC
74
00
30
ENDCHAR
STARTCHAR uni1EB0.ss01
ENCODING -1
SWIDTH 780 0
DWIDTH 9 0
BBX 8 13 1 0
BITMAP
0C
19
0F
00
1F
70
46
C6
86
84
8C
CC
74
ENDCHAR
STARTCHAR uni1EB2.ss01
ENCODING -1
SWIDTH 780 0
DWIDTH 9 0
BBX 8 14 1 0
BITMAP
06
06
19
0E
00
1F
70
46
C6
86
84
8C
CC
74
ENDCHAR
STARTCHAR uni1EB4.ss01
ENCODING -1
SWIDTH 780 0
DWIDTH 9 0
BBX 8 14 1 0
BITMAP
0D
0A
19
0E
00
1F
70
46
C6
86
84
8C
CC
74
ENDCHAR
STARTCHAR Acircumflex.ss01
ENCODING -1
SWIDTH 780 0
DWIDTH 9 0
BBX 8 13 1 0
BITMAP
06
0E
0B
00
1F
70
46
C6
86
84
8C
CC
74
ENDCHAR
STARTCHAR uni1EA4.ss01
ENCODING -1
SWIDTH 780 0
DWIDTH 9 0
BBX 9 14 1 0
BITMAP
0080
0180
0600
0A00
0000
1F00
7000
4600
C600
8600
8400
8C00
CC00
7400
ENDCHAR
STARTCHAR uni1EAC.ss01
ENCODING -1
SWIDTH 780 0
DWIDTH 9 0
BBX 8 15 1 -2
BITMAP
06
0E
0B
00
1F
70
46
C6
86
84
8C
CC
74
00
30
ENDCHAR
STARTCHAR uni1EA6.ss01
ENCODING -1
SWIDTH 780 0
DWIDTH 9 0
BBX 8 14 1 0
BITMAP
10
18
06
0A
00
1F
70
46
C6
86
84
8C
CC
74
ENDCHAR
STARTCHAR uni1EA8.ss01
ENCODING -1
SWIDTH 780 0
DWIDTH 9 0
BBX 9 13 1 0
BITMAP
0180
0080
0780
0A00
1F00
7000
4600
C600
8600
8400
8C00
CC00
7400
ENDCHAR
STARTCHAR uni1EAA.ss01
ENCODING -1
SWIDTH 780 0
DWIDTH 9 0
BBX 8 14 1 0
BITMAP
0D
0A
06
0A
00
1F
70
46
C6
86
84
8C
CC
74
ENDCHAR
STARTCHAR uni0200.ss01
ENCODING -1
SWIDTH 780 0
DWIDTH 9 0
BBX 8 13 1 0
BITMAP
14
1E
0A
00
1F
70
46
C6
86
84
8C
CC
74
ENDCHAR
STARTCHAR Adieresis.ss01
ENCODING -1
SWIDTH 780 0
DWIDTH 9 0
BBX 8 11 1 0
BITMAP
0B
00
1F
70
46
C6
86
84
8C
CC
74
ENDCHAR
STARTCHAR uni1EA0.ss01
ENCODING -1
SWIDTH 780 0
DWIDTH 9 0
BBX 8 11 1 -2
BITMAP
1F
70
46
C6
86
84
8C
CC
74
00
30
ENDCHAR
STARTCHAR Agrave.ss01
ENCODING -1
SWIDTH 780 0
DWIDTH 9 0
BBX 8 13 1 0
BITMAP
10
18
0C
00
1F
70
46
C6
86
84
8C
CC
74
ENDCHAR
STARTCHAR uni1EA2.ss01
ENCODING -1
SWIDTH 780 0
DWIDTH 9 0
BBX 8 13 1 0
BITMAP
06
02
06
00
1F
70
46
C6
86
84
8C
CC
74
ENDCHAR
STARTCHAR uni0202.ss01
ENCODING -1
SWIDTH 780 0
DWIDTH 9 0
BBX 8 12 1 0
BITMAP
0E
19
00
1F
70
46
C6
86
84
8C
CC
74
ENDCHAR
STARTCHAR Amacron.ss01
ENCODING -1
SWIDTH 780 0
DWIDTH 9 0
BBX 8 11 1 0
BITMAP
0E
00
1F
70
46
C6
86
84
8C
CC
74
ENDCHAR
STARTCHAR Aogonek.ss01
ENCODING -1
SWIDTH 780 0
DWIDTH 9 0
BBX 8 12 1 -3
BITMAP
1F
70
46
C6
86
84
8C
CC
74
08
08
0E
ENDCHAR
STARTCHAR Aring.ss01
ENCODING -1
SWIDTH 780 0
DWIDTH 9 0
BBX 8 13 1 0
BITMAP
06
0A
0E
00
1F
70
46
C6
86
84
8C
CC
74
ENDCHAR
STARTCHAR Aringacute.ss01
ENCODING -1
SWIDTH 780 0
DWIDTH 9 0
BBX 10 14 1 0
BITMAP
00C0
0780
0A00
0E00
0000
1F00
7000
4600
C600
8600
8400
8C00
CC00
7400
ENDCHAR
STARTCHAR Atilde.ss01
ENCODING -1
SWIDTH 780 0
DWIDTH 9 0
BBX 8 12 1 0
BITMAP
0D
1B
00
1F
70
46
C6
86
84
8C
CC
74
ENDCHAR
STARTCHAR AE.ss01
ENCODING -1
SWIDTH 1057 0
DWIDTH 12 0
BBX 11 9 1 0
BITMAP
1FE0
7200
4200
C600
87C0
8400
8C00
CE00
73E0
ENDCHAR
STARTCHAR AEacute.ss01
ENCODING -1
SWIDTH 1057 0
DWIDTH 12 0
BBX 11 13 1 0
BITMAP
0080
00C0
0300
0000
1FE0
7200
4200
C600
87C0
8400
8C00
CE00
73E0
ENDCHAR
STARTCHAR B.ss01
ENCODING -1
SWIDTH 826 0
DWIDTH 9 0
BBX 8 9 1 0
BITMAP
7E
43
63
43
DC
C6
C6
C6
F8
ENDCHAR
STARTCHAR C.ss01
ENCODING -1
SWIDTH 704 0
DWIDTH 8 0
BBX 7 9 1 0
BITMAP
3C
66
C6
C4
80
80
C0
C6
78
ENDCHAR
STARTCHAR Cacute.ss01
ENCODING -1
SWIDTH 704 0
DWIDTH 8 0
BBX 7 13 1 0
BITMAP
02
06
0C
00
3C
66
C6
C4
80
80
C0
C6
78
ENDCHAR
STARTCHAR Ccaron.ss01
ENCODING -1
SWIDTH 704 0
DWIDTH 8 0
BBX 7 13 1 0
BITMAP
12
14
08
00
3C
66
C6
C4
80
80
C0
C6
78
ENDCHAR
STARTCHAR Ccedilla.ss01
ENCODING -1
SWIDTH 704 0
DWIDTH 8 0
BBX 7 12 1 -3
BITMAP
3C
66
C6
C4
80
80
80
C6
78
10
10
70
ENDCHAR
STARTCHAR Ccircumflex.ss01
ENCODING -1
SWIDTH 704 0
DWIDTH 8 0
BBX 7 13 1 0
BITMAP
0C
14
34
00
3C
66
C6
C4
80
80
C0
C6
78
ENDCHAR
STARTCHAR Cdotaccent.ss01
ENCODING -1
SWIDTH 704 0
DWIDTH 8 0
BBX 7 11 1 0
BITMAP
18
00
3C
66
C6
C4
80
80
C0
C6
78
ENDCHAR
STARTCHAR D.ss01
ENCODING -1
SWIDTH 810 0
DWIDTH 9 0
BBX 8 9 1 0
BITMAP
7C
46
63
43
43
C2
C6
CC
F8
ENDCHAR
STARTCHAR uni01C4.ss01
ENCODING -1
SWIDTH 1455 0
DWIDTH 16 0
BBX 15 13 1 0
BITMAP
0012
0014
0008
0000
7C7E
4606
630C
430C
4318
C230
C660
CCC0
F8FE
ENDCHAR
STARTCHAR Eth.ss01
ENCODING -1
SWIDTH 821 0
DWIDTH 9 0
BBX 9 9 0 0
BITMAP
1E00
3300
3180
2180
FD80
6180
6300
6600
7C00
ENDCHAR
STARTCHAR Dcaron.ss01
ENCODING -1
SWIDTH 810 0
DWIDTH 9 0
BBX 8 13 1 0
BITMAP
34
14
18
00
7C
46
63
43
43
C2
C6
CC
F8
ENDCHAR
STARTCHAR Dcroat.ss01
ENCODING -1
SWIDTH 821 0
DWIDTH 9 0
BBX 9 9 0 0
BITMAP
1E00
3300
3180
2180
FD80
6180
6300
6600
7C00
ENDCHAR
STARTCHAR E.ss01
ENCODING -1
SWIDTH 720 0
DWIDTH 8 0
BBX 8 9 0 0
BITMAP
1E
33
63
62
18
60
C0
63
3C
ENDCHAR
STARTCHAR Eacute.ss01
ENCODING -1
SWIDTH 720 0
DWIDTH 8 0
BBX 8 13 0 0
BITMAP
01
03
04
00
1E
33
63
62
18
60
C0
63
3C
ENDCHAR
STARTCHAR Ebreve.ss01
ENCODING -1
SWIDTH 720 0
DWIDTH 8 0
BBX 8 12 0 0
BITMAP
13
1E
00
1E
33
63
62
18
60
C0
63
3C
ENDCHAR
STARTCHAR Ecaron.ss01
ENCODING -1
SWIDTH 720 0
DWIDTH 8 0
BBX 8 13 0 0
BITMAP
0A
0A
0C
00
1E
33
63
62
18
60
C0
63
3C
ENDCHAR
STARTCHAR Ecircumflex.ss01
ENCODING -1
SWIDTH 720 0
DWIDTH 8 0
BBX 8 13 0 0
BITMAP
0C
0A
1A
00
1E
33
63
62
18
60
C0
63
3C
ENDCHAR
STARTCHAR uni1EBE.ss01
ENCODING -1
SWIDTH 720 0
DWIDTH 8 0
BBX 9 14 0 0
BITMAP
0100
0180
0C00
1A00
0000
1E00
3300
6300
6200
1800
6000
C000
6300
3C00
ENDCHAR
STARTCHAR uni1EC6.ss01
ENCODING -1
SWIDTH 720 0
DWIDTH 8 0
BBX 8 15 0 -2
BITMAP
0C
0A
1A
00
1E
33
63
62
18
60
C0
63
3C
00
18
ENDCHAR
STARTCHAR uni1EC0.ss01
ENCODING -1
SWIDTH 720 0
DWIDTH 8 0
BBX 8 14 0 0
BITMAP
20
10
0C
1A
00
1E
33
63
62
18
60
C0
63
3C
ENDCHAR
STARTCHAR uni1EC2.ss01
ENCODING -1
SWIDTH 720 0
DWIDTH 8 0
BBX 9 13 0 0
BITMAP
0300
0080
0D00
1A00
1E00
3300
6300
6200
1800
6000
C000
6300
3C00
ENDCHAR
STARTCHAR uni1EC4.ss01
ENCODING -1
SWIDTH 720 0
DWIDTH 8 0
BBX 8 14 0 0
BITMAP
0D
12
0E
1A
00
1E
33
63
62
18
60
C0
63
3C
ENDCHAR
STARTCHAR uni0204.ss01
ENCODING -1
SWIDTH 720 0
DWIDTH 8 0
BBX 8 13 0 0
BITMAP
14
14
0A
00
1E
33
63
62
18
60
C0
63
3C
ENDCHAR
STARTCHAR Edieresis.ss01
ENCODING -1
SWIDTH 720 0
DWIDTH 8 0
BBX 8 11 0 0
BITMAP
1A
00
1E
33
63
62
18
60
C0
63
3C
ENDCHAR
STARTCHAR Edotaccent.ss01
ENCODING -1
SWIDTH 720 0
DWIDTH 8 0
BBX 8 11 0 0
BITMAP
0C
00
1E
33
63
62
18
60
C0
63
3C
ENDCHAR
STARTCHAR uni1EB8.ss01
ENCODING -1
SWIDTH 720 0
DWIDTH 8 0
BBX 8 11 0 -2
BITMAP
1E
33
63
62
18
60
C0
63
3C
00
18
ENDCHAR
STARTCHAR Egrave.ss01
ENCODING -1
SWIDTH 720 0
DWIDTH 8 0
BBX 8 13 0 0
BITMAP
20
30
08
00
1E
33
63
62
18
60
C0
63
3C
ENDCHAR
STARTCHAR uni1EBA.ss01
ENCODING -1
SWIDTH 720 0
DWIDTH 8 0
BBX 8 13 0 0
BITMAP
0E
02
06
00
1E
33
63
62
18
60
C0
63
3C
ENDCHAR
STARTCHAR uni0206.ss01
ENCODING -1
SWIDTH 720 0
DWIDTH 8 0
BBX 8 12 0 0
BITMAP
0E
13
00
1E
33
63
62
18
60
C0
63
3C
ENDCHAR
STARTCHAR Emacron.ss01
ENCODING -1
SWIDTH 720 0
DWIDTH 8 0
BBX 8 11 0 0
BITMAP
1E
00
1E
33
63
62
18
60
C0
63
3C
ENDCHAR
STARTCHAR Eogonek.ss01
ENCODING -1
SWIDTH 720 0
DWIDTH 8 0
BBX 8 12 0 -3
BITMAP
1E
33
63
62
18
60
C0
63
3E
08
18
0C
ENDCHAR
STARTCHAR uni1EBC.ss01
ENCODING -1
SWIDTH 720 0
DWIDTH 8 0
BBX 8 12 0 0
BITMAP
19
16
00
1E
33
63
62
18
60
C0
63
3C
ENDCHAR
STARTCHAR F.ss01
ENCODING -1
SWIDTH 671 0
DWIDTH 7 0
BBX 7 9 1 0
BITMAP
FE
20
60
60
FC
40
40
40
C0
ENDCHAR
STARTCHAR G.ss01
ENCODING -1
SWIDTH 811 0
DWIDTH 9 0
BBX 7 11 1 -2
BITMAP
3C
66
C6
C2
80
8E
C2
E2
3E
06
06
ENDCHAR
STARTCHAR Gbreve.ss01
ENCODING -1
SWIDTH 811 0
DWIDTH 9 0
BBX 7 14 1 -2
BITMAP
32
1E
00
3C
66
C6
C2
80
8E
C2
E2
3E
06
06
ENDCHAR
STARTCHAR Gcaron.ss01
ENCODING -1
SWIDTH 811 0
DWIDTH 9 0
BBX 7 15 1 -2
BITMAP
12
14
0C
00
3C
66
C6
C2
80
8E
C2
E2
3E
06
06
ENDCHAR
STARTCHAR Gcircumflex.ss01
ENCODING -1
SWIDTH 811 0
DWIDTH 9 0
BBX 7 15 1 -2
BITMAP
0C
1C
14
00
3C
66
C6
C2
80
8E
C2
E2
3E
06
06
ENDCHAR
STARTCHAR uni0122.ss01
ENCODING -1
SWIDTH 811 0
DWIDTH 9 0
BBX 7 12 1 -3
BITMAP
3C
66
C6
C2
80
8E
C2
E2
3E
06
16
10
ENDCHAR
STARTCHAR Gdotaccent.ss01
ENCODING -1
SWIDTH 811 0
DWIDTH 9 0
BBX 7 13 1 -2
BITMAP
0C
00
3C
66
C6
C2
80
8E
C2
E2
3E
06
06
ENDCHAR
STARTCHAR H.ss01
ENCODING -1
SWIDTH 846 0
DWIDTH 9 0
BBX 8 9 1 0
BITMAP
63
63
63
42
FF
C6
C6
C6
C6
ENDCHAR
STARTCHAR Hbar.ss01
ENCODING -1
SWIDTH 856 0
DWIDTH 9 0
BBX 9 9 1 0
BITMAP
6300
FF80
4300
4200
FF00
C200
C600
C600
C600
ENDCHAR
STARTCHAR Hcircumflex.ss01
ENCODING -1
SWIDTH 846 0
DWIDTH 9 0
BBX 8 13 1 0
BITMAP
0C
1C
16
00
63
63
63
42
FF
C6
C6
C6
C6
ENDCHAR
STARTCHAR I.ss01
ENCODING -1
SWIDTH 357 0
DWIDTH 4 0
BBX 3 9 1 0
BITMAP
60
40
40
40
C0
C0
C0
C0
80
ENDCHAR
STARTCHAR Iacute.ss01
ENCODING -1
SWIDTH 357 0
DWIDTH 4 0
BBX 5 13 1 0
BITMAP
08
18
20
00
60
40
40
40
C0
C0
C0
C0
80
ENDCHAR
STARTCHAR Iacute_J.loclNLD.ss01
ENCODING -1
SWIDTH 776 0
DWIDTH 9 0
BBX 10 13 1 0
BITMAP
0880
19C0
6300
0000
4200
4200
C600
C600
CE00
7E00
0400
8C00
F800
ENDCHAR
STARTCHAR Ibreve.ss01
ENCODING -1
SWIDTH 357 0
DWIDTH 4 0
BBX 4 12 1 0
BITMAP
90
F0
00
60
40
40
40
C0
C0
C0
C0
80
ENDCHAR
STARTCHAR Icircumflex.ss01
ENCODING -1
SWIDTH 357 0
DWIDTH 4 0
BBX 4 13 1 0
BITMAP
60
70
90
00
60
40
40
40
C0
C0
C0
C0
80
ENDCHAR
STARTCHAR uni0208.ss01
ENCODING -1
SWIDTH 357 0
DWIDTH 4 0
BBX 3 13 1 0
BITMAP
A0
A0
A0
00
60
40
40
40
C0
C0
C0
C0
80
ENDCHAR
STARTCHAR Idieresis.ss01
ENCODING -1
SWIDTH 357 0
DWIDTH 4 0
BBX 4 11 1 0
BITMAP
F0
00
60
40
40
40
C0
C0
C0
C0
80
ENDCHAR
STARTCHAR Idotaccent.ss01
ENCODING -1
SWIDTH 357 0
DWIDTH 4 0
BBX 3 11 1 0
BITMAP
60
00
60
40
40
40
C0
C0
C0
C0
80
ENDCHAR
STARTCHAR uni1ECA.ss01
ENCODING -1
SWIDTH 357 0
DWIDTH 4 0
BBX 4 11 0 -2
BITMAP
30
20
20
20
60
60
60
60
40
00
C0
ENDCHAR
STARTCHAR Igrave.ss01
ENCODING -1
SWIDTH 357 0
DWIDTH 4 0
BBX 4 13 0 0
BITMAP
80
C0
20
00
30
20
20
20
60
60
60
60
40
ENDCHAR
STARTCHAR uni1EC8.ss01
ENCODING -1
SWIDTH 357 0
DWIDTH 4 0
BBX 4 13 1 0
BITMAP
60
10
60
00
60
40
40
40
C0
C0
C0
C0
80
ENDCHAR
STARTCHAR uni020A.ss01
ENCODING -1
SWIDTH 357 0
DWIDTH 4 0
BBX 4 12 1 0
BITMAP
70
90
00
60
40
40
40
C0
C0
C0
C0
80
ENDCHAR
STARTCHAR Imacron.ss01
ENCODING -1
SWIDTH 357 0
DWIDTH 4 0
BBX 4 11 1 0
BITMAP
F0
00
60
40
40
40
C0
C0
C0
C0
80
ENDCHAR
STARTCHAR Iogonek.ss01
ENCODING -1
SWIDTH 357 0
DWIDTH 4 0
BBX 4 12 0 -3
BITMAP
30
30
20
20
60
60
60
60
40
40
80
E0
ENDCHAR
STARTCHAR Itilde.ss01
ENCODING -1
SWIDTH 357 0
DWIDTH 4 0
BBX 5 12 1 0
BITMAP
D8
B0
00
60
40
40
40
C0
C0
C0
C0
80
ENDCHAR
STARTCHAR J.ss01
ENCODING -1
SWIDTH 716 0
DWIDTH 8 0
BBX 7 9 1 0
BITMAP
7E
C4
84
84
0C
0C
88
98
70
ENDCHAR
STARTCHAR Jcircumflex.ss01
ENCODING -1
SWIDTH 716 0
DWIDTH 8 0
BBX 7 13 1 0
BITMAP
18
1C
24
00
7E
C4
84
84
0C
0C
88
98
70
ENDCHAR
STARTCHAR K.ss01
ENCODING -1
SWIDTH 779 0
DWIDTH 9 0
BBX 8 9 1 0
BITMAP
62
66
46
4C
F0
D8
C8
CC
87
ENDCHAR
STARTCHAR uni0136.ss01
ENCODING -1
SWIDTH 779 0
DWIDTH 9 0
BBX 8 12 1 -3
BITMAP
62
66
46
4C
F0
D8
C8
CC
87
00
30
20
ENDCHAR
STARTCHAR L.ss01
ENCODING -1
SWIDTH 625 0
DWIDTH 7 0
BBX 6 9 1 0
BITMAP
60
40
40
40
C0
C0
C0
80
FC
ENDCHAR
STARTCHAR uni01C7.ss01
ENCODING -1
SWIDTH 1291 0
DWIDTH 14 0
BBX 13 9 1 0
BITMAP
60F8
4318
4218
4310
C010
C010
C230
8320
FDC0
ENDCHAR
STARTCHAR Lacute.ss01
ENCODING -1
SWIDTH 625 0
DWIDTH 7 0
BBX 6 13 1 0
BITMAP
08
18
20
00
60
40
40
40
C0
C0
C0
80
FC
ENDCHAR
STARTCHAR Lcaron.ss01
ENCODING -1
SWIDTH 625 0
DWIDTH 7 0
BBX 6 10 1 0
BITMAP
04
6C
48
40
40
C0
C0
C0
80
FC
ENDCHAR
STARTCHAR uni013B.ss01
ENCODING -1
SWIDTH 625 0
DWIDTH 7 0
BBX 6 12 1 -3
BITMAP
60
40
40
40
C0
C0
C0
80
FC
00
20
20
ENDCHAR
STARTCHAR Ldot.ss01
ENCODING -1
SWIDTH 625 0
DWIDTH 7 0
BBX 6 9 1 0
BITMAP
60
40
40
40
D8
C0
C0
80
FC
ENDCHAR
STARTCHAR uni01C8.ss01
ENCODING -1
SWIDTH 854 0
DWIDTH 9 0
BBX 9 14 1 -5
BITMAP
6000
4000
4180
4000
C100
C100
C100
8300
FF00
0200
0600
0A00
1400
0C00
ENDCHAR
STARTCHAR Lslash.ss01
ENCODING -1
SWIDTH 625 0
DWIDTH 7 0
BBX 7 9 0 0
BITMAP
30
20
2C
30
E0
60
60
40
7E
ENDCHAR
STARTCHAR M.ss01
ENCODING -1
SWIDTH 1139 0
DWIDTH 13 0
BBX 11 9 1 0
BITMAP
5CE0
5760
6660
4660
C660
C440
CC40
8C40
8CC0
ENDCHAR
STARTCHAR N.ss01
ENCODING -1
SWIDTH 799 0
DWIDTH 9 0
BBX 7 9 1 0
BITMAP
4E
52
62
62
C6
C6
C6
C4
84
ENDCHAR
STARTCHAR uni01CA.ss01
ENCODING -1
SWIDTH 1515 0
DWIDTH 17 0
BBX 16 9 1 0
BITMAP
4E3F
5242
6246
6246
C606
C604
C644
C44C
8478
ENDCHAR
STARTCHAR Nacute.ss01
ENCODING -1
SWIDTH 799 0
DWIDTH 9 0
BBX 7 13 1 0
BITMAP
02
06
0C
00
4E
52
62
62
C6
C6
C6
C4
84
ENDCHAR
STARTCHAR Ncaron.ss01
ENCODING -1
SWIDTH 799 0
DWIDTH 9 0
BBX 7 13 1 0
BITMAP
12
14
08
00
4E
52
62
62
C6
C6
C6
C4
84
ENDCHAR
STARTCHAR uni0145.ss01
ENCODING -1
SWIDTH 799 0
DWIDTH 9 0
BBX 7 12 1 -3
BITMAP
4E
52
62
62
C6
C6
C6
C4
84
00
30
20
ENDCHAR
STARTCHAR Eng.ss01
ENCODING -1
SWIDTH 792 0
DWIDTH 9 0
BBX 7 13 1 -4
BITMAP
4E
52
62
66
C6
C6
C4
C4
8C
0C
08
98
70
ENDCHAR
STARTCHAR uni01CB.ss01
ENCODING -1
SWIDTH 1008 0
DWIDTH 11 0
BBX 10 14 1 -5
BITMAP
4E00
5200
62C0
6200
C6C0
C6C0
C6C0
C480
8480
0180
0280
0580
0500
0700
ENDCHAR
STARTCHAR Ntilde.ss01
ENCODING -1
SWIDTH 799 0
DWIDTH 9 0
BBX 7 12 1 0
BITMAP
1A
2C
00
4E
52
62
62
C6
C6
C6
C4
84
ENDCHAR
STARTCHAR OE.ss01
ENCODING -1
SWIDTH 1166 0
DWIDTH 13 0
BBX 12 9 1 0
BITMAP
3DF0
6780
C300
C300
83E0
8300
C300
C700
79F0
ENDCHAR
STARTCHAR P.ss01
ENCODING -1
SWIDTH 662 0
DWIDTH 7 0
BBX 6 9 1 0
BITMAP
78
EC
64
44
4C
F8
C0
C0
C0
ENDCHAR
STARTCHAR Thorn.ss01
ENCODING -1
SWIDTH 658 0
DWIDTH 7 0
BBX 7 9 0 0
BITMAP
30
3C
66
26
26
26
FC
60
60
ENDCHAR
STARTCHAR Q.ss01
ENCODING -1
SWIDTH 816 0
DWIDTH 9 0
BBX 8 12 1 -3
BITMAP
3C
66
C3
C3
83
83
82
C6
7C
18
0C
0C
ENDCHAR
STARTCHAR R.ss01
ENCODING -1
SWIDTH 744 0
DWIDTH 8 0
BBX 7 9 1 0
BITMAP
78
EC
64
4C
F0
D0
D8
C8
CE
ENDCHAR
STARTCHAR Racute.ss01
ENCODING -1
SWIDTH 744 0
DWIDTH 8 0
BBX 7 13 1 0
BITMAP
04
0E
18
00
78
EC
64
4C
F0
D0
D8
C8
CE
ENDCHAR
STARTCHAR Rcaron.ss01
ENCODING -1
SWIDTH 744 0
DWIDTH 8 0
BBX 7 13 1 0
BITMAP
24
38
18
00
78
EC
64
4C
F0
D0
D8
C8
CE
ENDCHAR
STARTCHAR uni0156.ss01
ENCODING -1
SWIDTH 744 0
DWIDTH 8 0
BBX 7 12 1 -3
BITMAP
78
EC
64
4C
F0
D0
D8
C8
CE
00
20
20
ENDCHAR
STARTCHAR uni0210.ss01
ENCODING -1
SWIDTH 744 0
DWIDTH 8 0
BBX 7 13 1 0
BITMAP
28
78
28
00
78
EC
64
4C
F0
D0
D8
C8
CE
ENDCHAR
STARTCHAR uni0212.ss01
ENCODING -1
SWIDTH 744 0
DWIDTH 8 0
BBX 7 12 1 0
BITMAP
3C
24
00
78
EC
64
4C
F0
D0
D8
C8
CE
ENDCHAR
STARTCHAR T.ss01
ENCODING -1
SWIDTH 631 0
DWIDTH 7 0
BBX 7 9 1 0
BITMAP
FE
10
30
30
20
20
20
60
60
ENDCHAR
STARTCHAR Tbar.ss01
ENCODING -1
SWIDTH 631 0
DWIDTH 7 0
BBX 7 9 1 0
BITMAP
FE
10
30
30
F8
20
20
60
60
ENDCHAR
STARTCHAR Tcaron.ss01
ENCODING -1
SWIDTH 631 0
DWIDTH 7 0
BBX 7 13 1 0
BITMAP
24
28
18
00
FE
10
30
30
20
20
20
60
60
ENDCHAR
STARTCHAR uni0162.ss01
ENCODING -1
SWIDTH 631 0
DWIDTH 7 0
BBX 7 12 1 -3
BITMAP
FE
10
30
30
20
20
20
60
60
20
20
E0
ENDCHAR
STARTCHAR uni021A.ss01
ENCODING -1
SWIDTH 631 0
DWIDTH 7 0
BBX 7 12 1 -3
BITMAP
FE
10
30
30
20
20
20
60
60
00
60
40
ENDCHAR
STARTCHAR U.ss01
ENCODING -1
SWIDTH 800 0
DWIDTH 9 0
BBX 7 9 1 0
BITMAP
62
62
42
46
C6
C6
CE
DC
F4
ENDCHAR
STARTCHAR Uacute.ss01
ENCODING -1
SWIDTH 800 0
DWIDTH 9 0
BBX 7 13 1 0
BITMAP
02
06
0C
00
62
62
42
46
C6
C6
CE
DC
F4
ENDCHAR
STARTCHAR Ubreve.ss01
ENCODING -1
SWIDTH 800 0
DWIDTH 9 0
BBX 7 12 1 0
BITMAP
22
1C
00
62
62
42
46
C6
C6
CE
DC
F4
ENDCHAR
STARTCHAR Ucircumflex.ss01
ENCODING -1
SWIDTH 800 0
DWIDTH 9 0
BBX 7 13 1 0
BITMAP
0C
14
34
00
62
62
42
46
C6
C6
CE
DC
F4
ENDCHAR
STARTCHAR uni0214.ss01
ENCODING -1
SWIDTH 800 0
DWIDTH 9 0
BBX 7 13 1 0
BITMAP
28
3C
14
00
62
62
42
46
C6
C6
CE
DC
F4
ENDCHAR
STARTCHAR Udieresis.ss01
ENCODING -1
SWIDTH 800 0
DWIDTH 9 0
BBX 7 11 1 0
BITMAP
14
00
62
62
42
46
C6
C6
CE
DC
F4
ENDCHAR
STARTCHAR uni1EE4.ss01
ENCODING -1
SWIDTH 800 0
DWIDTH 9 0
BBX 7 11 1 -2
BITMAP
62
62
42
46
C6
C6
CE
DC
F4
00
30
ENDCHAR
STARTCHAR Ugrave.ss01
ENCODING -1
SWIDTH 800 0
DWIDTH 9 0
BBX 7 13 1 0
BITMAP
20
70
18
00
62
62
42
46
C6
C6
CE
DC
F4
ENDCHAR
STARTCHAR uni1EE6.ss01
ENCODING -1
SWIDTH 800 0
DWIDTH 9 0
BBX 7 13 1 0
BITMAP
1C
04
0C
00
62
62
42
46
C6
C6
CE
DC
F4
ENDCHAR
STARTCHAR Uhorn.ss01
ENCODING -1
SWIDTH 800 0
DWIDTH 9 0
BBX 9 11 1 0
BITMAP
0080
0080
6380
6200
4200
4600
C600
C600
CE00
DC00
F400
ENDCHAR
STARTCHAR uni1EE8.ss01
ENCODING -1
SWIDTH 800 0
DWIDTH 9 0
BBX 9 13 1 0
BITMAP
0200
0600
0C80
0080
6380
6200
4200
4600
C600
C600
CE00
DC00
F400
ENDCHAR
STARTCHAR uni1EF0.ss01
ENCODING -1
SWIDTH 800 0
DWIDTH 9 0
BBX 9 13 1 -2
BITMAP
0080
0080
6380
6200
4200
4600
C600
C600
CE00
DC00
F400
0000
3000
ENDCHAR
STARTCHAR uni1EEA.ss01
ENCODING -1
SWIDTH 800 0
DWIDTH 9 0
BBX 9 13 1 0
BITMAP
2000
7000
1880
0080
6380
6200
4200
4600
C600
C600
CE00
DC00
F400
ENDCHAR
STARTCHAR uni1EEC.ss01
ENCODING -1
SWIDTH 800 0
DWIDTH 9 0
BBX 9 13 1 0
BITMAP
1C00
0400
0C80
0080
6380
6200
4200
4600
C600
C600
CE00
DC00
F400
ENDCHAR
STARTCHAR uni1EEE.ss01
ENCODING -1
SWIDTH 800 0
DWIDTH 9 0
BBX 9 12 1 0
BITMAP
1A00
2C80
0080
6380
6200
4200
4600
C600
C600
CE00
DC00
F400
ENDCHAR
STARTCHAR Uhungarumlaut.ss01
ENCODING -1
SWIDTH 800 0
DWIDTH 9 0
BBX 7 13 1 0
BITMAP
0A
1E
14
00
62
62
42
46
C6
C6
CE
DC
F4
ENDCHAR
STARTCHAR uni0216.ss01
ENCODING -1
SWIDTH 800 0
DWIDTH 9 0
BBX 7 12 1 0
BITMAP
1C
36
00
62
62
42
46
C6
C6
CE
DC
F4
ENDCHAR
STARTCHAR Umacron.ss01
ENCODING -1
SWIDTH 800 0
DWIDTH 9 0
BBX 7 11 1 0
BITMAP
1C
00
62
62
42
46
C6
C6
CE
DC
F4
ENDCHAR
STARTCHAR Uogonek.ss01
ENCODING -1
SWIDTH 800 0
DWIDTH 9 0
BBX 7 12 1 -3
BITMAP
62
62
42
46
C6
C6
CE
DE
F4
0C
08
0E
ENDCHAR
STARTCHAR Uring.ss01
ENCODING -1
SWIDTH 800 0
DWIDTH 9 0
BBX 7 13 1 0
BITMAP
0C
14
1C
00
62
62
42
46
C6
C6
CE
DC
F4
ENDCHAR
STARTCHAR Utilde.ss01
ENCODING -1
SWIDTH 800 0
DWIDTH 9 0
BBX 7 12 1 0
BITMAP
1A
2C
00
62
62
42
46
C6
C6
CE
DC
F4
ENDCHAR
STARTCHAR V.ss01
ENCODING -1
SWIDTH 797 0
DWIDTH 9 0
BBX 8 9 1 0
BITMAP
43
43
C3
C2
C6
C4
4C
78
70
ENDCHAR
STARTCHAR W.ss01
ENCODING -1
SWIDTH 1236 0
DWIDTH 14 0
BBX 13 9 1 0
BITMAP
4218
4218
C610
C630
C630
CE20
4A60
7BC0
7180
ENDCHAR
STARTCHAR Wacute.ss01
ENCODING -1
SWIDTH 1236 0
DWIDTH 14 0
BBX 13 13 1 0
BITMAP
0080
01C0
0300
0000
4218
4218
C610
C630
C630
CE20
4A60
7BC0
7180
ENDCHAR
STARTCHAR Wcircumflex.ss01
ENCODING -1
SWIDTH 1236 0
DWIDTH 14 0
BBX 13 13 1 0
BITMAP
0300
0700
0580
0000
4218
4218
C610
C630
C630
CE20
4A60
7BC0
7180
ENDCHAR
STARTCHAR Wdieresis.ss01
ENCODING -1
SWIDTH 1236 0
DWIDTH 14 0
BBX 13 11 1 0
BITMAP
0780
0000
4218
4218
C610
C630
C630
CE20
4A60
7BC0
7180
ENDCHAR
STARTCHAR Wgrave.ss01
ENCODING -1
SWIDTH 1236 0
DWIDTH 14 0
BBX 13 13 1 0
BITMAP
0800
0C00
0200
0000
4218
4218
C610
C630
C630
CE20
4A60
7BC0
7180
ENDCHAR
STARTCHAR X.ss01
ENCODING -1
SWIDTH 677 0
DWIDTH 7 0
BBX 8 9 0 0
BITMAP
63
32
36
1C
18
38
6C
C4
86
ENDCHAR
STARTCHAR Y.ss01
ENCODING -1
SWIDTH 776 0
DWIDTH 9 0
BBX 7 9 1 0
BITMAP
42
42
C6
C6
CE
7E
04
8C
F8
ENDCHAR
STARTCHAR Yacute.ss01
ENCODING -1
SWIDTH 776 0
DWIDTH 9 0
BBX 7 13 1 0
BITMAP
02
06
08
00
42
42
C6
C6
CE
7E
04
8C
F8
ENDCHAR
STARTCHAR Ycircumflex.ss01
ENCODING -1
SWIDTH 776 0
DWIDTH 9 0
BBX 7 13 1 0
BITMAP
18
1C
34
00
42
42
C6
C6
CE
7E
04
8C
F8
ENDCHAR
STARTCHAR Ydieresis.ss01
ENCODING -1
SWIDTH 776 0
DWIDTH 9 0
BBX 7 11 1 0
BITMAP
34
00
42
42
C6
C6
CE
7E
04
8C
F8
ENDCHAR
STARTCHAR uni1EF4.ss01
ENCODING -1
SWIDTH 776 0
DWIDTH 9 0
BBX 7 11 1 -2
BITMAP
42
42
C6
C6
CE
7E
04
8C
F8
00
30
ENDCHAR
STARTCHAR Ygrave.ss01
ENCODING -1
SWIDTH 776 0
DWIDTH 9 0
BBX 7 13 1 0
BITMAP
40
60
10
00
42
42
C6
C6
CE
7E
04
8C
F8
ENDCHAR
STARTCHAR uni1EF6.ss01
ENCODING -1
SWIDTH 776 0
DWIDTH 9 0
BBX 7 13 1 0
BITMAP
1C
04
08
00
42
42
C6
C6
CE
7E
04
8C
F8
ENDCHAR
STARTCHAR uni0232.ss01
ENCODING -1
SWIDTH 776 0
DWIDTH 9 0
BBX 7 11 1 0
BITMAP
3C
00
42
42
C6
C6
CE
7E
04
8C
F8
ENDCHAR
STARTCHAR uni1EF8.ss01
ENCODING -1
SWIDTH 776 0
DWIDTH 9 0
BBX 7 12 1 0
BITMAP
32
2C
00
42
42
C6
C6
CE
7E
04
8C
F8
ENDCHAR
STARTCHAR Z.ss01
ENCODING -1
SWIDTH 665 0
DWIDTH 7 0
BBX 8 9 0 0
BITMAP
7F
06
06
0C
18
30
60
60
FE
ENDCHAR
STARTCHAR Zacute.ss01
ENCODING -1
SWIDTH 665 0
DWIDTH 7 0
BBX 8 13 0 0
BITMAP
02
07
0C
00
7F
06
06
0C
18
30
60
60
FE
ENDCHAR
STARTCHAR Zcaron.ss01
ENCODING -1
SWIDTH 665 0
DWIDTH 7 0
BBX 8 13 0 0
BITMAP
12
1E
0C
00
7F
06
06
0C
18
30
60
60
FE
ENDCHAR
STARTCHAR Zdotaccent.ss01
ENCODING -1
SWIDTH 665 0
DWIDTH 7 0
BBX 8 11 0 0
BITMAP
0C
00
7F
06
06
0C
18
30
60
60
FE
ENDCHAR
STARTCHAR i.loclTRK
ENCODING -1
SWIDTH 246 0
DWIDTH 3 0
BBX 3 7 1 0
BITMAP
C0
00
80
80
80
A0
C0
ENDCHAR
STARTCHAR a.fina
ENCODING -1
SWIDTH 458 0
DWIDTH 5 0
BBX 5 5 0 0
BITMAP
38
78
D8
D0
70
ENDCHAR
STARTCHAR aacute.fina
ENCODING -1
SWIDTH 458 0
DWIDTH 5 0
BBX 5 9 0 0
BITMAP
08
08
10
00
38
78
D8
D0
70
ENDCHAR
STARTCHAR abreve.fina
ENCODING -1
SWIDTH 458 0
DWIDTH 5 0
BBX 6 8 0 0
BITMAP
6C
38
00
38
78
D8
D0
70
ENDCHAR
STARTCHAR uni1EAF.fina
ENCODING -1
SWIDTH 458 0
DWIDTH 5 0
BBX 6 9 0 0
BITMAP
08
54
38
00
38
78
D8
D0
70
ENDCHAR
STARTCHAR uni1EB7.fina
ENCODING -1
SWIDTH 458 0
DWIDTH 5 0
BBX 6 10 0 -2
BITMAP
6C
38
00
38
78
D8
D0
70
00
60
ENDCHAR
STARTCHAR uni1EB1.fina
ENCODING -1
SWIDTH 458 0
DWIDTH 5 0
BBX 6 9 0 0
BITMAP
30
44
38
00
38
78
D8
D0
70
ENDCHAR
STARTCHAR uni1EB3.fina
ENCODING -1
SWIDTH 458 0
DWIDTH 5 0
BBX 6 10 0 0
BITMAP
18
18
64
38
00
38
78
D8
D0
70
ENDCHAR
STARTCHAR uni1EB5.fina
ENCODING -1
SWIDTH 458 0
DWIDTH 5 0
BBX 6 10 0 0
BITMAP
34
28
44
38
00
38
78
D8
D0
70
ENDCHAR
STARTCHAR acircumflex.fina
ENCODING -1
SWIDTH 458 0
DWIDTH 5 0
BBX 5 10 0 0
BITMAP
10
18
28
28
00
38
78
D8
D0
70
ENDCHAR
STARTCHAR uni1EA5.fina
ENCODING -1
SWIDTH 458 0
DWIDTH 5 0
BBX 7 10 0 0
BITMAP
02
06
18
28
00
38
78
D8
D0
70
ENDCHAR
STARTCHAR uni1EAD.fina
ENCODING -1
SWIDTH 458 0
DWIDTH 5 0
BBX 5 12 0 -2
BITMAP
10
18
28
28
00
38
78
D8
D0
70
00
60
ENDCHAR
STARTCHAR uni1EA7.fina
ENCODING -1
SWIDTH 458 0
DWIDTH 5 0
BBX 5 10 0 0
BITMAP
40
60
18
28
00
38
78
D8
D0
70
ENDCHAR
STARTCHAR uni1EA9.fina
ENCODING -1
SWIDTH 458 0
DWIDTH 5 0
BBX 7 9 0 0
BITMAP
06
02
1E
28
38
78
D8
D0
70
ENDCHAR
STARTCHAR uni1EAB.fina
ENCODING -1
SWIDTH 458 0
DWIDTH 5 0
BBX 6 10 0 0
BITMAP
34
28
38
28
00
38
78
D8
D0
70
ENDCHAR
STARTCHAR uni0201.fina
ENCODING -1
SWIDTH 458 0
DWIDTH 5 0
BBX 5 10 0 0
BITMAP
50
50
78
28
00
38
78
D8
D0
70
ENDCHAR
STARTCHAR adieresis.fina
ENCODING -1
SWIDTH 458 0
DWIDTH 5 0
BBX 5 7 0 0
BITMAP
28
00
38
78
D8
D0
70
ENDCHAR
STARTCHAR uni1EA1.fina
ENCODING -1
SWIDTH 458 0
DWIDTH 5 0
BBX 5 7 0 -2
BITMAP
38
78
D8
D0
70
00
60
ENDCHAR
STARTCHAR agrave.fina
ENCODING -1
SWIDTH 458 0
DWIDTH 5 0
BBX 5 10 0 0
BITMAP
20
60
20
10
00
38
78
D8
D0
70
ENDCHAR
STARTCHAR uni1EA3.fina
ENCODING -1
SWIDTH 458 0
DWIDTH 5 0
BBX 5 9 0 0
BITMAP
38
08
18
00
38
78
D8
D0
70
ENDCHAR
STARTCHAR uni0203.fina
ENCODING -1
SWIDTH 458 0
DWIDTH 5 0
BBX 6 8 0 0
BITMAP
38
6C
44
38
78
D8
D0
70
ENDCHAR
STARTCHAR amacron.fina
ENCODING -1
SWIDTH 458 0
DWIDTH 5 0
BBX 5 7 0 0
BITMAP
38
00
38
78
D8
D0
70
ENDCHAR
STARTCHAR aogonek.fina
ENCODING -1
SWIDTH 458 0
DWIDTH 5 0
BBX 5 8 0 -3
BITMAP
38
78
D8
D0
70
10
20
18
ENDCHAR
STARTCHAR aring.fina
ENCODING -1
SWIDTH 458 0
DWIDTH 5 0
BBX 5 9 0 0
BITMAP
18
28
38
00
38
78
D8
D0
70
ENDCHAR
STARTCHAR aringacute.fina
ENCODING -1
SWIDTH 458 0
DWIDTH 5 0
BBX 7 10 0 0
BITMAP
02
1C
28
38
00
38
78
D8
D0
70
ENDCHAR
STARTCHAR atilde.fina
ENCODING -1
SWIDTH 458 0
DWIDTH 5 0
BBX 6 8 0 0
BITMAP
34
58
00
38
78
D8
D0
70
ENDCHAR
STARTCHAR ae.fina
ENCODING -1
SWIDTH 671 0
DWIDTH 7 0
BBX 8 5 0 0
BITMAP
3E
6A
DE
D9
6E
ENDCHAR
STARTCHAR aeacute.fina
ENCODING -1
SWIDTH 671 0
DWIDTH 7 0
BBX 8 9 0 0
BITMAP
06
04
08
00
3E
6A
DE
D9
6E
ENDCHAR
STARTCHAR b.fina
ENCODING -1
SWIDTH 475 0
DWIDTH 5 0
BBX 4 10 1 0
BITMAP
60
50
D0
A0
A0
E0
B0
90
B0
E0
ENDCHAR
STARTCHAR c.fina
ENCODING -1
SWIDTH 404 0
DWIDTH 4 0
BBX 5 5 0 0
BITMAP
70
50
C0
C8
70
ENDCHAR
STARTCHAR cacute.fina
ENCODING -1
SWIDTH 404 0
DWIDTH 4 0
BBX 5 9 0 0
BITMAP
08
10
30
00
70
50
C0
C8
70
ENDCHAR
STARTCHAR ccaron.fina
ENCODING -1
SWIDTH 404 0
DWIDTH 4 0
BBX 5 10 0 0
BITMAP
28
68
30
30
00
70
50
C0
C8
70
ENDCHAR
STARTCHAR ccedilla.fina
ENCODING -1
SWIDTH 404 0
DWIDTH 4 0
BBX 5 8 0 -3
BITMAP
70
50
D0
C8
70
70
10
60
ENDCHAR
STARTCHAR ccircumflex.fina
ENCODING -1
SWIDTH 404 0
DWIDTH 4 0
BBX 5 10 0 0
BITMAP
10
30
38
48
00
70
50
C0
C8
70
ENDCHAR
STARTCHAR cdotaccent.fina
ENCODING -1
SWIDTH 404 0
DWIDTH 4 0
BBX 5 7 0 0
BITMAP
30
00
70
50
C0
C8
70
ENDCHAR
STARTCHAR d.fina
ENCODING -1
SWIDTH 493 0
DWIDTH 5 0
BBX 7 10 0 0
BITMAP
04
0A
0A
1C
1C
3C
58
D8
D8
68
ENDCHAR
STARTCHAR dcaron.fina
ENCODING -1
SWIDTH 458 0
DWIDTH 5 0
BBX 7 10 0 0
BITMAP
02
0E
0A
08
08
38
78
D8
D0
70
ENDCHAR
STARTCHAR dcroat.fina
ENCODING -1
SWIDTH 458 0
DWIDTH 5 0
BBX 6 9 0 0
BITMAP
0C
0C
3C
08
38
78
D8
D0
70
ENDCHAR
STARTCHAR uni01C6.fina
ENCODING -1
SWIDTH 876 0
DWIDTH 10 0
BBX 10 13 0 -4
BITMAP
0D40
0940
0980
0800
3BC0
7880
D300
D700
6D80
0380
0580
0500
0600
ENDCHAR
STARTCHAR e.fina
ENCODING -1
SWIDTH 411 0
DWIDTH 5 0
BBX 5 5 0 0
BITMAP
70
50
F0
C8
70
ENDCHAR
STARTCHAR eacute.fina
ENCODING -1
SWIDTH 411 0
DWIDTH 5 0
BBX 5 9 0 0
BITMAP
08
10
10
00
70
50
F0
C8
70
ENDCHAR
STARTCHAR ebreve.fina
ENCODING -1
SWIDTH 411 0
DWIDTH 5 0
BBX 5 8 0 0
BITMAP
48
78
00
70
50
F0
C8
70
ENDCHAR
STARTCHAR ecaron.fina
ENCODING -1
SWIDTH 411 0
DWIDTH 5 0
BBX 5 10 0 0
BITMAP
28
28
30
30
00
70
50
F0
C8
70
ENDCHAR
STARTCHAR ecircumflex.fina
ENCODING -1
SWIDTH 411 0
DWIDTH 5 0
BBX 5 10 0 0
BITMAP
10
30
38
48
00
70
50
F0
C8
70
ENDCHAR
STARTCHAR uni1EBF.fina
ENCODING -1
SWIDTH 411 0
DWIDTH 5 0
BBX 6 10 0 0
BITMAP
04
0C
30
48
00
70
50
F0
C8
70
ENDCHAR
STARTCHAR uni1EC7.fina
ENCODING -1
SWIDTH 411 0
DWIDTH 5 0
BBX 5 12 0 -2
BITMAP
10
30
38
48
00
70
50
F0
C8
70
00
60
ENDCHAR
STARTCHAR uni1EC1.fina
ENCODING -1
SWIDTH 411 0
DWIDTH 5 0
BBX 5 10 0 0
BITMAP
80
C0
30
48
00
70
50
F0
C8
70
ENDCHAR
STARTCHAR uni1EC3.fina
ENCODING -1
SWIDTH 411 0
DWIDTH 5 0
BBX 6 9 0 0
BITMAP
0C
04
34
78
70
50
F0
C8
70
ENDCHAR
STARTCHAR uni1EC5.fina
ENCODING -1
SWIDTH 411 0
DWIDTH 5 0
BBX 5 10 0 0
BITMAP
38
48
30
48
00
70
50
F0
C8
70
ENDCHAR
STARTCHAR uni0205.fina
ENCODING -1
SWIDTH 411 0
DWIDTH 5 0
BBX 5 10 0 0
BITMAP
60
F0
50
50
00
70
50
F0
C8
70
ENDCHAR
STARTCHAR edieresis.fina
ENCODING -1
SWIDTH 411 0
DWIDTH 5 0
BBX 5 7 0 0
BITMAP
78
00
70
50
F0
C8
70
ENDCHAR
STARTCHAR edotaccent.fina
ENCODING -1
SWIDTH 411 0
DWIDTH 5 0
BBX 5 7 0 0
BITMAP
30
00
70
50
F0
C8
70
ENDCHAR
STARTCHAR uni1EB9.fina
ENCODING -1
SWIDTH 411 0
DWIDTH 5 0
BBX 5 7 0 -2
BITMAP
70
50
F0
C8
70
00
60
ENDCHAR
STARTCHAR egrave.fina
ENCODING -1
SWIDTH 411 0
DWIDTH 5 0
BBX 5 10 0 0
BITMAP
40
40
20
20
00
70
50
F0
C8
70
ENDCHAR
STARTCHAR uni1EBB.fina
ENCODING -1
SWIDTH 411 0
DWIDTH 5 0
BBX 5 9 0 0
BITMAP
30
08
30
00
70
50
F0
C8
70
ENDCHAR
STARTCHAR uni0207.fina
ENCODING -1
SWIDTH 411 0
DWIDTH 5 0
BBX 5 8 0 0
BITMAP
38
48
48
70
50
F0
C8
70
ENDCHAR
STARTCHAR emacron.fina
ENCODING -1
SWIDTH 411 0
DWIDTH 5 0
BBX 5 7 0 0
BITMAP
78
00
70
50
F0
C8
70
ENDCHAR
STARTCHAR eogonek.fina
ENCODING -1
SWIDTH 411 0
DWIDTH 5 0
BBX 5 8 0 -3
BITMAP
70
50
D0
E8
70
20
20
38
ENDCHAR
STARTCHAR uni1EBD.fina
ENCODING -1
SWIDTH 411 0
DWIDTH 5 0
BBX 5 8 0 0
BITMAP
68
58
00
70
50
F0
C8
70
ENDCHAR
STARTCHAR g.fina
ENCODING -1
SWIDTH 449 0
DWIDTH 5 0
BBX 5 10 0 -5
BITMAP
38
78
D8
D0
70
30
50
A0
A0
C0
ENDCHAR
STARTCHAR gbreve.fina
ENCODING -1
SWIDTH 449 0
DWIDTH 5 0
BBX 6 13 0 -5
BITMAP
6C
38
00
38
78
D8
D0
70
30
50
A0
A0
C0
ENDCHAR
STARTCHAR gcaron.fina
ENCODING -1
SWIDTH 449 0
DWIDTH 5 0
BBX 6 15 0 -5
BITMAP
24
28
28
10
00
38
78
D8
D0
70
30
50
A0
A0
C0
ENDCHAR
STARTCHAR gcircumflex.fina
ENCODING -1
SWIDTH 449 0
DWIDTH 5 0
BBX 5 15 0 -5
BITMAP
10
18
28
28
00
38
78
D8
D0
70
30
50
A0
A0
C0
ENDCHAR
STARTCHAR uni0123.fina
ENCODING -1
SWIDTH 449 0
DWIDTH 5 0
BBX 5 14 0 -5
BITMAP
10
10
10
00
38
78
D8
D0
70
30
50
A0
A0
C0
ENDCHAR
STARTCHAR gdotaccent.fina
ENCODING -1
SWIDTH 449 0
DWIDTH 5 0
BBX 5 12 0 -5
BITMAP
30
00
38
78
D8
D0
70
30
50
A0
A0
C0
ENDCHAR
STARTCHAR h.fina
ENCODING -1
SWIDTH 490 0
DWIDTH 5 0
BBX 4 10 1 0
BITMAP
60
50
D0
A0
A0
F0
F0
D0
B0
B0
ENDCHAR
STARTCHAR hbar.fina
ENCODING -1
SWIDTH 490 0
DWIDTH 5 0
BBX 4 9 1 0
BITMAP
40
40
F0
C0
B0
F0
D0
B0
B0
ENDCHAR
STARTCHAR hcircumflex.fina
ENCODING -1
SWIDTH 490 0
DWIDTH 5 0
BBX 5 14 1 0
BITMAP
30
70
58
00
60
50
D0
A0
A0
F0
F0
D0
B0
B0
ENDCHAR
STARTCHAR i.fina
ENCODING -1
SWIDTH 222 0
DWIDTH 2 0
BBX 3 7 0 0
BITMAP
60
00
40
40
40
C0
C0
ENDCHAR
STARTCHAR dotlessi.fina
ENCODING -1
SWIDTH 222 0
DWIDTH 2 0
BBX 2 5 0 0
BITMAP
40
40
40
C0
C0
ENDCHAR
STARTCHAR iacute.fina
ENCODING -1
SWIDTH 222 0
DWIDTH 2 0
BBX 4 9 0 0
BITMAP
10
20
20
00
40
40
40
C0
C0
ENDCHAR
STARTCHAR iacute_j.loclNLD.fina
ENCODING -1
SWIDTH 479 0
DWIDTH 5 0
BBX 6 14 0 -5
BITMAP
14
34
28
00
48
58
50
70
70
30
50
A0
A0
C0
ENDCHAR
STARTCHAR ibreve.fina
ENCODING -1
SWIDTH 222 0
DWIDTH 2 0
BBX 4 8 0 0
BITMAP
90
F0
00
40
40
40
C0
C0
ENDCHAR
STARTCHAR icircumflex.fina
ENCODING -1
SWIDTH 222 0
DWIDTH 2 0
BBX 4 10 0 0
BITMAP
20
60
70
90
00
40
40
40
C0
C0
ENDCHAR
STARTCHAR uni0209.fina
ENCODING -1
SWIDTH 222 0
DWIDTH 2 0
BBX 4 10 -1 0
BITMAP
A0
F0
50
50
00
20
20
20
60
60
ENDCHAR
STARTCHAR idieresis.fina
ENCODING -1
SWIDTH 222 0
DWIDTH 2 0
BBX 4 7 0 0
BITMAP
F0
00
40
40
40
C0
C0
ENDCHAR
STARTCHAR i.loclTRK.fina
ENCODING -1
SWIDTH 222 0
DWIDTH 2 0
BBX 3 7 0 0
BITMAP
60
00
40
40
40
C0
C0
ENDCHAR
STARTCHAR uni1ECB.fina
ENCODING -1
SWIDTH 222 0
DWIDTH 2 0
BBX 3 9 0 -2
BITMAP
60
00
40
40
40
C0
C0
00
C0
ENDCHAR
STARTCHAR igrave.fina
ENCODING -1
SWIDTH 222 0
DWIDTH 2 0
BBX 2 10 0 0
BITMAP
80
80
40
40
00
40
40
40
C0
C0
ENDCHAR
STARTCHAR uni1EC9.fina
ENCODING -1
SWIDTH 222 0
DWIDTH 2 0
BBX 4 9 0 0
BITMAP
60
10
60
00
40
40
40
C0
C0
ENDCHAR
STARTCHAR uni020B.fina
ENCODING -1
SWIDTH 222 0
DWIDTH 2 0
BBX 4 8 0 0
BITMAP
70
90
90
40
40
40
C0
C0
ENDCHAR
STARTCHAR imacron.fina
ENCODING -1
SWIDTH 222 0
DWIDTH 2 0
BBX 4 7 0 0
BITMAP
F0
00
40
40
40
C0
C0
ENDCHAR
STARTCHAR iogonek.fina
ENCODING -1
SWIDTH 222 0
DWIDTH 2 0
BBX 3 10 0 -3
BITMAP
60
00
40
40
40
C0
C0
80
80
E0
ENDCHAR
STARTCHAR itilde.fina
ENCODING -1
SWIDTH 222 0
DWIDTH 2 0
BBX 4 8 0 0
BITMAP
D0
B0
00
40
40
40
C0
C0
ENDCHAR
STARTCHAR j.fina
ENCODING -1
SWIDTH 229 0
DWIDTH 3 0
BBX 6 12 -3 -5
BITMAP
0C
00
08
08
08
08
18
18
30
50
F0
60
ENDCHAR
STARTCHAR uni0237.fina
ENCODING -1
SWIDTH 229 0
DWIDTH 3 0
BBX 5 10 -3 -5
BITMAP
08
08
08
08
18
18
30
50
F0
60
ENDCHAR
STARTCHAR jcircumflex.fina
ENCODING -1
SWIDTH 229 0
DWIDTH 3 0
BBX 7 15 -3 -5
BITMAP
04
0C
0C
16
00
08
08
08
08
18
18
30
50
F0
60
ENDCHAR
STARTCHAR k.fina
ENCODING -1
SWIDTH 521 0
DWIDTH 6 0
BBX 5 10 1 0
BITMAP
60
50
D0
A0
A0
F0
D8
D0
A0
B8
ENDCHAR
STARTCHAR uni0137.fina
ENCODING -1
SWIDTH 521 0
DWIDTH 6 0
BBX 5 13 1 -3
BITMAP
60
50
D0
A0
A0
F0
D8
D0
A0
B8
40
40
40
ENDCHAR
STARTCHAR kgreenlandic.fina
ENCODING -1
SWIDTH 541 0
DWIDTH 6 0
BBX 5 5 1 0
BITMAP
B0
F8
C0
C8
B8
ENDCHAR
STARTCHAR l.fina
ENCODING -1
SWIDTH 368 0
DWIDTH 4 0
BBX 4 10 1 0
BITMAP
60
50
D0
A0
A0
A0
C0
80
A0
E0
ENDCHAR
STARTCHAR lacute.fina
ENCODING -1
SWIDTH 368 0
DWIDTH 4 0
BBX 6 14 1 0
BITMAP
08
1C
30
00
60
50
D0
A0
A0
A0
C0
80
A0
E0
ENDCHAR
STARTCHAR lcaron.fina
ENCODING -1
SWIDTH 368 0
DWIDTH 4 0
BBX 5 11 1 0
BITMAP
08
68
58
D0
A0
A0
A0
C0
80
A0
E0
ENDCHAR
STARTCHAR uni013C.fina
ENCODING -1
SWIDTH 368 0
DWIDTH 4 0
BBX 4 13 1 -3
BITMAP
60
50
D0
A0
A0
A0
C0
80
A0
E0
C0
80
80
ENDCHAR
STARTCHAR ldot.fina
ENCODING -1
SWIDTH 466 0
DWIDTH 5 0
BBX 4 10 1 0
BITMAP
40
40
C0
C0
A0
A0
80
80
90
E0
ENDCHAR
STARTCHAR uni01C9.fina
ENCODING -1
SWIDTH 555 0
DWIDTH 6 0
BBX 5 15 1 -5
BITMAP
60
50
D0
B8
A0
A8
D8
98
90
F0
30
50
B0
A0
E0
ENDCHAR
STARTCHAR lslash.fina
ENCODING -1
SWIDTH 368 0
DWIDTH 4 0
BBX 5 11 1 0
BITMAP
78
C0
60
50
D0
A0
A0
C0
80
A0
E0
ENDCHAR
STARTCHAR m.fina
ENCODING -1
SWIDTH 732 0
DWIDTH 8 0
BBX 7 5 1 0
BITMAP
B6
FE
F6
B4
B4
ENDCHAR
STARTCHAR n.fina
ENCODING -1
SWIDTH 484 0
DWIDTH 5 0
BBX 4 5 1 0
BITMAP
B0
F0
F0
B0
B0
ENDCHAR
STARTCHAR nacute.fina
ENCODING -1
SWIDTH 484 0
DWIDTH 5 0
BBX 5 9 1 0
BITMAP
18
10
20
00
B0
F0
F0
B0
B0
ENDCHAR
STARTCHAR napostrophe.fina
ENCODING -1
SWIDTH 484 0
DWIDTH 5 0
BBX 5 9 0 0
BITMAP
80
80
80
00
58
78
78
58
58
ENDCHAR
STARTCHAR ncaron.fina
ENCODING -1
SWIDTH 484 0
DWIDTH 5 0
BBX 5 10 1 0
BITMAP
48
58
70
20
00
B0
F0
F0
B0
B0
ENDCHAR
STARTCHAR uni0146.fina
ENCODING -1
SWIDTH 484 0
DWIDTH 5 0
BBX 4 8 1 -3
BITMAP
B0
F0
F0
B0
B0
40
40
40
ENDCHAR
STARTCHAR eng.fina
ENCODING -1
SWIDTH 484 0
DWIDTH 5 0
BBX 5 8 0 -3
BITMAP
58
78
78
50
50
10
A0
60
ENDCHAR
STARTCHAR uni01CC.fina
ENCODING -1
SWIDTH 725 0
DWIDTH 8 0
BBX 7 12 1 -5
BITMAP
06
00
B6
F6
F4
B4
BC
0C
14
28
28
30
ENDCHAR
STARTCHAR ntilde.fina
ENCODING -1
SWIDTH 484 0
DWIDTH 5 0
BBX 5 8 1 0
BITMAP
68
B0
00
B0
F0
F0
B0
B0
ENDCHAR
STARTCHAR o.fina
ENCODING -1
SWIDTH 453 0
DWIDTH 5 0
BBX 5 5 0 0
BITMAP
70
58
D8
D8
70
ENDCHAR
STARTCHAR oacute.fina
ENCODING -1
SWIDTH 453 0
DWIDTH 5 0
BBX 5 9 0 0
BITMAP
08
10
10
00
70
58
D8
D8
70
ENDCHAR
STARTCHAR obreve.fina
ENCODING -1
SWIDTH 453 0
DWIDTH 5 0
BBX 5 8 0 0
BITMAP
48
78
00
70
58
D8
D8
70
ENDCHAR
STARTCHAR ocircumflex.fina
ENCODING -1
SWIDTH 453 0
DWIDTH 5 0
BBX 5 10 0 0
BITMAP
10
30
38
48
00
70
58
D8
D8
70
ENDCHAR
STARTCHAR uni1ED1.fina
ENCODING -1
SWIDTH 453 0
DWIDTH 5 0
BBX 6 10 0 0
BITMAP
04
0C
30
48
00
70
58
D8
D8
70
ENDCHAR
STARTCHAR uni1ED9.fina
ENCODING -1
SWIDTH 453 0
DWIDTH 5 0
BBX 5 12 0 -2
BITMAP
10
30
38
48
00
70
58
D8
D8
70
00
60
ENDCHAR
STARTCHAR uni1ED3.fina
ENCODING -1
SWIDTH 453 0
DWIDTH 5 0
BBX 5 10 0 0
BITMAP
80
C0
30
48
00
70
58
D8
D8
70
ENDCHAR
STARTCHAR uni1ED5.fina
ENCODING -1
SWIDTH 453 0
DWIDTH 5 0
BBX 6 9 0 0
BITMAP
0C
04
34
78
70
58
D8
D8
70
ENDCHAR
STARTCHAR uni1ED7.fina
ENCODING -1
SWIDTH 453 0
DWIDTH 5 0
BBX 5 10 0 0
BITMAP
38
48
30
48
00
70
58
D8
D8
70
ENDCHAR
STARTCHAR uni020D.fina
ENCODING -1
SWIDTH 453 0
DWIDTH 5 0
BBX 5 10 0 0
BITMAP
A0
F0
50
50
00
70
58
D8
D8
70
ENDCHAR
STARTCHAR odieresis.fina
ENCODING -1
SWIDTH 453 0
DWIDTH 5 0
BBX 5 7 0 0
BITMAP
78
00
70
58
D8
D8
70
ENDCHAR
STARTCHAR uni022B.fina
ENCODING -1
SWIDTH 453 0
DWIDTH 5 0
BBX 5 10 0 0
BITMAP
78
00
00
78
00
70
58
D8
D8
70
ENDCHAR
STARTCHAR uni0231.fina
ENCODING -1
SWIDTH 453 0
DWIDTH 5 0
BBX 5 10 0 0
BITMAP
78
00
00
30
00
70
58
D8
D8
70
ENDCHAR
STARTCHAR uni1ECD.fina
ENCODING -1
SWIDTH 453 0
DWIDTH 5 0
BBX 5 7 0 -2
BITMAP
70
58
D8
D8
70
00
60
ENDCHAR
STARTCHAR ograve.fina
ENCODING -1
SWIDTH 453 0
DWIDTH 5 0
BBX 5 10 0 0
BITMAP
40
40
20
20
00
70
58
D8
D8
70
ENDCHAR
STARTCHAR uni1ECF.fina
ENCODING -1
SWIDTH 453 0
DWIDTH 5 0
BBX 5 9 0 0
BITMAP
30
08
30
00
70
58
D8
D8
70
ENDCHAR
STARTCHAR ohorn.fina
ENCODING -1
SWIDTH 453 0
DWIDTH 5 0
BBX 5 7 0 0
BITMAP
08
08
78
58
D8
D8
70
ENDCHAR
STARTCHAR uni1EDB.fina
ENCODING -1
SWIDTH 453 0
DWIDTH 5 0
BBX 5 9 0 0
BITMAP
18
10
28
08
78
58
D8
D8
70
ENDCHAR
STARTCHAR uni1EE3.fina
ENCODING -1
SWIDTH 453 0
DWIDTH 5 0
BBX 5 9 0 -2
BITMAP
08
08
78
58
D8
D8
70
00
60
ENDCHAR
STARTCHAR uni1EDD.fina
ENCODING -1
SWIDTH 453 0
DWIDTH 5 0
BBX 5 10 0 0
BITMAP
40
40
60
28
08
78
58
D8
D8
70
ENDCHAR
STARTCHAR uni1EDF.fina
ENCODING -1
SWIDTH 453 0
DWIDTH 5 0
BBX 5 9 0 0
BITMAP
30
10
38
08
78
58
D8
D8
70
ENDCHAR
STARTCHAR uni1EE1.fina
ENCODING -1
SWIDTH 453 0
DWIDTH 5 0
BBX 5 8 0 0
BITMAP
68
58
08
78
58
D8
D8
70
ENDCHAR
STARTCHAR ohungarumlaut.fina
ENCODING -1
SWIDTH 453 0
DWIDTH 5 0
BBX 6 10 0 0
BITMAP
28
3C
28
50
00
70
58
D8
D8
70
ENDCHAR
STARTCHAR uni020F.fina
ENCODING -1
SWIDTH 453 0
DWIDTH 5 0
BBX 5 8 0 0
BITMAP
38
48
48
70
58
D8
D8
70
ENDCHAR
STARTCHAR omacron.fina
ENCODING -1
SWIDTH 453 0
DWIDTH 5 0
BBX 5 7 0 0
BITMAP
78
00
70
58
D8
D8
70
ENDCHAR
STARTCHAR uni01EB.fina
ENCODING -1
SWIDTH 453 0
DWIDTH 5 0
BBX 5 8 0 -3
BITMAP
70
58
D8
D8
70
20
40
30
ENDCHAR
STARTCHAR oslash.fina
ENCODING -1
SWIDTH 463 0
DWIDTH 5 0
BBX 5 8 0 -1
BITMAP
10
10
70
78
E8
F8
70
20
ENDCHAR
STARTCHAR oslashacute.fina
ENCODING -1
SWIDTH 463 0
DWIDTH 5 0
BBX 5 10 0 -1
BITMAP
10
20
20
10
70
78
E8
F8
70
20
ENDCHAR
STARTCHAR otilde.fina
ENCODING -1
SWIDTH 453 0
DWIDTH 5 0
BBX 5 8 0 0
BITMAP
68
58
00
70
58
D8
D8
70
ENDCHAR
STARTCHAR uni022D.fina
ENCODING -1
SWIDTH 453 0
DWIDTH 5 0
BBX 5 10 0 0
BITMAP
78
00
68
58
00
70
58
D8
D8
70
ENDCHAR
STARTCHAR oe.fina
ENCODING -1
SWIDTH 686 0
DWIDTH 8 0
BBX 8 5 0 0
BITMAP
76
5A
DE
D9
7E
ENDCHAR
STARTCHAR p.fina
ENCODING -1
SWIDTH 457 0
DWIDTH 5 0
BBX 6 10 -1 -5
BITMAP
3C
2C
2C
68
70
A0
A0
E0
C0
C0
ENDCHAR
STARTCHAR thorn.fina
ENCODING -1
SWIDTH 483 0
DWIDTH 5 0
BBX 5 12 0 -3
BITMAP
20
60
60
40
58
68
C8
D8
E0
C0
C0
C0
ENDCHAR
STARTCHAR q.fina
ENCODING -1
SWIDTH 449 0
DWIDTH 5 0
BBX 5 9 0 -3
BITMAP
08
38
78
D0
D0
70
10
30
30
ENDCHAR
STARTCHAR r.fina
ENCODING -1
SWIDTH 495 0
DWIDTH 5 0
BBX 5 5 1 0
BITMAP
B0
F8
D0
80
80
ENDCHAR
STARTCHAR racute.fina
ENCODING -1
SWIDTH 495 0
DWIDTH 5 0
BBX 5 9 1 0
BITMAP
10
30
20
00
B0
F8
D0
80
80
ENDCHAR
STARTCHAR rcaron.fina
ENCODING -1
SWIDTH 495 0
DWIDTH 5 0
BBX 5 10 1 0
BITMAP
48
50
50
60
00
B0
F8
D0
80
80
ENDCHAR
STARTCHAR uni0157.fina
ENCODING -1
SWIDTH 495 0
DWIDTH 5 0
BBX 6 8 0 -3
BITMAP
58
7C
68
40
40
40
C0
80
ENDCHAR
STARTCHAR uni0211.fina
ENCODING -1
SWIDTH 495 0
DWIDTH 5 0
BBX 5 10 1 0
BITMAP
A0
A0
A0
50
00
B0
F8
D0
80
80
ENDCHAR
STARTCHAR uni0213.fina
ENCODING -1
SWIDTH 495 0
DWIDTH 5 0
BBX 5 8 1 0
BITMAP
70
D8
88
B0
F8
D0
80
80
ENDCHAR
STARTCHAR s.fina
ENCODING -1
SWIDTH 394 0
DWIDTH 4 0
BBX 4 5 0 0
BITMAP
20
60
70
B0
70
ENDCHAR
STARTCHAR sacute.fina
ENCODING -1
SWIDTH 394 0
DWIDTH 4 0
BBX 5 9 0 0
BITMAP
08
10
10
00
20
60
70
B0
70
ENDCHAR
STARTCHAR scaron.fina
ENCODING -1
SWIDTH 394 0
DWIDTH 4 0
BBX 5 10 0 0
BITMAP
28
28
30
30
00
20
60
70
B0
70
ENDCHAR
STARTCHAR scedilla.fina
ENCODING -1
SWIDTH 394 0
DWIDTH 4 0
BBX 4 8 0 -3
BITMAP
20
20
70
D0
70
10
10
60
ENDCHAR
STARTCHAR scircumflex.fina
ENCODING -1
SWIDTH 394 0
DWIDTH 4 0
BBX 5 10 0 0
BITMAP
10
30
38
48
00
20
60
70
B0
70
ENDCHAR
STARTCHAR uni0219.fina
ENCODING -1
SWIDTH 394 0
DWIDTH 4 0
BBX 4 8 0 -3
BITMAP
20
60
70
B0
70
20
20
20
ENDCHAR
STARTCHAR germandbls.fina
ENCODING -1
SWIDTH 580 0
DWIDTH 6 0
BBX 6 11 0 -2
BITMAP
1C
24
64
48
50
58
4C
74
DC
C0
C0
ENDCHAR
STARTCHAR uni01C9.ss01.fina
ENCODING -1
SWIDTH 466 0
DWIDTH 5 0
BBX 5 14 0 -5
BITMAP
20
60
78
40
48
58
58
D0
70
30
50
F0
A0
E0
ENDCHAR
STARTCHAR eng.ss01.fina
ENCODING -1
SWIDTH 484 0
DWIDTH 5 0
BBX 5 10 0 -5
BITMAP
58
78
78
58
58
30
70
50
A0
60
ENDCHAR
STARTCHAR p.ss01.fina
ENCODING -1
SWIDTH 488 0
DWIDTH 5 0
BBX 6 10 -1 -5
BITMAP
2C
3C
34
2C
6C
60
A0
E0
C0
C0
ENDCHAR
STARTCHAR z.ss01.fina
ENCODING -1
SWIDTH 406 0
DWIDTH 4 0
BBX 5 10 0 -4
BITMAP
48
78
30
40
60
30
70
A0
A0
C0
ENDCHAR
STARTCHAR zacute.ss01.fina
ENCODING -1
SWIDTH 406 0
DWIDTH 4 0
BBX 5 13 0 -4
BITMAP
18
10
20
48
78
30
40
60
30
70
A0
A0
C0
ENDCHAR
STARTCHAR zcaron.ss01.fina
ENCODING -1
SWIDTH 406 0
DWIDTH 4 0
BBX 5 14 0 -4
BITMAP
28
68
30
30
48
78
30
40
60
30
70
A0
A0
C0
ENDCHAR
STARTCHAR zdotaccent.ss01.fina
ENCODING -1
SWIDTH 406 0
DWIDTH 4 0
BBX 5 11 0 -4
BITMAP
30
48
78
30
40
60
30
70
A0
A0
C0
ENDCHAR
STARTCHAR t.fina
ENCODING -1
SWIDTH 413 0
DWIDTH 5 0
BBX 5 10 0 0
BITMAP
18
28
28
70
50
F8
40
40
68
30
ENDCHAR
STARTCHAR tbar.fina
ENCODING -1
SWIDTH 387 0
DWIDTH 4 0
BBX 4 9 0 0
BITMAP
20
20
60
60
F0
F0
40
50
70
ENDCHAR
STARTCHAR tcaron.fina
ENCODING -1
SWIDTH 413 0
DWIDTH 5 0
BBX 7 11 0 0
BITMAP
02
1A
2C
28
70
50
F8
40
40
68
30
ENDCHAR
STARTCHAR uni0163.fina
ENCODING -1
SWIDTH 413 0
DWIDTH 5 0
BBX 5 12 0 -3
BITMAP
18
28
28
70
F8
40
40
40
78
70
10
60
ENDCHAR
STARTCHAR uni021B.fina
ENCODING -1
SWIDTH 413 0
DWIDTH 5 0
BBX 5 13 0 -3
BITMAP
18
28
28
70
50
F8
40
40
68
30
20
20
20
ENDCHAR
STARTCHAR u.fina
ENCODING -1
SWIDTH 460 0
DWIDTH 5 0
BBX 4 5 1 0
BITMAP
90
B0
B0
E0
E0
ENDCHAR
STARTCHAR uacute.fina
ENCODING -1
SWIDTH 460 0
DWIDTH 5 0
BBX 4 9 1 0
BITMAP
10
30
20
00
90
B0
B0
E0
E0
ENDCHAR
STARTCHAR ubreve.fina
ENCODING -1
SWIDTH 460 0
DWIDTH 5 0
BBX 5 8 1 0
BITMAP
D8
70
00
90
B0
B0
E0
E0
ENDCHAR
STARTCHAR ucircumflex.fina
ENCODING -1
SWIDTH 460 0
DWIDTH 5 0
BBX 4 10 1 0
BITMAP
20
30
50
D0
00
90
B0
B0
E0
E0
ENDCHAR
STARTCHAR uni0215.fina
ENCODING -1
SWIDTH 460 0
DWIDTH 5 0
BBX 4 10 1 0
BITMAP
A0
A0
A0
50
00
90
B0
B0
E0
E0
ENDCHAR
STARTCHAR udieresis.fina
ENCODING -1
SWIDTH 460 0
DWIDTH 5 0
BBX 4 7 1 0
BITMAP
D0
00
90
B0
B0
E0
E0
ENDCHAR
STARTCHAR uni1EE5.fina
ENCODING -1
SWIDTH 460 0
DWIDTH 5 0
BBX 4 7 1 -2
BITMAP
90
B0
B0
E0
E0
00
C0
ENDCHAR
STARTCHAR ugrave.fina
ENCODING -1
SWIDTH 460 0
DWIDTH 5 0
BBX 4 10 1 0
BITMAP
80
C0
40
20
00
90
B0
B0
E0
E0
ENDCHAR
STARTCHAR uni1EE7.fina
ENCODING -1
SWIDTH 460 0
DWIDTH 5 0
BBX 4 9 1 0
BITMAP
70
10
30
00
90
B0
B0
E0
E0
ENDCHAR
STARTCHAR uhorn.fina
ENCODING -1
SWIDTH 472 0
DWIDTH 5 0
BBX 5 7 1 0
BITMAP
08
08
98
B0
B0
E0
E0
ENDCHAR
STARTCHAR uni1EE9.fina
ENCODING -1
SWIDTH 472 0
DWIDTH 5 0
BBX 5 9 1 0
BITMAP
10
30
28
08
98
B0
B0
E0
E0
ENDCHAR
STARTCHAR uni1EF1.fina
ENCODING -1
SWIDTH 472 0
DWIDTH 5 0
BBX 5 9 1 -2
BITMAP
08
08
98
B0
B0
E0
E0
00
C0
ENDCHAR
STARTCHAR uni1EEB.fina
ENCODING -1
SWIDTH 472 0
DWIDTH 5 0
BBX 5 10 1 0
BITMAP
80
C0
40
28
08
98
B0
B0
E0
E0
ENDCHAR
STARTCHAR uni1EED.fina
ENCODING -1
SWIDTH 472 0
DWIDTH 5 0
BBX 5 9 1 0
BITMAP
70
10
38
08
98
B0
B0
E0
E0
ENDCHAR
STARTCHAR uni1EEF.fina
ENCODING -1
SWIDTH 472 0
DWIDTH 5 0
BBX 5 8 1 0
BITMAP
50
B8
08
98
B0
B0
E0
E0
ENDCHAR
STARTCHAR uhungarumlaut.fina
ENCODING -1
SWIDTH 460 0
DWIDTH 5 0
BBX 5 10 1 0
BITMAP
28
78
50
50
00
90
B0
B0
E0
E0
ENDCHAR
STARTCHAR uni0217.fina
ENCODING -1
SWIDTH 460 0
DWIDTH 5 0
BBX 5 8 1 0
BITMAP
70
D8
88
90
B0
B0
E0
E0
ENDCHAR
STARTCHAR umacron.fina
ENCODING -1
SWIDTH 460 0
DWIDTH 5 0
BBX 4 7 1 0
BITMAP
F0
00
90
B0
B0
E0
E0
ENDCHAR
STARTCHAR uogonek.fina
ENCODING -1
SWIDTH 460 0
DWIDTH 5 0
BBX 4 8 1 -3
BITMAP
90
B0
B0
E0
E0
20
60
30
ENDCHAR
STARTCHAR uring.fina
ENCODING -1
SWIDTH 460 0
DWIDTH 5 0
BBX 4 9 1 0
BITMAP
70
50
70
00
90
B0
B0
E0
E0
ENDCHAR
STARTCHAR utilde.fina
ENCODING -1
SWIDTH 460 0
DWIDTH 5 0
BBX 5 8 1 0
BITMAP
48
B0
00
90
B0
B0
E0
E0
ENDCHAR
STARTCHAR v.fina
ENCODING -1
SWIDTH 420 0
DWIDTH 5 0
BBX 4 5 1 0
BITMAP
90
B0
A0
E0
C0
ENDCHAR
STARTCHAR w.fina
ENCODING -1
SWIDTH 666 0
DWIDTH 7 0
BBX 7 5 1 0
BITMAP
B6
B4
BC
D8
D8
ENDCHAR
STARTCHAR wacute.fina
ENCODING -1
SWIDTH 666 0
DWIDTH 7 0
BBX 7 9 1 0
BITMAP
08
18
10
00
B6
B4
BC
D8
D8
ENDCHAR
STARTCHAR wcircumflex.fina
ENCODING -1
SWIDTH 666 0
DWIDTH 7 0
BBX 7 10 1 0
BITMAP
10
38
28
68
00
B6
B4
BC
D8
D8
ENDCHAR
STARTCHAR wdieresis.fina
ENCODING -1
SWIDTH 666 0
DWIDTH 7 0
BBX 7 7 1 0
BITMAP
68
00
B6
B4
BC
D8
D8
ENDCHAR
STARTCHAR wgrave.fina
ENCODING -1
SWIDTH 666 0
DWIDTH 7 0
BBX 7 10 1 0
BITMAP
40
60
20
10
00
B6
B4
BC
D8
D8
ENDCHAR
STARTCHAR x.fina
ENCODING -1
SWIDTH 580 0
DWIDTH 6 0
BBX 7 5 0 0
BITMAP
6C
54
10
F2
FC
ENDCHAR
STARTCHAR y.fina
ENCODING -1
SWIDTH 449 0
DWIDTH 5 0
BBX 5 10 0 -5
BITMAP
48
58
50
70
70
30
50
A0
A0
C0
ENDCHAR
STARTCHAR yacute.fina
ENCODING -1
SWIDTH 449 0
DWIDTH 5 0
BBX 5 14 0 -5
BITMAP
08
18
10
00
48
58
50
70
70
30
50
A0
A0
C0
ENDCHAR
STARTCHAR ycircumflex.fina
ENCODING -1
SWIDTH 449 0
DWIDTH 5 0
BBX 5 15 0 -5
BITMAP
10
18
28
68
00
48
58
50
70
70
30
50
A0
A0
C0
ENDCHAR
STARTCHAR ydieresis.fina
ENCODING -1
SWIDTH 449 0
DWIDTH 5 0
BBX 5 12 0 -5
BITMAP
68
00
48
58
50
70
70
30
50
A0
A0
C0
ENDCHAR
STARTCHAR uni1EF5.fina
ENCODING -1
SWIDTH 449 0
DWIDTH 5 0
BBX 5 10 0 -5
BITMAP
48
58
50
70
70
30
50
A0
B8
C0
ENDCHAR
STARTCHAR ygrave.fina
ENCODING -1
SWIDTH 449 0
DWIDTH 5 0
BBX 5 15 0 -5
BITMAP
40
60
20
10
00
48
58
50
70
70
30
50
A0
A0
C0
ENDCHAR
STARTCHAR uni1EF7.fina
ENCODING -1
SWIDTH 449 0
DWIDTH 5 0
BBX 5 14 0 -5
BITMAP
38
08
18
00
48
58
50
70
70
30
50
A0
A0
C0
ENDCHAR
STARTCHAR uni0233.fina
ENCODING -1
SWIDTH 449 0
DWIDTH 5 0
BBX 5 12 0 -5
BITMAP
78
00
48
58
50
70
70
30
50
A0
A0
C0
ENDCHAR
STARTCHAR uni1EF9.fina
ENCODING -1
SWIDTH 449 0
DWIDTH 5 0
BBX 6 13 0 -5
BITMAP
24
58
00
48
58
50
70
70
30
50
A0
A0
C0
ENDCHAR
STARTCHAR z.fina
ENCODING -1
SWIDTH 412 0
DWIDTH 5 0
BBX 5 5 0 0
BITMAP
78
30
60
C0
F8
ENDCHAR
STARTCHAR zacute.fina
ENCODING -1
SWIDTH 412 0
DWIDTH 5 0
BBX 5 9 0 0
BITMAP
08
10
10
00
78
30
60
C0
F8
ENDCHAR
STARTCHAR zcaron.fina
ENCODING -1
SWIDTH 412 0
DWIDTH 5 0
BBX 5 10 0 0
BITMAP
28
28
30
30
00
78
30
60
C0
F8
ENDCHAR
STARTCHAR zdotaccent.fina
ENCODING -1
SWIDTH 412 0
DWIDTH 5 0
BBX 5 7 0 0
BITMAP
30
00
78
30
60
C0
F8
ENDCHAR
STARTCHAR iacute_j.loclNLD
ENCODING -1
SWIDTH 479 0
DWIDTH 5 0
BBX 6 14 0 -5
BITMAP
14
34
28
00
48
58
50
74
78
30
50
A0
A0
C0
ENDCHAR
STARTCHAR b.ss01
ENCODING -1
SWIDTH 449 0
DWIDTH 5 0
BBX 5 10 1 0
BITMAP
60
50
D0
A0
E0
F0
B0
B8
A0
E0
ENDCHAR
STARTCHAR d.ss01
ENCODING -1
SWIDTH 470 0
DWIDTH 5 0
BBX 7 9 0 0
BITMAP
0C
08
08
08
38
78
D0
D6
6C
ENDCHAR
STARTCHAR f.ss01
ENCODING -1
SWIDTH 323 0
DWIDTH 4 0
BBX 7 15 -2 -5
BITMAP
0C
0A
1A
14
14
14
18
1E
10
10
10
70
B0
A0
60
ENDCHAR
STARTCHAR l.ss01
ENCODING -1
SWIDTH 237 0
DWIDTH 3 0
BBX 4 9 0 0
BITMAP
20
60
60
40
40
40
40
D0
60
ENDCHAR
STARTCHAR lacute.ss01
ENCODING -1
SWIDTH 237 0
DWIDTH 3 0
BBX 5 13 0 0
BITMAP
08
18
30
00
20
60
60
40
40
40
40
D0
60
ENDCHAR
STARTCHAR uni013C.ss01
ENCODING -1
SWIDTH 237 0
DWIDTH 3 0
BBX 4 12 0 -3
BITMAP
20
60
60
40
40
40
40
D0
60
40
40
40
ENDCHAR
STARTCHAR uni01C9.ss01
ENCODING -1
SWIDTH 491 0
DWIDTH 5 0
BBX 7 14 0 -5
BITMAP
20
60
78
40
48
58
58
D6
78
30
50
F0
A0
E0
ENDCHAR
STARTCHAR lslash.ss01
ENCODING -1
SWIDTH 324 0
DWIDTH 4 0
BBX 5 10 0 0
BITMAP
20
20
60
70
60
C0
40
40
48
70
ENDCHAR
STARTCHAR eng.ss01
ENCODING -1
SWIDTH 508 0
DWIDTH 6 0
BBX 7 10 0 -5
BITMAP
58
78
78
5E
58
30
70
50
A0
60
ENDCHAR
STARTCHAR o.ss01
ENCODING -1
SWIDTH 451 0
DWIDTH 5 0
BBX 6 5 0 0
BITMAP
78
5C
D8
D0
70
ENDCHAR
STARTCHAR oacute.ss01
ENCODING -1
SWIDTH 451 0
DWIDTH 5 0
BBX 6 9 0 0
BITMAP
08
10
10
00
78
5C
D8
D0
70
ENDCHAR
STARTCHAR obreve.ss01
ENCODING -1
SWIDTH 451 0
DWIDTH 5 0
BBX 6 8 0 0
BITMAP
48
78
00
78
5C
D8
D0
70
ENDCHAR
STARTCHAR ocircumflex.ss01
ENCODING -1
SWIDTH 451 0
DWIDTH 5 0
BBX 6 10 0 0
BITMAP
10
30
38
48
00
78
5C
D8
D0
70
ENDCHAR
STARTCHAR uni1ED1.ss01
ENCODING -1
SWIDTH 451 0
DWIDTH 5 0
BBX 6 10 0 0
BITMAP
04
0C
30
48
00
78
5C
D8
D0
70
ENDCHAR
STARTCHAR uni1ED9.ss01
ENCODING -1
SWIDTH 451 0
DWIDTH 5 0
BBX 6 12 0 -2
BITMAP
10
30
38
48
00
78
5C
D8
D0
70
00
60
ENDCHAR
STARTCHAR uni1ED3.ss01
ENCODING -1
SWIDTH 451 0
DWIDTH 5 0
BBX 6 10 0 0
BITMAP
80
C0
30
48
00
78
5C
D8
D0
70
ENDCHAR
STARTCHAR uni1ED5.ss01
ENCODING -1
SWIDTH 451 0
DWIDTH 5 0
BBX 6 9 0 0
BITMAP
0C
04
34
78
78
5C
D8
D0
70
ENDCHAR
STARTCHAR uni1ED7.ss01
ENCODING -1
SWIDTH 451 0
DWIDTH 5 0
BBX 6 10 0 0
BITMAP
38
48
30
48
00
78
5C
D8
D0
70
ENDCHAR
STARTCHAR uni020D.ss01
ENCODING -1
SWIDTH 451 0
DWIDTH 5 0
BBX 6 10 0 0
BITMAP
A0
F0
50
50
00
78
5C
D8
D0
70
ENDCHAR
STARTCHAR odieresis.ss01
ENCODING -1
SWIDTH 451 0
DWIDTH 5 0
BBX 6 7 0 0
BITMAP
78
00
78
5C
D8
D0
70
ENDCHAR
STARTCHAR uni022B.ss01
ENCODING -1
SWIDTH 451 0
DWIDTH 5 0
BBX 6 10 0 0
BITMAP
78
00
00
78
00
78
5C
D8
D0
70
ENDCHAR
STARTCHAR uni0231.ss01
ENCODING -1
SWIDTH 451 0
DWIDTH 5 0
BBX 6 10 0 0
BITMAP
78
00
00
30
00
78
5C
D8
D0
70
ENDCHAR
STARTCHAR uni1ECD.ss01
ENCODING -1
SWIDTH 451 0
DWIDTH 5 0
BBX 6 7 0 -2
BITMAP
78
5C
D8
D0
70
00
60
ENDCHAR
STARTCHAR ograve.ss01
ENCODING -1
SWIDTH 451 0
DWIDTH 5 0
BBX 6 10 0 0
BITMAP
40
40
20
20
00
78
5C
D8
D0
70
ENDCHAR
STARTCHAR uni1ECF.ss01
ENCODING -1
SWIDTH 451 0
DWIDTH 5 0
BBX 6 9 0 0
BITMAP
30
08
30
00
78
5C
D8
D0
70
ENDCHAR
STARTCHAR ohorn.ss01
ENCODING -1
SWIDTH 451 0
DWIDTH 5 0
BBX 6 7 0 0
BITMAP
08
0C
78
5C
D8
D0
70
ENDCHAR
STARTCHAR uni1EDB.ss01
ENCODING -1
SWIDTH 451 0
DWIDTH 5 0
BBX 6 9 0 0
BITMAP
18
10
28
0C
78
5C
D8
D0
70
ENDCHAR
STARTCHAR uni1EE3.ss01
ENCODING -1
SWIDTH 451 0
DWIDTH 5 0
BBX 6 9 0 -2
BITMAP
08
0C
78
5C
D8
D0
70
00
60
ENDCHAR
STARTCHAR uni1EDD.ss01
ENCODING -1
SWIDTH 451 0
DWIDTH 5 0
BBX 6 10 0 0
BITMAP
40
40
60
28
0C
78
5C
D8
D0
70
ENDCHAR
STARTCHAR uni1EDF.ss01
ENCODING -1
SWIDTH 451 0
DWIDTH 5 0
BBX 6 9 0 0
BITMAP
30
10
38
0C
78
5C
D8
D0
70
ENDCHAR
STARTCHAR uni1EE1.ss01
ENCODING -1
SWIDTH 451 0
DWIDTH 5 0
BBX 6 8 0 0
BITMAP
68
58
0C
78
5C
D8
D0
70
ENDCHAR
STARTCHAR ohungarumlaut.ss01
ENCODING -1
SWIDTH 451 0
DWIDTH 5 0
BBX 6 10 0 0
BITMAP
28
3C
28
50
00
78
5C
D8
D0
70
ENDCHAR
STARTCHAR uni020F.ss01
ENCODING -1
SWIDTH 451 0
DWIDTH 5 0
BBX 6 8 0 0
BITMAP
38
48
48
78
5C
D8
D0
70
ENDCHAR
STARTCHAR omacron.ss01
ENCODING -1
SWIDTH 451 0
DWIDTH 5 0
BBX 6 7 0 0
BITMAP
78
00
78
5C
D8
D0
70
ENDCHAR
STARTCHAR uni01EB.ss01
ENCODING -1
SWIDTH 451 0
DWIDTH 5 0
BBX 6 8 0 -3
BITMAP
78
5C
D8
D8
70
20
40
30
ENDCHAR
STARTCHAR oslash.ss01
ENCODING -1
SWIDTH 451 0
DWIDTH 5 0
BBX 6 8 0 -1
BITMAP
10
10
78
7C
F8
70
60
20
ENDCHAR
STARTCHAR oslashacute.ss01
ENCODING -1
SWIDTH 451 0
DWIDTH 5 0
BBX 6 10 0 -1
BITMAP
10
20
20
10
78
7C
F8
70
60
20
ENDCHAR
STARTCHAR otilde.ss01
ENCODING -1
SWIDTH 451 0
DWIDTH 5 0
BBX 6 8 0 0
BITMAP
68
58
00
78
5C
D8
D0
70
ENDCHAR
STARTCHAR uni022D.ss01
ENCODING -1
SWIDTH 451 0
DWIDTH 5 0
BBX 6 10 0 0
BITMAP
78
00
68
58
00
78
5C
D8
D0
70
ENDCHAR
STARTCHAR p.ss01
ENCODING -1
SWIDTH 500 0
DWIDTH 6 0
BBX 8 10 -1 -5
BITMAP
2C
3C
34
2D
6E
60
A0
E0
C0
C0
ENDCHAR
STARTCHAR t.ss01
ENCODING -1
SWIDTH 343 0
DWIDTH 4 0
BBX 5 9 0 0
BITMAP
20
20
60
60
F0
40
40
48
70
ENDCHAR
STARTCHAR uni0163.ss01
ENCODING -1
SWIDTH 343 0
DWIDTH 4 0
BBX 5 11 0 -3
BITMAP
20
20
60
F0
40
40
48
78
70
10
60
ENDCHAR
STARTCHAR uni021B.ss01
ENCODING -1
SWIDTH 343 0
DWIDTH 4 0
BBX 5 12 0 -3
BITMAP
20
20
60
60
F0
40
40
48
70
20
20
20
ENDCHAR
STARTCHAR z.ss01
ENCODING -1
SWIDTH 432 0
DWIDTH 5 0
BBX 6 10 0 -4
BITMAP
48
78
30
44
6C
30
70
A0
A0
C0
ENDCHAR
STARTCHAR zacute.ss01
ENCODING -1
SWIDTH 432 0
DWIDTH 5 0
BBX 6 13 0 -4
BITMAP
18
10
20
48
78
30
44
6C
30
70
A0
A0
C0
ENDCHAR
STARTCHAR zcaron.ss01
ENCODING -1
SWIDTH 432 0
DWIDTH 5 0
BBX 6 14 0 -4
BITMAP
28
68
30
30
48
78
30
44
6C
30
70
A0
A0
C0
ENDCHAR
STARTCHAR zdotaccent.ss01
ENCODING -1
SWIDTH 432 0
DWIDTH 5 0
BBX 6 11 0 -4
BITMAP
30
48
78
30
44
6C
30
70
A0
A0
C0
ENDCHAR
STARTCHAR f_f
ENCODING -1
SWIDTH 684 0
DWIDTH 8 0
BBX 8 13 1 -3
BITMAP
36
55
5F
DA
AA
DC
9C
F7
D4
D4
B4
BC
DC
ENDCHAR
STARTCHAR f_j
ENCODING -1
SWIDTH 633 0
DWIDTH 7 0
BBX 8 13 0 -3
BITMAP
18
38
28
2E
70
FC
44
54
55
56
54
5C
6C
ENDCHAR
STARTCHAR lslash_lslash
ENCODING -1
SWIDTH 654 0
DWIDTH 7 0
BBX 9 11 1 0
BITMAP
3F80
E000
6600
5E00
9A00
AA00
BC00
DC00
9800
9B00
EE00
ENDCHAR
STARTCHAR t_t
ENCODING -1
SWIDTH 706 0
DWIDTH 8 0
BBX 9 10 0 0
BITMAP
1B00
2B00
2D00
7500
7600
FF00
4C00
4C00
6C80
3700
ENDCHAR
STARTCHAR f_j.fina
ENCODING -1
SWIDTH 624 0
DWIDTH 7 0
BBX 7 14 0 -4
BITMAP
18
38
28
2E
70
FC
44
54
54
54
54
5C
6C
08
ENDCHAR
STARTCHAR fi.fina
ENCODING -1
SWIDTH 603 0
DWIDTH 7 0
BBX 7 13 0 -3
BITMAP
18
38
28
2E
70
FE
44
54
54
54
50
50
60
ENDCHAR
STARTCHAR fl.fina
ENCODING -1
SWIDTH 730 0
DWIDTH 8 0
BBX 8 13 1 -3
BITMAP
36
55
5D
DA
AA
CA
8C
F8
CA
CE
C0
C0
C0
ENDCHAR
STARTCHAR f_ij.loclNLD.fina
ENCODING -1
SWIDTH 837 0
DWIDTH 9 0
BBX 10 15 0 -5
BITMAP
1800
3800
2800
2EC0
7000
FC80
4480
5580
5580
5700
5100
5700
6700
0A00
0E00
ENDCHAR
STARTCHAR i_j.loclNLD.fina
ENCODING -1
SWIDTH 451 0
DWIDTH 5 0
BBX 6 12 0 -5
BITMAP
6C
00
48
58
50
70
70
30
50
A0
A0
C0
ENDCHAR
STARTCHAR t_t.ss01.fina
ENCODING -1
SWIDTH 666 0
DWIDTH 7 0
BBX 8 9 0 0
BITMAP
24
24
64
6C
FF
48
48
59
7E
ENDCHAR
STARTCHAR I_J.loclNLD
ENCODING -1
SWIDTH 776 0
DWIDTH 9 0
BBX 7 9 1 0
BITMAP
42
42
C6
C6
CE
7E
04
8C
F8
ENDCHAR
STARTCHAR f_ij.loclNLD
ENCODING -1
SWIDTH 865 0
DWIDTH 10 0
BBX 11 15 0 -5
BITMAP
1800
2800
2800
2EC0
7000
FC80
4480
5580
55E0
57C0
5100
5700
6700
0A00
0E00
ENDCHAR
STARTCHAR i_j.loclNLD
ENCODING -1
SWIDTH 479 0
DWIDTH 5 0
BBX 6 12 0 -5
BITMAP
6C
00
48
58
50
74
78
30
50
A0
A0
C0
ENDCHAR
STARTCHAR t_t.ss01
ENCODING -1
SWIDTH 632 0
DWIDTH 7 0
BBX 8 9 0 0
BITMAP
24
24
64
6C
FF
48
48
59
7E
ENDCHAR
STARTCHAR uni0410.ss01
ENCODING -1
SWIDTH 780 0
DWIDTH 9 0
BBX 8 9 1 0
BITMAP
1F
70
46
C6
86
84
8C
CC
74
ENDCHAR
STARTCHAR uni0411.ss01
ENCODING -1
SWIDTH 881 0
DWIDTH 10 0
BBX 8 10 2 -1
BITMAP
FE
60
60
60
7E
C6
43
42
CE
58
ENDCHAR
STARTCHAR uni0412.ss01
ENCODING -1
SWIDTH 826 0
DWIDTH 9 0
BBX 8 9 1 0
BITMAP
7E
43
63
43
DC
C6
C6
C6
F8
ENDCHAR
STARTCHAR uni0413.ss01
ENCODING -1
SWIDTH 634 0
DWIDTH 7 0
BBX 7 9 2 0
BITMAP
FE
20
60
60
40
40
40
C0
C0
ENDCHAR
STARTCHAR uni0403.ss01
ENCODING -1
SWIDTH 634 0
DWIDTH 7 0
BBX 7 13 2 0
BITMAP
04
0C
10
00
FE
20
60
60
40
40
40
C0
C0
ENDCHAR
STARTCHAR uni0490.ss01
ENCODING -1
SWIDTH 639 0
DWIDTH 7 0
BBX 8 12 2 0
BITMAP
02
03
03
FE
A0
60
60
60
40
40
C0
C0
ENDCHAR
STARTCHAR uni0414.ss01
ENCODING -1
SWIDTH 836 0
DWIDTH 9 0
BBX 9 9 0 0
BITMAP
3E00
E300
3180
3180
2180
2180
6100
6700
7C00
ENDCHAR
STARTCHAR uni0415.ss01
ENCODING -1
SWIDTH 720 0
DWIDTH 8 0
BBX 8 9 0 0
BITMAP
1E
33
63
62
18
60
C0
63
3C
ENDCHAR
STARTCHAR uni0400.ss01
ENCODING -1
SWIDTH 720 0
DWIDTH 8 0
BBX 8 13 0 0
BITMAP
20
30
08
00
1E
33
63
62
18
60
C0
63
3C
ENDCHAR
STARTCHAR uni0401.ss01
ENCODING -1
SWIDTH 720 0
DWIDTH 8 0
BBX 8 11 0 0
BITMAP
1A
00
1E
33
63
62
18
60
C0
63
3C
ENDCHAR
STARTCHAR uni0416.ss01
ENCODING -1
SWIDTH 1196 0
DWIDTH 13 0
BBX 13 9 0 0
BITMAP
7118
1920
0B60
0B40
0780
1AC0
1240
3260
E638
ENDCHAR
STARTCHAR uni0417.ss01
ENCODING -1
SWIDTH 725 0
DWIDTH 8 0
BBX 7 9 1 0
BITMAP
3C
44
C4
0C
3C
06
86
8C
78
ENDCHAR
STARTCHAR uni0418.ss01
ENCODING -1
SWIDTH 800 0
DWIDTH 9 0
BBX 7 9 1 0
BITMAP
62
62
42
46
C6
C6
CE
DC
F4
ENDCHAR
STARTCHAR uni0419.ss01
ENCODING -1
SWIDTH 800 0
DWIDTH 9 0
BBX 7 13 1 0
BITMAP
02
12
1C
00
62
62
42
46
C6
C6
CE
DC
F4
ENDCHAR
STARTCHAR uni040D.ss01
ENCODING -1
SWIDTH 800 0
DWIDTH 9 0
BBX 7 13 1 0
BITMAP
20
70
18
00
62
62
42
46
C6
C6
CE
DC
F4
ENDCHAR
STARTCHAR uni048A.ss01
ENCODING -1
SWIDTH 815 0
DWIDTH 9 0
BBX 8 11 1 -2
BITMAP
62
62
42
46
C6
C6
CE
DC
F7
06
0C
ENDCHAR
STARTCHAR uni041A.ss01
ENCODING -1
SWIDTH 779 0
DWIDTH 9 0
BBX 8 9 1 0
BITMAP
62
66
46
4C
F0
D8
C8
CC
87
ENDCHAR
STARTCHAR uni040C.ss01
ENCODING -1
SWIDTH 779 0
DWIDTH 9 0
BBX 8 13 1 0
BITMAP
02
06
0C
00
62
66
46
4C
F0
D8
C8
CC
87
ENDCHAR
STARTCHAR uni041B.ss01
ENCODING -1
SWIDTH 706 0
DWIDTH 8 0
BBX 8 9 0 0
BITMAP
0C
0C
0C
1C
1C
3C
24
66
C7
ENDCHAR
STARTCHAR uni041C.ss01
ENCODING -1
SWIDTH 967 0
DWIDTH 11 0
BBX 10 9 0 0
BITMAP
18C0
1980
1980
3B80
3A80
2A80
2E80
6CC0
CC40
ENDCHAR
STARTCHAR uni041D.ss01
ENCODING -1
SWIDTH 846 0
DWIDTH 9 0
BBX 8 9 1 0
BITMAP
63
63
63
42
FF
C6
C6
C6
C6
ENDCHAR
STARTCHAR uni041E.ss01
ENCODING -1
SWIDTH 816 0
DWIDTH 9 0
BBX 8 9 1 0
BITMAP
3C
66
C3
C3
83
83
C2
C4
78
ENDCHAR
STARTCHAR uni041F.ss01
ENCODING -1
SWIDTH 847 0
DWIDTH 9 0
BBX 9 9 1 0
BITMAP
FF80
6200
6200
4200
4600
C600
C600
C600
C400
ENDCHAR
STARTCHAR uni0420.ss01
ENCODING -1
SWIDTH 662 0
DWIDTH 7 0
BBX 6 9 1 0
BITMAP
78
EC
64
44
4C
F8
C0
C0
C0
ENDCHAR
STARTCHAR uni0421.ss01
ENCODING -1
SWIDTH 704 0
DWIDTH 8 0
BBX 7 9 1 0
BITMAP
3C
66
C6
C4
80
80
C0
C6
78
ENDCHAR
STARTCHAR uni0422.ss01
ENCODING -1
SWIDTH 631 0
DWIDTH 7 0
BBX 7 9 1 0
BITMAP
FE
10
30
30
20
20
20
60
60
ENDCHAR
STARTCHAR uni0423.ss01
ENCODING -1
SWIDTH 776 0
DWIDTH 9 0
BBX 7 9 1 0
BITMAP
42
42
C6
C6
CE
7E
04
8C
F8
ENDCHAR
STARTCHAR uni040E.ss01
ENCODING -1
SWIDTH 776 0
DWIDTH 9 0
BBX 7 13 1 0
BITMAP
02
34
1C
00
42
42
C6
C6
CE
7E
04
8C
F8
ENDCHAR
STARTCHAR uni0424.ss01
ENCODING -1
SWIDTH 978 0
DWIDTH 11 0
BBX 10 10 1 -1
BITMAP
0400
7D80
CEC0
CCC0
88C0
8880
9980
EF00
1800
1800
ENDCHAR
STARTCHAR uni0425.ss01
ENCODING -1
SWIDTH 677 0
DWIDTH 7 0
BBX 8 9 0 0
BITMAP
63
32
36
1C
18
38
6C
C4
86
ENDCHAR
STARTCHAR uni0427.ss01
ENCODING -1
SWIDTH 773 0
DWIDTH 9 0
BBX 7 9 1 0
BITMAP
42
42
46
C6
CE
7E
04
04
04
ENDCHAR
STARTCHAR uni0426.ss01
ENCODING -1
SWIDTH 822 0
DWIDTH 9 0
BBX 8 12 1 -3
BITMAP
62
62
42
46
C6
C6
CE
DF
F3
0F
0A
0E
ENDCHAR
STARTCHAR uni0428.ss01
ENCODING -1
SWIDTH 1174 0
DWIDTH 13 0
BBX 12 9 1 0
BITMAP
6220
6630
4620
4660
C460
CC60
CCE0
D5E0
E740
ENDCHAR
STARTCHAR uni0429.ss01
ENCODING -1
SWIDTH 1194 0
DWIDTH 13 0
BBX 12 12 1 -3
BITMAP
6220
6630
4620
4660
C460
CC60
CCE0
D5F0
E730
00F0
00A0
00E0
ENDCHAR
STARTCHAR uni040F.ss01
ENCODING -1
SWIDTH 800 0
DWIDTH 9 0
BBX 7 11 1 -2
BITMAP
62
62
42
46
C6
C6
CE
DC
F4
20
20
ENDCHAR
STARTCHAR uni042C.ss01
ENCODING -1
SWIDTH 721 0
DWIDTH 8 0
BBX 8 9 0 0
BITMAP
30
20
20
7E
E3
63
63
66
3C
ENDCHAR
STARTCHAR uni042A.ss01
ENCODING -1
SWIDTH 863 0
DWIDTH 10 0
BBX 8 9 1 0
BITMAP
F8
10
30
3F
63
21
21
33
1E
ENDCHAR
STARTCHAR uni042B.ss01
ENCODING -1
SWIDTH 1078 0
DWIDTH 12 0
BBX 12 9 0 0
BITMAP
3030
2020
2020
7E20
E360
6360
6360
6640
3C40
ENDCHAR
STARTCHAR uni0409.ss01
ENCODING -1
SWIDTH 998 0
DWIDTH 11 0
BBX 11 9 0 0
BITMAP
0C00
0C00
0C00
17C0
1C60
3C60
2460
66C0
C380
ENDCHAR
STARTCHAR uni040A.ss01
ENCODING -1
SWIDTH 1102 0
DWIDTH 12 0
BBX 11 9 1 0
BITMAP
6600
6600
4400
47C0
FC60
CC60
CC60
C4C0
C780
ENDCHAR
STARTCHAR uni0405.ss01
ENCODING -1
SWIDTH 693 0
DWIDTH 8 0
BBX 8 9 0 0
BITMAP
3E
63
63
60
3C
06
C2
C6
7C
ENDCHAR
STARTCHAR uni0404.ss01
ENCODING -1
SWIDTH 704 0
DWIDTH 8 0
BBX 7 9 1 0
BITMAP
3C
66
C6
C4
F8
80
C0
C6
78
ENDCHAR
STARTCHAR uni042D.ss01
ENCODING -1
SWIDTH 755 0
DWIDTH 8 0
BBX 8 9 0 0
BITMAP
3C
63
03
03
3F
03
43
C6
7C
ENDCHAR
STARTCHAR uni0406.ss01
ENCODING -1
SWIDTH 357 0
DWIDTH 4 0
BBX 3 9 1 0
BITMAP
60
40
40
40
C0
C0
C0
C0
80
ENDCHAR
STARTCHAR uni0407.ss01
ENCODING -1
SWIDTH 357 0
DWIDTH 4 0
BBX 4 11 1 0
BITMAP
F0
00
60
40
40
40
C0
C0
C0
C0
80
ENDCHAR
STARTCHAR uni0408.ss01
ENCODING -1
SWIDTH 716 0
DWIDTH 8 0
BBX 7 9 1 0
BITMAP
7E
C4
84
84
0C
0C
88
98
70
ENDCHAR
STARTCHAR uni040B.ss01
ENCODING -1
SWIDTH 884 0
DWIDTH 10 0
BBX 8 9 1 0
BITMAP
FE
10
30
30
3F
33
21
63
63
ENDCHAR
STARTCHAR uni042E.ss01
ENCODING -1
SWIDTH 1166 0
DWIDTH 13 0
BBX 12 9 1 0
BITMAP
63C0
6660
6C20
4830
F830
C820
C860
CCC0
C780
ENDCHAR
STARTCHAR uni042F.ss01
ENCODING -1
SWIDTH 827 0
DWIDTH 9 0
BBX 8 9 1 0
BITMAP
3F
63
62
66
3E
0A
1A
32
E2
ENDCHAR
STARTCHAR uni0402.ss01
ENCODING -1
SWIDTH 843 0
DWIDTH 9 0
BBX 8 14 1 -5
BITMAP
FE
10
30
30
3F
33
23
63
63
07
0E
1A
16
1C
ENDCHAR
STARTCHAR uni0462.ss01
ENCODING -1
SWIDTH 721 0
DWIDTH 8 0
BBX 8 9 0 0
BITMAP
30
78
20
7E
E3
63
63
66
3C
ENDCHAR
STARTCHAR uni046A.ss01
ENCODING -1
SWIDTH 1196 0
DWIDTH 13 0
BBX 13 9 0 0
BITMAP
7FF8
1820
0860
0840
0780
1AC0
1240
3260
E638
ENDCHAR
STARTCHAR uni0472.ss01
ENCODING -1
SWIDTH 816 0
DWIDTH 9 0
BBX 8 9 1 0
BITMAP
3C
66
C3
F3
9F
83
C6
CC
78
ENDCHAR
STARTCHAR uni0474.ss01
ENCODING -1
SWIDTH 797 0
DWIDTH 9 0
BBX 10 9 1 0
BITMAP
43C0
4300
C300
C200
C600
C400
4C00
7800
7000
ENDCHAR
STARTCHAR uni0492.ss01
ENCODING -1
SWIDTH 634 0
DWIDTH 7 0
BBX 7 9 2 0
BITMAP
FE
20
60
60
F0
40
40
C0
C0
ENDCHAR
STARTCHAR uni0494.ss01
ENCODING -1
SWIDTH 889 0
DWIDTH 10 0
BBX 7 14 2 -5
BITMAP
FE
20
60
60
5E
66
46
C6
C6
0E
1C
34
2C
38
ENDCHAR
STARTCHAR uni0496.ss01
ENCODING -1
SWIDTH 1186 0
DWIDTH 13 0
BBX 13 12 0 -3
BITMAP
7118
1920
0B60
0B40
0780
1AC0
1240
3260
E630
0070
00D0
00E0
ENDCHAR
STARTCHAR uni0498.ss01
ENCODING -1
SWIDTH 725 0
DWIDTH 8 0
BBX 7 12 1 -3
BITMAP
3C
4C
C4
0C
3C
06
86
8C
78
38
50
70
ENDCHAR
STARTCHAR uni049A.ss01
ENCODING -1
SWIDTH 779 0
DWIDTH 9 0
BBX 7 12 1 -3
BITMAP
62
66
46
4C
F0
D8
D8
CE
86
0E
14
1C
ENDCHAR
STARTCHAR uni049C.ss01
ENCODING -1
SWIDTH 779 0
DWIDTH 9 0
BBX 8 9 1 0
BITMAP
62
66
56
5C
F0
F8
F8
EC
87
ENDCHAR
STARTCHAR uni049E.ss01
ENCODING -1
SWIDTH 779 0
DWIDTH 9 0
BBX 8 9 1 0
BITMAP
62
66
F6
4C
F0
D8
D8
CC
87
ENDCHAR
STARTCHAR uni04A0.ss01
ENCODING -1
SWIDTH 964 0
DWIDTH 11 0
BBX 10 9 1 0
BITMAP
F880
1880
1180
1300
3C00
3600
3200
3300
21C0
ENDCHAR
STARTCHAR uni04A2.ss01
ENCODING -1
SWIDTH 846 0
DWIDTH 9 0
BBX 8 12 1 -3
BITMAP
63
63
63
42
FF
C6
C6
C7
C3
07
0A
0E
ENDCHAR
STARTCHAR uni04A4.ss01
ENCODING -1
SWIDTH 1026 0
DWIDTH 11 0
BBX 11 9 1 0
BITMAP
63E0
6300
6300
4200
FF00
C600
C600
C600
C600
ENDCHAR
STARTCHAR uni0524.ss01
ENCODING -1
SWIDTH 892 0
DWIDTH 10 0
BBX 9 12 1 -3
BITMAP
FF80
6300
6200
4200
4600
C600
C600
C700
C300
0700
0A00
0E00
ENDCHAR
STARTCHAR uni04A8.ss01
ENCODING -1
SWIDTH 997 0
DWIDTH 11 0
BBX 11 9 1 0
BITMAP
3800
6780
CCC0
C8C0
98C0
98C0
C880
EF20
3FC0
ENDCHAR
STARTCHAR uni04AA.ss01
ENCODING -1
SWIDTH 704 0
DWIDTH 8 0
BBX 7 14 1 -5
BITMAP
3C
66
C6
C4
80
80
C0
C6
7E
0C
1C
14
28
18
ENDCHAR
STARTCHAR uni04AC.ss01
ENCODING -1
SWIDTH 697 0
DWIDTH 8 0
BBX 7 12 2 -3
BITMAP
FE
30
30
30
20
20
20
60
70
70
A0
E0
ENDCHAR
STARTCHAR uni04AE.ss01
ENCODING -1
SWIDTH 677 0
DWIDTH 7 0
BBX 6 9 2 0
BITMAP
8C
CC
D8
50
70
20
20
60
60
ENDCHAR
STARTCHAR uni04B0.ss01
ENCODING -1
SWIDTH 677 0
DWIDTH 7 0
BBX 6 9 2 0
BITMAP
8C
C8
D8
50
60
F0
20
60
60
ENDCHAR
STARTCHAR uni04B2.ss01
ENCODING -1
SWIDTH 677 0
DWIDTH 7 0
BBX 8 12 0 -3
BITMAP
63
32
36
1C
18
38
6C
C6
87
06
0A
1E
ENDCHAR
STARTCHAR uni04B4.ss01
ENCODING -1
SWIDTH 965 0
DWIDTH 11 0
BBX 9 12 1 -3
BITMAP
FC80
3180
3180
3180
3100
2300
2300
2580
3980
0380
0680
0700
ENDCHAR
STARTCHAR uni04B6.ss01
ENCODING -1
SWIDTH 804 0
DWIDTH 9 0
BBX 8 12 1 -3
BITMAP
42
42
46
C6
CE
7C
04
07
02
0E
1A
1C
ENDCHAR
STARTCHAR uni04B8.ss01
ENCODING -1
SWIDTH 773 0
DWIDTH 9 0
BBX 7 9 1 0
BITMAP
42
42
46
D6
D6
DE
74
24
04
ENDCHAR
STARTCHAR uni04BA.ss01
ENCODING -1
SWIDTH 744 0
DWIDTH 8 0
BBX 7 9 1 0
BITMAP
60
40
40
40
DC
E6
C6
C4
84
ENDCHAR
STARTCHAR uni0526.ss01
ENCODING -1
SWIDTH 818 0
DWIDTH 9 0
BBX 8 12 1 -3
BITMAP
60
60
40
40
DC
E6
C6
C7
87
06
0A
0E
ENDCHAR
STARTCHAR uni0528.ss01
ENCODING -1
SWIDTH 846 0
DWIDTH 9 0
BBX 11 12 -2 -3
BITMAP
0C60
0C60
0C60
0840
1FE0
18C0
18C0
18C0
10C0
1000
B000
E000
ENDCHAR
STARTCHAR uni052E.ss01
ENCODING -1
SWIDTH 706 0
DWIDTH 8 0
BBX 8 12 0 -3
BITMAP
0C
0C
0C
1C
1C
3C
24
64
C7
07
0A
0E
ENDCHAR
STARTCHAR uni04BC.ss01
ENCODING -1
SWIDTH 824 0
DWIDTH 9 0
BBX 8 9 1 0
BITMAP
0E
33
21
E1
FF
60
60
31
1F
ENDCHAR
STARTCHAR uni04BE.ss01
ENCODING -1
SWIDTH 824 0
DWIDTH 9 0
BBX 8 12 1 -3
BITMAP
0E
33
21
E1
FF
60
60
31
1F
10
10
18
ENDCHAR
STARTCHAR uni04C0.ss01
ENCODING -1
SWIDTH 357 0
DWIDTH 4 0
BBX 3 9 1 0
BITMAP
60
40
40
40
C0
C0
C0
C0
80
ENDCHAR
STARTCHAR uni04C1.ss01
ENCODING -1
SWIDTH 1196 0
DWIDTH 13 0
BBX 13 13 0 0
BITMAP
0040
0240
0380
0000
7118
1920
0B60
0B40
0780
1AC0
1240
3260
E638
ENDCHAR
STARTCHAR uni04C3.ss01
ENCODING -1
SWIDTH 779 0
DWIDTH 9 0
BBX 7 12 1 -3
BITMAP
62
66
46
4C
F0
D8
D8
CE
86
0E
14
1C
ENDCHAR
STARTCHAR uni04C5.ss01
ENCODING -1
SWIDTH 706 0
DWIDTH 8 0
BBX 8 11 0 -2
BITMAP
0C
0C
0C
1C
1C
3C
24
64
C7
06
04
ENDCHAR
STARTCHAR uni04C7.ss01
ENCODING -1
SWIDTH 846 0
DWIDTH 9 0
BBX 8 12 1 -3
BITMAP
63
63
63
42
FF
C6
C6
C7
C3
07
0A
0E
ENDCHAR
STARTCHAR uni04C9.ss01
ENCODING -1
SWIDTH 873 0
DWIDTH 10 0
BBX 8 11 1 -2
BITMAP
63
63
63
42
FF
C6
C6
C6
C7
06
04
ENDCHAR
STARTCHAR uni04CB.ss01
ENCODING -1
SWIDTH 773 0
DWIDTH 9 0
BBX 7 12 1 -3
BITMAP
42
42
46
C6
CE
7E
04
04
0C
38
58
70
ENDCHAR
STARTCHAR uni04CD.ss01
ENCODING -1
SWIDTH 967 0
DWIDTH 11 0
BBX 11 11 0 -2
BITMAP
18C0
1980
1980
3B80
3A80
2A80
2E80
6CE0
CC40
00C0
0180
ENDCHAR
STARTCHAR uni04D0.ss01
ENCODING -1
SWIDTH 780 0
DWIDTH 9 0
BBX 8 13 1 0
BITMAP
01
09
0E
00
1F
70
46
C6
86
84
8C
CC
74
ENDCHAR
STARTCHAR uni04D2.ss01
ENCODING -1
SWIDTH 780 0
DWIDTH 9 0
BBX 8 11 1 0
BITMAP
0B
00
1F
70
46
C6
86
84
8C
CC
74
ENDCHAR
STARTCHAR uni04D4.ss01
ENCODING -1
SWIDTH 1057 0
DWIDTH 12 0
BBX 11 9 1 0
BITMAP
1FE0
7200
4200
C600
87C0
8400
8C00
CE00
73E0
ENDCHAR
STARTCHAR uni04D6.ss01
ENCODING -1
SWIDTH 720 0
DWIDTH 8 0
BBX 8 13 0 0
BITMAP
01
1A
0E
00
1E
33
63
62
18
60
C0
63
3C
ENDCHAR
STARTCHAR uni04D8.ss01
ENCODING -1
SWIDTH 792 0
DWIDTH 9 0
BBX 8 9 1 0
BITMAP
3C
C6
02
03
FE
82
86
CC
78
ENDCHAR
STARTCHAR uni04DA.ss01
ENCODING -1
SWIDTH 792 0
DWIDTH 9 0
BBX 8 11 1 0
BITMAP
3C
00
3C
C6
02
03
FE
82
86
CC
78
ENDCHAR
STARTCHAR uni04DC.ss01
ENCODING -1
SWIDTH 1196 0
DWIDTH 13 0
BBX 13 11 0 0
BITMAP
02C0
0000
7118
1920
0B60
0B40
0780
1AC0
1240
3260
E638
ENDCHAR
STARTCHAR uni04DE.ss01
ENCODING -1
SWIDTH 725 0
DWIDTH 8 0
BBX 7 11 1 0
BITMAP
3C
00
3C
44
C4
0C
3C
06
86
8C
78
ENDCHAR
STARTCHAR uni04E0.ss01
ENCODING -1
SWIDTH 744 0
DWIDTH 8 0
BBX 7 9 1 0
BITMAP
7E
C6
44
0C
3C
06
86
8C
78
ENDCHAR
STARTCHAR uni04E2.ss01
ENCODING -1
SWIDTH 800 0
DWIDTH 9 0
BBX 7 11 1 0
BITMAP
1C
00
62
62
42
46
C6
C6
CE
DC
F4
ENDCHAR
STARTCHAR uni04E4.ss01
ENCODING -1
SWIDTH 800 0
DWIDTH 9 0
BBX 7 11 1 0
BITMAP
14
00
62
62
42
46
C6
C6
CE
DC
F4
ENDCHAR
STARTCHAR uni04E6.ss01
ENCODING -1
SWIDTH 816 0
DWIDTH 9 0
BBX 8 11 1 0
BITMAP
14
00
3C
66
C3
C3
83
83
C2
C4
78
ENDCHAR
STARTCHAR uni04E8.ss01
ENCODING -1
SWIDTH 816 0
DWIDTH 9 0
BBX 8 9 1 0
BITMAP
3C
66
C3
C3
FF
83
82
C4
78
ENDCHAR
STARTCHAR uni04EA.ss01
ENCODING -1
SWIDTH 816 0
DWIDTH 9 0
BBX 8 11 1 0
BITMAP
14
00
3C
66
C3
C3
FF
83
82
C4
78
ENDCHAR
STARTCHAR uni04EC.ss01
ENCODING -1
SWIDTH 755 0
DWIDTH 8 0
BBX 8 11 0 0
BITMAP
1E
00
3C
63
03
03
3F
03
43
C6
7C
ENDCHAR
STARTCHAR uni04EE.ss01
ENCODING -1
SWIDTH 776 0
DWIDTH 9 0
BBX 7 11 1 0
BITMAP
3C
00
42
42
C6
C6
CE
7E
04
8C
F8
ENDCHAR
STARTCHAR uni04F0.ss01
ENCODING -1
SWIDTH 776 0
DWIDTH 9 0
BBX 7 11 1 0
BITMAP
34
00
42
42
C6
C6
CE
7E
04
8C
F8
ENDCHAR
STARTCHAR uni04F2.ss01
ENCODING -1
SWIDTH 776 0
DWIDTH 9 0
BBX 7 13 1 0
BITMAP
14
14
14
00
42
42
C6
C6
CE
7E
04
8C
F8
ENDCHAR
STARTCHAR uni04F4.ss01
ENCODING -1
SWIDTH 773 0
DWIDTH 9 0
BBX 7 11 1 0
BITMAP
3C
00
42
42
46
C6
CE
7E
04
04
04
ENDCHAR
STARTCHAR uni04F6.ss01
ENCODING -1
SWIDTH 600 0
DWIDTH 7 0
BBX 8 12 1 -3
BITMAP
7F
10
30
30
20
20
20
60
70
50
A0
E0
ENDCHAR
STARTCHAR uni04F8.ss01
ENCODING -1
SWIDTH 1078 0
DWIDTH 12 0
BBX 12 11 0 0
BITMAP
0780
0000
3030
2020
2020
7E20
E360
6360
6360
6640
3C40
ENDCHAR
STARTCHAR uni04FA.ss01
ENCODING -1
SWIDTH 634 0
DWIDTH 7 0
BBX 10 13 -1 -4
BITMAP
1FC0
0400
0C00
0C00
1E00
0800
0800
0800
1800
1800
1000
D000
E000
ENDCHAR
STARTCHAR uni04FC.ss01
ENCODING -1
SWIDTH 846 0
DWIDTH 9 0
BBX 8 12 1 -3
BITMAP
63
63
63
42
FF
C6
C6
C7
C3
07
0A
0E
ENDCHAR
STARTCHAR uni04FE.ss01
ENCODING -1
SWIDTH 677 0
DWIDTH 7 0
BBX 8 9 0 0
BITMAP
61
33
36
1C
7E
38
6C
C4
86
ENDCHAR
STARTCHAR uni0510.ss01
ENCODING -1
SWIDTH 706 0
DWIDTH 8 0
BBX 6 9 1 0
BITMAP
3C
44
44
40
78
80
84
CC
78
ENDCHAR
STARTCHAR uni0512.ss01
ENCODING -1
SWIDTH 706 0
DWIDTH 8 0
BBX 8 12 0 -3
BITMAP
0C
0C
0C
1C
1C
3C
24
64
C7
07
0A
0E
ENDCHAR
STARTCHAR uni051A.ss01
ENCODING -1
SWIDTH 816 0
DWIDTH 9 0
BBX 8 12 1 -3
BITMAP
3C
66
C3
C3
83
83
82
C6
7C
18
0C
0C
ENDCHAR
STARTCHAR uni051C.ss01
ENCODING -1
SWIDTH 1236 0
DWIDTH 14 0
BBX 13 9 1 0
BITMAP
4218
4218
C610
C630
C630
CE20
4A60
7BC0
7180
ENDCHAR
STARTCHAR uni048C.ss01
ENCODING -1
SWIDTH 721 0
DWIDTH 8 0
BBX 8 9 0 0
BITMAP
30
78
20
7E
E3
63
63
66
3C
ENDCHAR
STARTCHAR uni048E.ss01
ENCODING -1
SWIDTH 662 0
DWIDTH 7 0
BBX 7 9 1 0
BITMAP
78
EC
64
5C
4E
F8
C0
C0
C0
ENDCHAR
STARTCHAR uni0430.fina
ENCODING -1
SWIDTH 458 0
DWIDTH 5 0
BBX 5 5 0 0
BITMAP
38
78
D8
D0
70
ENDCHAR
STARTCHAR uni0431.fina
ENCODING -1
SWIDTH 473 0
DWIDTH 5 0
BBX 5 10 0 0
BITMAP
18
70
60
30
10
78
48
D8
D0
70
ENDCHAR
STARTCHAR uni0432.fina
ENCODING -1
SWIDTH 475 0
DWIDTH 5 0
BBX 4 10 1 0
BITMAP
60
50
D0
A0
A0
E0
B0
90
B0
E0
ENDCHAR
STARTCHAR uni0433.fina
ENCODING -1
SWIDTH 382 0
DWIDTH 4 0
BBX 4 5 0 0
BITMAP
70
10
60
D0
70
ENDCHAR
STARTCHAR uni0453.fina
ENCODING -1
SWIDTH 382 0
DWIDTH 4 0
BBX 4 9 0 0
BITMAP
10
10
20
00
70
10
60
D0
70
ENDCHAR
STARTCHAR uni0491.fina
ENCODING -1
SWIDTH 394 0
DWIDTH 4 0
BBX 4 7 1 0
BITMAP
10
10
E0
80
80
80
80
ENDCHAR
STARTCHAR uni0434.fina
ENCODING -1
SWIDTH 449 0
DWIDTH 5 0
BBX 5 10 0 -5
BITMAP
38
78
D8
D0
70
30
50
A0
A0
C0
ENDCHAR
STARTCHAR uni0435.fina
ENCODING -1
SWIDTH 411 0
DWIDTH 5 0
BBX 5 5 0 0
BITMAP
70
50
F0
C8
70
ENDCHAR
STARTCHAR uni0450.fina
ENCODING -1
SWIDTH 411 0
DWIDTH 5 0
BBX 5 10 0 0
BITMAP
40
40
20
20
00
70
50
F0
C8
70
ENDCHAR
STARTCHAR uni0451.fina
ENCODING -1
SWIDTH 411 0
DWIDTH 5 0
BBX 5 7 0 0
BITMAP
78
00
70
50
F0
C8
70
ENDCHAR
STARTCHAR uni0436.fina
ENCODING -1
SWIDTH 783 0
DWIDTH 9 0
BBX 9 5 0 0
BITMAP
6B00
5D00
1C00
EC80
EB00
ENDCHAR
STARTCHAR uni0437.fina
ENCODING -1
SWIDTH 395 0
DWIDTH 4 0
BBX 4 10 0 -5
BITMAP
70
50
10
60
60
30
F0
A0
E0
C0
ENDCHAR
STARTCHAR uni0438.fina
ENCODING -1
SWIDTH 460 0
DWIDTH 5 0
BBX 4 5 1 0
BITMAP
90
B0
B0
E0
E0
ENDCHAR
STARTCHAR uni0439.fina
ENCODING -1
SWIDTH 460 0
DWIDTH 5 0
BBX 4 8 1 0
BITMAP
90
F0
00
90
B0
B0
E0
E0
ENDCHAR
STARTCHAR uni045D.fina
ENCODING -1
SWIDTH 460 0
DWIDTH 5 0
BBX 4 10 1 0
BITMAP
80
C0
40
20
00
90
B0
B0
E0
E0
ENDCHAR
STARTCHAR uni048B.fina
ENCODING -1
SWIDTH 460 0
DWIDTH 5 0
BBX 4 10 1 -2
BITMAP
90
F0
00
90
B0
B0
E0
F0
20
40
ENDCHAR
STARTCHAR uni043A.fina
ENCODING -1
SWIDTH 541 0
DWIDTH 6 0
BBX 5 5 1 0
BITMAP
B0
F8
C0
C8
B8
ENDCHAR
STARTCHAR uni045C.fina
ENCODING -1
SWIDTH 541 0
DWIDTH 6 0
BBX 5 9 1 0
BITMAP
10
30
20
00
B0
F8
C0
C8
B8
ENDCHAR
STARTCHAR uni043B.fina
ENCODING -1
SWIDTH 463 0
DWIDTH 5 0
BBX 5 5 0 0
BITMAP
30
30
70
50
D8
ENDCHAR
STARTCHAR uni043C.fina
ENCODING -1
SWIDTH 669 0
DWIDTH 7 0
BBX 7 5 0 0
BITMAP
34
3C
5C
54
D6
ENDCHAR
STARTCHAR uni043D.fina
ENCODING -1
SWIDTH 462 0
DWIDTH 5 0
BBX 4 5 1 0
BITMAP
90
B0
F0
A0
A0
ENDCHAR
STARTCHAR uni043E.fina
ENCODING -1
SWIDTH 453 0
DWIDTH 5 0
BBX 5 5 0 0
BITMAP
70
58
D8
D8
70
ENDCHAR
STARTCHAR uni043F.fina
ENCODING -1
SWIDTH 484 0
DWIDTH 5 0
BBX 4 5 1 0
BITMAP
B0
F0
F0
B0
B0
ENDCHAR
STARTCHAR uni0440.fina
ENCODING -1
SWIDTH 457 0
DWIDTH 5 0
BBX 6 10 -1 -5
BITMAP
3C
2C
2C
68
70
A0
A0
E0
C0
C0
ENDCHAR
STARTCHAR uni0441.fina
ENCODING -1
SWIDTH 404 0
DWIDTH 4 0
BBX 5 5 0 0
BITMAP
70
50
C0
C8
70
ENDCHAR
STARTCHAR uni0442.fina
ENCODING -1
SWIDTH 732 0
DWIDTH 8 0
BBX 7 5 1 0
BITMAP
B6
FE
F6
B4
B4
ENDCHAR
STARTCHAR uni0443.fina
ENCODING -1
SWIDTH 449 0
DWIDTH 5 0
BBX 5 10 0 -5
BITMAP
48
58
50
70
70
30
50
A0
A0
C0
ENDCHAR
STARTCHAR uni045E.fina
ENCODING -1
SWIDTH 449 0
DWIDTH 5 0
BBX 5 13 0 -5
BITMAP
48
78
00
48
58
50
70
70
30
50
A0
A0
C0
ENDCHAR
STARTCHAR uni0444.fina
ENCODING -1
SWIDTH 721 0
DWIDTH 8 0
BBX 8 12 0 -3
BITMAP
0C
08
08
08
3E
7B
DA
DE
7C
10
10
10
ENDCHAR
STARTCHAR uni0445.fina
ENCODING -1
SWIDTH 580 0
DWIDTH 6 0
BBX 7 5 0 0
BITMAP
6C
54
10
F2
FC
ENDCHAR
STARTCHAR uni0447.fina
ENCODING -1
SWIDTH 422 0
DWIDTH 5 0
BBX 4 6 1 0
BITMAP
80
E0
60
80
90
E0
ENDCHAR
STARTCHAR uni0446.fina
ENCODING -1
SWIDTH 468 0
DWIDTH 5 0
BBX 4 8 1 -3
BITMAP
90
B0
A0
F0
F0
70
E0
E0
ENDCHAR
STARTCHAR uni0448.fina
ENCODING -1
SWIDTH 693 0
DWIDTH 8 0
BBX 6 5 1 0
BITMAP
94
B4
AC
FC
F4
ENDCHAR
STARTCHAR uni0449.fina
ENCODING -1
SWIDTH 699 0
DWIDTH 8 0
BBX 6 8 1 -3
BITMAP
94
B4
AC
FC
F4
0C
14
18
ENDCHAR
STARTCHAR uni045F.fina
ENCODING -1
SWIDTH 462 0
DWIDTH 5 0
BBX 4 6 1 -1
BITMAP
90
B0
B0
E0
A0
80
ENDCHAR
STARTCHAR uni044C.fina
ENCODING -1
SWIDTH 517 0
DWIDTH 6 0
BBX 4 5 1 0
BITMAP
80
F0
90
90
E0
ENDCHAR
STARTCHAR uni044A.fina
ENCODING -1
SWIDTH 543 0
DWIDTH 6 0
BBX 5 5 0 0
BITMAP
F0
58
68
48
78
ENDCHAR
STARTCHAR uni044B.fina
ENCODING -1
SWIDTH 683 0
DWIDTH 8 0
BBX 6 5 1 0
BITMAP
84
F4
94
94
EC
ENDCHAR
STARTCHAR uni0459.fina
ENCODING -1
SWIDTH 709 0
DWIDTH 8 0
BBX 7 5 0 0
BITMAP
30
3E
72
52
DC
ENDCHAR
STARTCHAR uni045A.fina
ENCODING -1
SWIDTH 751 0
DWIDTH 8 0
BBX 7 5 1 0
BITMAP
90
BC
F6
B4
9C
ENDCHAR
STARTCHAR uni0455.fina
ENCODING -1
SWIDTH 394 0
DWIDTH 4 0
BBX 4 5 0 0
BITMAP
20
60
70
B0
70
ENDCHAR
STARTCHAR uni0454.fina
ENCODING -1
SWIDTH 426 0
DWIDTH 5 0
BBX 5 5 0 0
BITMAP
70
50
E0
C8
70
ENDCHAR
STARTCHAR uni044D.fina
ENCODING -1
SWIDTH 476 0
DWIDTH 5 0
BBX 5 5 0 0
BITMAP
70
18
38
D8
70
ENDCHAR
STARTCHAR uni0456.fina
ENCODING -1
SWIDTH 222 0
DWIDTH 2 0
BBX 3 7 0 0
BITMAP
60
00
40
40
40
C0
C0
ENDCHAR
STARTCHAR uni0457.fina
ENCODING -1
SWIDTH 222 0
DWIDTH 2 0
BBX 4 7 0 0
BITMAP
F0
00
40
40
40
C0
C0
ENDCHAR
STARTCHAR uni0458.fina
ENCODING -1
SWIDTH 229 0
DWIDTH 3 0
BBX 6 12 -3 -5
BITMAP
0C
00
08
08
08
08
18
18
30
50
F0
60
ENDCHAR
STARTCHAR uni045B.fina
ENCODING -1
SWIDTH 490 0
DWIDTH 5 0
BBX 4 9 1 0
BITMAP
40
40
F0
C0
B0
F0
D0
B0
B0
ENDCHAR
STARTCHAR uni044E.fina
ENCODING -1
SWIDTH 676 0
DWIDTH 7 0
BBX 6 5 1 0
BITMAP
9C
B4
E4
A4
B8
ENDCHAR
STARTCHAR uni044F.fina
ENCODING -1
SWIDTH 496 0
DWIDTH 5 0
BBX 5 5 0 0
BITMAP
78
48
78
38
D8
ENDCHAR
STARTCHAR uni0452.fina
ENCODING -1
SWIDTH 493 0
DWIDTH 5 0
BBX 5 14 0 -5
BITMAP
20
20
78
60
58
78
68
58
58
10
70
50
A0
60
ENDCHAR
STARTCHAR uni0463.fina
ENCODING -1
SWIDTH 517 0
DWIDTH 6 0
BBX 5 7 0 0
BITMAP
60
60
F0
78
48
58
70
ENDCHAR
STARTCHAR uni046B.fina
ENCODING -1
SWIDTH 878 0
DWIDTH 10 0
BBX 10 9 0 0
BITMAP
0600
0600
0600
0E00
3B80
0A00
1E00
FE40
ED80
ENDCHAR
STARTCHAR uni0473.fina
ENCODING -1
SWIDTH 453 0
DWIDTH 5 0
BBX 5 5 0 0
BITMAP
70
58
F8
D8
70
ENDCHAR
STARTCHAR uni0475.fina
ENCODING -1
SWIDTH 420 0
DWIDTH 5 0
BBX 5 5 1 0
BITMAP
98
B0
A0
E0
C0
ENDCHAR
STARTCHAR uni0493.fina
ENCODING -1
SWIDTH 407 0
DWIDTH 4 0
BBX 5 5 0 0
BITMAP
70
10
E0
58
70
ENDCHAR
STARTCHAR uni0495.fina
ENCODING -1
SWIDTH 442 0
DWIDTH 5 0
BBX 4 8 0 -3
BITMAP
70
10
60
C0
70
30
50
60
ENDCHAR
STARTCHAR uni0497.fina
ENCODING -1
SWIDTH 784 0
DWIDTH 9 0
BBX 8 8 0 -3
BITMAP
6B
5D
1C
EC
EB
03
05
06
ENDCHAR
STARTCHAR uni0499.fina
ENCODING -1
SWIDTH 405 0
DWIDTH 4 0
BBX 5 9 0 -4
BITMAP
70
58
10
30
D0
70
F0
A0
E0
ENDCHAR
STARTCHAR uni049B.fina
ENCODING -1
SWIDTH 533 0
DWIDTH 6 0
BBX 5 8 1 -3
BITMAP
B0
F8
C0
C0
B0
30
50
60
ENDCHAR
STARTCHAR uni049D.fina
ENCODING -1
SWIDTH 567 0
DWIDTH 6 0
BBX 5 5 1 0
BITMAP
B8
E8
E0
E8
B8
ENDCHAR
STARTCHAR uni049F.fina
ENCODING -1
SWIDTH 541 0
DWIDTH 6 0
BBX 6 5 0 0
BITMAP
F8
7C
60
64
5C
ENDCHAR
STARTCHAR uni04A1.fina
ENCODING -1
SWIDTH 639 0
DWIDTH 7 0
BBX 7 5 0 0
BITMAP
EC
3E
30
3A
2E
ENDCHAR
STARTCHAR uni04A3.fina
ENCODING -1
SWIDTH 482 0
DWIDTH 5 0
BBX 4 8 1 -3
BITMAP
90
90
F0
A0
B0
30
70
E0
ENDCHAR
STARTCHAR uni04A5.fina
ENCODING -1
SWIDTH 462 0
DWIDTH 5 0
BBX 5 6 1 0
BITMAP
08
98
B0
F0
A0
A0
ENDCHAR
STARTCHAR uni0525.fina
ENCODING -1
SWIDTH 503 0
DWIDTH 6 0
BBX 4 8 1 -3
BITMAP
B0
F0
F0
B0
90
30
50
60
ENDCHAR
STARTCHAR uni04A9.fina
ENCODING -1
SWIDTH 644 0
DWIDTH 7 0
BBX 7 5 0 0
BITMAP
6C
54
D4
DE
7C
ENDCHAR
STARTCHAR uni04AB.fina
ENCODING -1
SWIDTH 404 0
DWIDTH 4 0
BBX 4 8 0 -3
BITMAP
70
50
C0
C0
70
30
50
60
ENDCHAR
STARTCHAR uni04AD.fina
ENCODING -1
SWIDTH 751 0
DWIDTH 8 0
BBX 7 8 1 -3
BITMAP
B6
FE
F4
B4
B6
06
0C
1C
ENDCHAR
STARTCHAR uni04AF.fina
ENCODING -1
SWIDTH 450 0
DWIDTH 5 0
BBX 4 8 1 -3
BITMAP
90
90
A0
A0
C0
C0
C0
C0
ENDCHAR
STARTCHAR uni04B1.fina
ENCODING -1
SWIDTH 450 0
DWIDTH 5 0
BBX 5 8 0 -3
BITMAP
48
48
50
50
60
F0
60
60
ENDCHAR
STARTCHAR uni04B3.fina
ENCODING -1
SWIDTH 580 0
DWIDTH 6 0
BBX 6 8 0 -3
BITMAP
6C
54
10
F0
FC
0C
18
38
ENDCHAR
STARTCHAR uni04B5.fina
ENCODING -1
SWIDTH 468 0
DWIDTH 5 0
BBX 4 10 1 -3
BITMAP
70
00
90
B0
A0
F0
F0
70
E0
E0
ENDCHAR
STARTCHAR uni04B7.fina
ENCODING -1
SWIDTH 461 0
DWIDTH 5 0
BBX 3 9 1 -3
BITMAP
80
E0
60
80
80
E0
60
A0
C0
ENDCHAR
STARTCHAR uni04B9.fina
ENCODING -1
SWIDTH 473 0
DWIDTH 5 0
BBX 4 6 1 0
BITMAP
C0
F0
E0
40
D0
70
ENDCHAR
STARTCHAR uni0527.fina
ENCODING -1
SWIDTH 519 0
DWIDTH 6 0
BBX 4 13 1 -3
BITMAP
60
50
D0
A0
A0
F0
F0
D0
B0
90
30
50
60
ENDCHAR
STARTCHAR uni04BB.fina
ENCODING -1
SWIDTH 490 0
DWIDTH 5 0
BBX 4 10 1 0
BITMAP
60
50
D0
A0
A0
F0
F0
D0
B0
B0
ENDCHAR
STARTCHAR uni0529.fina
ENCODING -1
SWIDTH 462 0
DWIDTH 5 0
BBX 6 8 -1 -3
BITMAP
24
2C
3C
28
28
20
A0
E0
ENDCHAR
STARTCHAR uni052F.fina
ENCODING -1
SWIDTH 530 0
DWIDTH 6 0
BBX 5 8 0 -3
BITMAP
30
30
70
50
D8
18
28
30
ENDCHAR
STARTCHAR uni04BD.fina
ENCODING -1
SWIDTH 501 0
DWIDTH 6 0
BBX 6 5 0 0
BITMAP
38
28
F8
64
38
ENDCHAR
STARTCHAR uni04BF.fina
ENCODING -1
SWIDTH 501 0
DWIDTH 6 0
BBX 6 8 0 -3
BITMAP
38
28
E8
F4
38
10
20
18
ENDCHAR
STARTCHAR uni04CF.fina
ENCODING -1
SWIDTH 222 0
DWIDTH 2 0
BBX 3 9 0 0
BITMAP
20
20
60
60
40
40
40
C0
C0
ENDCHAR
STARTCHAR uni04C2.fina
ENCODING -1
SWIDTH 783 0
DWIDTH 9 0
BBX 9 8 0 0
BITMAP
1200
1C00
0000
6B00
5D00
1C00
EC80
EB00
ENDCHAR
STARTCHAR uni04C4.fina
ENCODING -1
SWIDTH 533 0
DWIDTH 6 0
BBX 5 8 1 -3
BITMAP
B0
F8
C0
C0
B0
30
50
60
ENDCHAR
STARTCHAR uni04C6.fina
ENCODING -1
SWIDTH 463 0
DWIDTH 5 0
BBX 5 7 0 -2
BITMAP
30
30
70
50
D8
10
30
ENDCHAR
STARTCHAR uni04C8.fina
ENCODING -1
SWIDTH 482 0
DWIDTH 5 0
BBX 4 8 1 -3
BITMAP
90
90
F0
A0
B0
30
70
E0
ENDCHAR
STARTCHAR uni04CA.fina
ENCODING -1
SWIDTH 462 0
DWIDTH 5 0
BBX 4 7 1 -2
BITMAP
90
B0
F0
A0
B0
20
40
ENDCHAR
STARTCHAR uni04CC.fina
ENCODING -1
SWIDTH 422 0
DWIDTH 5 0
BBX 4 7 1 -1
BITMAP
80
E0
60
80
90
E0
20
ENDCHAR
STARTCHAR uni04CE.fina
ENCODING -1
SWIDTH 669 0
DWIDTH 7 0
BBX 7 7 0 -2
BITMAP
34
3C
5C
54
D6
04
04
ENDCHAR
STARTCHAR uni04D1.fina
ENCODING -1
SWIDTH 458 0
DWIDTH 5 0
BBX 5 8 0 0
BITMAP
48
38
00
38
78
D8
D0
70
ENDCHAR
STARTCHAR uni04D3.fina
ENCODING -1
SWIDTH 458 0
DWIDTH 5 0
BBX 5 7 0 0
BITMAP
28
00
38
78
D8
D0
70
ENDCHAR
STARTCHAR uni04D5.fina
ENCODING -1
SWIDTH 671 0
DWIDTH 7 0
BBX 8 5 0 0
BITMAP
3E
6A
DE
D9
6E
ENDCHAR
STARTCHAR uni04D7.fina
ENCODING -1
SWIDTH 411 0
DWIDTH 5 0
BBX 5 8 0 0
BITMAP
48
70
00
70
50
F0
C8
70
ENDCHAR
STARTCHAR uni04D9.fina
ENCODING -1
SWIDTH 458 0
DWIDTH 5 0
BBX 5 5 0 0
BITMAP
70
18
78
D8
70
ENDCHAR
STARTCHAR uni04DB.fina
ENCODING -1
SWIDTH 458 0
DWIDTH 5 0
BBX 5 7 0 0
BITMAP
78
00
70
18
78
D8
70
ENDCHAR
STARTCHAR uni04DD.fina
ENCODING -1
SWIDTH 783 0
DWIDTH 9 0
BBX 9 7 0 0
BITMAP
1600
0000
6B00
5D00
1C00
EC80
EB00
ENDCHAR
STARTCHAR uni04DF.fina
ENCODING -1
SWIDTH 395 0
DWIDTH 4 0
BBX 5 12 0 -5
BITMAP
78
00
70
50
10
60
60
30
F0
A0
E0
C0
ENDCHAR
STARTCHAR uni04E1.fina
ENCODING -1
SWIDTH 456 0
DWIDTH 5 0
BBX 5 10 0 -5
BITMAP
78
30
60
40
20
70
E0
A0
E0
C0
ENDCHAR
STARTCHAR uni04E3.fina
ENCODING -1
SWIDTH 460 0
DWIDTH 5 0
BBX 4 7 1 0
BITMAP
F0
00
90
B0
B0
E0
E0
ENDCHAR
STARTCHAR uni04E5.fina
ENCODING -1
SWIDTH 460 0
DWIDTH 5 0
BBX 4 7 1 0
BITMAP
D0
00
90
B0
B0
E0
E0
ENDCHAR
STARTCHAR uni04E7.fina
ENCODING -1
SWIDTH 453 0
DWIDTH 5 0
BBX 5 7 0 0
BITMAP
78
00
70
58
D8
D8
70
ENDCHAR
STARTCHAR uni04E9.fina
ENCODING -1
SWIDTH 453 0
DWIDTH 5 0
BBX 5 5 0 0
BITMAP
70
58
F8
D8
70
ENDCHAR
STARTCHAR uni04EB.fina
ENCODING -1
SWIDTH 453 0
DWIDTH 5 0
BBX 5 7 0 0
BITMAP
78
00
70
58
F8
D8
70
ENDCHAR
STARTCHAR uni04ED.fina
ENCODING -1
SWIDTH 466 0
DWIDTH 5 0
BBX 5 7 0 0
BITMAP
68
00
70
18
38
D8
70
ENDCHAR
STARTCHAR uni04EF.fina
ENCODING -1
SWIDTH 449 0
DWIDTH 5 0
BBX 5 12 0 -5
BITMAP
78
00
48
58
50
70
70
30
50
A0
A0
C0
ENDCHAR
STARTCHAR uni04F1.fina
ENCODING -1
SWIDTH 449 0
DWIDTH 5 0
BBX 5 12 0 -5
BITMAP
68
00
48
58
50
70
70
30
50
A0
A0
C0
ENDCHAR
STARTCHAR uni04F3.fina
ENCODING -1
SWIDTH 449 0
DWIDTH 5 0
BBX 6 15 0 -5
BITMAP
14
3C
28
28
00
48
58
50
70
70
30
50
A0
A0
C0
ENDCHAR
STARTCHAR uni04F5.fina
ENCODING -1
SWIDTH 422 0
DWIDTH 5 0
BBX 4 7 1 0
BITMAP
F0
80
E0
60
80
90
E0
ENDCHAR
STARTCHAR uni04F7.fina
ENCODING -1
SWIDTH 442 0
DWIDTH 5 0
BBX 4 8 0 -3
BITMAP
70
10
60
C0
70
30
50
60
ENDCHAR
STARTCHAR uni04F9.fina
ENCODING -1
SWIDTH 683 0
DWIDTH 8 0
BBX 6 7 1 0
BITMAP
68
00
84
F4
94
94
EC
ENDCHAR
STARTCHAR uni04FB.fina
ENCODING -1
SWIDTH 442 0
DWIDTH 5 0
BBX 4 8 0 -3
BITMAP
70
10
E0
C0
70
30
50
60
ENDCHAR
STARTCHAR uni04FD.fina
ENCODING -1
SWIDTH 580 0
DWIDTH 6 0
BBX 6 8 0 -3
BITMAP
6C
54
10
F0
FC
0C
18
38
ENDCHAR
STARTCHAR uni04FF.fina
ENCODING -1
SWIDTH 580 0
DWIDTH 6 0
BBX 7 5 0 0
BITMAP
6C
54
38
F2
FC
ENDCHAR
STARTCHAR uni0511.fina
ENCODING -1
SWIDTH 387 0
DWIDTH 4 0
BBX 4 5 0 0
BITMAP
70
50
60
D0
70
ENDCHAR
STARTCHAR uni0513.fina
ENCODING -1
SWIDTH 530 0
DWIDTH 6 0
BBX 5 8 0 -3
BITMAP
30
30
70
50
D8
18
28
30
ENDCHAR
STARTCHAR uni051B.fina
ENCODING -1
SWIDTH 449 0
DWIDTH 5 0
BBX 5 9 0 -3
BITMAP
08
38
78
D0
D0
70
10
30
30
ENDCHAR
STARTCHAR uni051D.fina
ENCODING -1
SWIDTH 666 0
DWIDTH 7 0
BBX 7 5 1 0
BITMAP
B6
B4
BC
D8
D8
ENDCHAR
STARTCHAR uni048D.fina
ENCODING -1
SWIDTH 517 0
DWIDTH 6 0
BBX 5 7 0 0
BITMAP
60
60
F0
78
48
58
70
ENDCHAR
STARTCHAR uni048F.fina
ENCODING -1
SWIDTH 457 0
DWIDTH 5 0
BBX 6 10 -1 -5
BITMAP
3C
2C
3C
6C
70
A0
A0
E0
C0
C0
ENDCHAR
STARTCHAR uni030C.alt
ENCODING -1
SWIDTH 0 0
DWIDTH 0 0
BBX 2 3 -4 3
BITMAP
40
40
80
ENDCHAR
STARTCHAR uni0308.case
ENCODING -1
SWIDTH 0 0
DWIDTH 0 0
BBX 4 1 -5 6
BITMAP
F0
ENDCHAR
STARTCHAR uni0307.case
ENCODING -1
SWIDTH 0 0
DWIDTH 0 0
BBX 2 1 -4 6
BITMAP
C0
ENDCHAR
STARTCHAR gravecomb.case
ENCODING -1
SWIDTH 0 0
DWIDTH 0 0
BBX 3 3 -6 6
BITMAP
80
C0
60
ENDCHAR
STARTCHAR acutecomb.case
ENCODING -1
SWIDTH 0 0
DWIDTH 0 0
BBX 4 3 -4 6
BITMAP
20
70
C0
ENDCHAR
STARTCHAR uni030B.case
ENCODING -1
SWIDTH 0 0
DWIDTH 0 0
BBX 4 3 -5 6
BITMAP
50
50
A0
ENDCHAR
STARTCHAR uni0302.case
ENCODING -1
SWIDTH 0 0
DWIDTH 0 0
BBX 4 3 -5 6
BITMAP
60
E0
B0
ENDCHAR
STARTCHAR uni030C.case
ENCODING -1
SWIDTH 0 0
DWIDTH 0 0
BBX 4 3 -5 6
BITMAP
90
F0
60
ENDCHAR
STARTCHAR uni0306.case
ENCODING -1
SWIDTH 0 0
DWIDTH 0 0
BBX 4 2 -5 6
BITMAP
90
F0
ENDCHAR
STARTCHAR uni030A.case
ENCODING -1
SWIDTH 0 0
DWIDTH 0 0
BBX 3 3 -5 6
BITMAP
60
A0
60
ENDCHAR
STARTCHAR tildecomb.case
ENCODING -1
SWIDTH 0 0
DWIDTH 0 0
BBX 5 2 -6 6
BITMAP
68
D8
ENDCHAR
STARTCHAR uni0304.case
ENCODING -1
SWIDTH 0 0
DWIDTH 0 0
BBX 4 1 -5 6
BITMAP
F0
ENDCHAR
STARTCHAR hookabovecomb.case
ENCODING -1
SWIDTH 0 0
DWIDTH 0 0
BBX 2 3 -4 6
BITMAP
C0
40
C0
ENDCHAR
STARTCHAR uni030F.case
ENCODING -1
SWIDTH 0 0
DWIDTH 0 0
BBX 4 3 -6 6
BITMAP
50
F0
50
ENDCHAR
STARTCHAR uni0311.case
ENCODING -1
SWIDTH 0 0
DWIDTH 0 0
BBX 4 2 -5 6
BITMAP
F0
90
ENDCHAR
STARTCHAR uni0312.case
ENCODING -1
SWIDTH 0 0
DWIDTH 0 0
BBX 2 2 -4 6
BITMAP
C0
80
ENDCHAR
STARTCHAR uni031B.case
ENCODING -1
SWIDTH 0 0
DWIDTH 0 0
BBX 3 3 -4 4
BITMAP
20
60
C0
ENDCHAR
STARTCHAR dotbelowcomb.case
ENCODING -1
SWIDTH 0 0
DWIDTH 0 0
BBX 2 1 -5 -2
BITMAP
C0
ENDCHAR
STARTCHAR uni0324.case
ENCODING -1
SWIDTH 0 0
DWIDTH 0 0
BBX 4 1 -6 -2
BITMAP
F0
ENDCHAR
STARTCHAR uni0326.case
ENCODING -1
SWIDTH 0 0
DWIDTH 0 0
BBX 2 2 -5 -3
BITMAP
C0
80
ENDCHAR
STARTCHAR uni0327.case
ENCODING -1
SWIDTH 0 0
DWIDTH 0 0
BBX 3 3 -6 -3
BITMAP
60
20
E0
ENDCHAR
STARTCHAR uni0328.case
ENCODING -1
SWIDTH 0 0
DWIDTH 0 0
BBX 3 3 -5 -3
BITMAP
C0
80
E0
ENDCHAR
STARTCHAR uni032E.case
ENCODING -1
SWIDTH 0 0
DWIDTH 0 0
BBX 5 2 -7 -3
BITMAP
C8
78
ENDCHAR
STARTCHAR uni0331.case
ENCODING -1
SWIDTH 0 0
DWIDTH 0 0
BBX 4 1 -6 -2
BITMAP
F0
ENDCHAR
STARTCHAR brevecombcy
ENCODING -1
SWIDTH 0 0
DWIDTH 0 0
BBX 4 2 -5 6
BITMAP
90
E0
ENDCHAR
STARTCHAR brevecombcy.case
ENCODING -1
SWIDTH 0 0
DWIDTH 0 0
BBX 4 3 -5 6
BITMAP
10
90
E0
ENDCHAR
STARTCHAR uni03060301
ENCODING -1
SWIDTH 0 0
DWIDTH 0 0
BBX 4 3 -5 6
BITMAP
30
90
F0
ENDCHAR
STARTCHAR uni03060300
ENCODING -1
SWIDTH 0 0
DWIDTH 0 0
BBX 4 3 -5 6
BITMAP
C0
90
F0
ENDCHAR
STARTCHAR uni03060309
ENCODING -1
SWIDTH 0 0
DWIDTH 0 0
BBX 4 4 -5 6
BITMAP
60
60
90
F0
ENDCHAR
STARTCHAR uni03060303
ENCODING -1
SWIDTH 0 0
DWIDTH 0 0
BBX 4 4 -5 6
BITMAP
D0
A0
90
F0
ENDCHAR
STARTCHAR uni03020301
ENCODING -1
SWIDTH 0 0
DWIDTH 0 0
BBX 5 4 -5 6
BITMAP
08
18
60
B0
ENDCHAR
STARTCHAR uni03020300
ENCODING -1
SWIDTH 0 0
DWIDTH 0 0
BBX 5 4 -6 6
BITMAP
80
C0
30
58
ENDCHAR
STARTCHAR uni03020309
ENCODING -1
SWIDTH 0 0
DWIDTH 0 0
BBX 5 4 -5 5
BITMAP
18
08
78
F0
ENDCHAR
STARTCHAR uni03020303
ENCODING -1
SWIDTH 0 0
DWIDTH 0 0
BBX 4 4 -5 6
BITMAP
D0
A0
60
B0
ENDCHAR
STARTCHAR uni03060301.case
ENCODING -1
SWIDTH 0 0
DWIDTH 0 0
BBX 4 3 -5 6
BITMAP
30
90
F0
ENDCHAR
STARTCHAR uni03060300.case
ENCODING -1
SWIDTH 0 0
DWIDTH 0 0
BBX 4 3 -5 6
BITMAP
C0
90
F0
ENDCHAR
STARTCHAR uni03060309.case
ENCODING -1
SWIDTH 0 0
DWIDTH 0 0
BBX 4 4 -5 6
BITMAP
60
60
90
F0
ENDCHAR
STARTCHAR uni03060303.case
ENCODING -1
SWIDTH 0 0
DWIDTH 0 0
BBX 4 4 -5 6
BITMAP
D0
A0
90
F0
ENDCHAR
STARTCHAR uni03020301.case
ENCODING -1
SWIDTH 0 0
DWIDTH 0 0
BBX 5 4 -5 6
BITMAP
08
18
60
B0
ENDCHAR
STARTCHAR uni03020300.case
ENCODING -1
SWIDTH 0 0
DWIDTH 0 0
BBX 5 4 -6 6
BITMAP
80
C0
30
58
ENDCHAR
STARTCHAR uni03020309.case
ENCODING -1
SWIDTH 0 0
DWIDTH 0 0
BBX 5 4 -5 5
BITMAP
18
08
78
F0
ENDCHAR
STARTCHAR uni03020303.case
ENCODING -1
SWIDTH 0 0
DWIDTH 0 0
BBX 4 4 -5 6
BITMAP
D0
A0
60
B0
ENDCHAR
ENDFONT
